<svg width="147" height="37" viewBox="0 0 147 37" fill="none" xmlns="http://www.w3.org/2000/svg">
<path d="M8.24626 17.4201C8.24626 16.5896 8.90669 15.9074 9.7107 15.9074H12.1802C12.9842 15.9074 13.6733 16.5896 13.6733 17.4498V27.0599C13.9605 26.971 14.3051 26.882 14.7071 26.793C15.2526 26.6447 15.6546 26.1404 15.6546 25.5472V13.6235C15.6546 12.793 16.3151 12.0812 17.1478 12.0812H19.6173C20.4213 12.0812 21.1104 12.7634 21.1104 13.6235V24.6871C21.1104 24.6871 21.7134 24.4201 22.3165 24.1532C22.7759 23.9455 23.063 23.5006 23.063 22.9667V9.76761C23.063 8.9371 23.7235 8.22523 24.5275 8.22523H26.997C27.801 8.22523 28.4614 8.90744 28.4614 9.76761V20.6235C30.5863 19.0218 32.7686 17.0939 34.4915 14.7803C35.0084 14.0981 35.1519 13.2083 34.8648 12.3778C31.7062 3.00491 21.7709 -1.97813 12.697 1.28457C3.62319 4.54728 -1.20088 14.81 1.95774 24.1828C2.30231 25.2506 2.76175 26.2591 3.30733 27.2379C3.73805 28.0091 4.54206 28.454 5.4035 28.365C5.86294 28.3354 6.43723 28.276 7.1551 28.1871C7.78682 28.1277 8.24626 27.5642 8.24626 26.9116V17.4201Z" fill="#707070"/>
<path d="M8.18903 32.8439C15.9707 38.6872 26.8536 36.9075 32.5104 28.8694C34.664 25.7846 35.8413 22.077 35.8413 18.2804C35.8413 17.8652 35.8126 17.4499 35.7839 17.0347C29.4666 26.8524 17.6936 31.4499 8.18903 32.8439Z" fill="#707070"/>
<path d="M59.2218 17.9537C60.1694 18.1317 61.0021 18.6359 61.6051 19.4071C62.2081 20.1486 62.524 21.0978 62.524 22.0766C62.524 23.4707 62.0645 24.5681 61.1744 25.3986C60.2842 26.1995 58.9634 26.6147 57.2405 26.6147H50.7797V9.8563H57.1256C58.7624 9.8563 59.9971 10.2419 60.8585 10.9834C61.72 11.7249 62.1507 12.7631 62.1507 14.0682C62.1794 14.9876 61.921 15.9071 61.3467 16.6487C60.7724 17.3012 60.0258 17.7758 59.2218 17.9537ZM53.3927 17.0639H56.6375C57.5563 17.0639 58.2455 16.8563 58.7336 16.4114C59.2218 15.9368 59.5089 15.2546 59.4515 14.5724C59.4802 13.8902 59.2218 13.208 58.7336 12.7334C58.2455 12.2885 57.5276 12.0809 56.5513 12.0809H53.3927V17.0639ZM56.6949 24.3605C57.6999 24.3605 58.4465 24.1232 58.9921 23.6486C59.5376 23.1741 59.8535 22.4325 59.7961 21.691C59.8248 20.9495 59.5376 20.208 58.9634 19.7334C58.4178 19.2588 57.6425 19.0215 56.6375 19.0215H53.364V24.3605H56.6949ZM69.1284 13.3563C70.6215 13.3563 71.7988 13.7419 72.689 14.5427C73.6078 15.3436 74.1821 16.4707 74.3257 17.6868H71.8563C71.7701 17.0342 71.4542 16.4114 70.9661 15.9665C70.4205 15.5215 69.7314 15.2843 69.0422 15.3139C68.4966 15.2843 67.9511 15.4622 67.5203 15.7885C67.147 16.1148 66.946 16.619 66.9748 17.0936C66.946 17.4792 67.0896 17.8351 67.3768 18.102C67.6639 18.369 67.9798 18.5766 68.3531 18.6953C68.8986 18.8732 69.4442 19.0512 70.0185 19.1698C70.7938 19.3478 71.5691 19.5851 72.3157 19.852C72.9187 20.0893 73.4356 20.4749 73.8376 20.9792C74.297 21.5724 74.498 22.3139 74.4693 23.0851C74.498 24.1232 74.0386 25.102 73.2633 25.7546C72.4593 26.4368 71.3681 26.763 70.0185 26.763C68.4392 26.763 67.1758 26.3774 66.1995 25.6359C65.2232 24.8647 64.5914 23.708 64.4479 22.4622H67.0035C67.0609 23.1444 67.4055 23.7673 67.9223 24.1825C68.5253 24.6571 69.2719 24.8944 70.0472 24.8351C70.5928 24.8647 71.1097 24.6868 71.5404 24.3308C71.885 24.0046 72.086 23.53 72.086 23.0258C72.1147 22.6105 71.9424 22.2249 71.684 21.9283C71.3968 21.6317 71.0235 21.4241 70.6502 21.3054C70.1047 21.1275 69.5304 20.9495 68.9561 20.8308C68.2095 20.6529 67.4629 20.4453 66.7163 20.1783C66.142 19.9707 65.6252 19.5851 65.2519 19.1105C64.8212 18.5173 64.5914 17.8054 64.6489 17.0936C64.6201 16.0554 65.0796 15.047 65.8549 14.3944C66.5727 13.7122 67.6926 13.3563 69.1284 13.3563ZM82.7104 13.3563C84.3471 13.3563 85.6967 13.8012 86.7879 14.691C87.8791 15.6105 88.5969 16.9156 88.7979 18.3393H86.0126C85.8977 17.5681 85.4957 16.8859 84.8927 16.4114C84.261 15.9368 83.457 15.6698 82.6817 15.6995C81.7341 15.6698 80.8152 16.0851 80.1548 16.797C79.4944 17.5385 79.1498 18.6063 79.1498 20.03C79.1498 21.4537 79.4944 22.5512 80.1548 23.2927C80.8152 24.0342 81.7341 24.4198 82.6817 24.4198C83.4857 24.4495 84.261 24.2122 84.8927 23.708C85.4957 23.2334 85.8977 22.5215 86.0126 21.7503H88.7979C88.5969 23.1741 87.8791 24.4791 86.7879 25.3986C85.7255 26.2885 84.3471 26.763 82.7104 26.763C81.5905 26.7927 80.4707 26.4961 79.4656 25.9622C78.5181 25.4283 77.7428 24.6274 77.2546 23.6486C76.709 22.5512 76.4219 21.3054 76.4506 20.0597C76.4219 18.8139 76.709 17.5978 77.2546 16.5003C77.7715 15.5215 78.5181 14.7207 79.4656 14.1868C80.4707 13.6232 81.5905 13.3266 82.7104 13.3563ZM101.978 22.1359C101.978 22.9368 101.777 23.7376 101.404 24.4198C101.002 25.1613 100.399 25.7249 99.6521 26.1105C98.7619 26.5554 97.7856 26.7927 96.7806 26.763C95.7756 26.7927 94.7419 26.5851 93.823 26.1698C92.9903 25.8139 92.2724 25.2207 91.7268 24.4791C91.21 23.7376 90.8941 22.8775 90.8367 21.958H93.6507C93.7369 22.6698 94.0527 23.352 94.5696 23.8266C95.1439 24.3605 95.9192 24.6571 96.6945 24.5978C97.3836 24.6274 98.0441 24.3902 98.5322 23.9452C98.9629 23.5003 99.2214 22.8775 99.1926 22.2249C99.2214 21.691 99.0491 21.1571 98.7045 20.7419C98.3886 20.3563 97.9579 20.03 97.4985 19.8224C97.0103 19.6147 96.3786 19.3478 95.5459 19.0512C94.7132 18.7842 93.8804 18.458 93.0764 18.0427C92.4447 17.7165 91.8704 17.2122 91.4684 16.5893C91.009 15.8478 90.7505 14.9876 90.808 14.0978C90.7792 13.2673 91.009 12.4368 91.4397 11.7249C91.8991 11.0131 92.5308 10.4792 93.2774 10.1529C94.1389 9.76732 95.0864 9.58936 96.034 9.58936C97.6995 9.58936 98.9917 10.0046 99.968 10.8351C100.916 11.636 101.519 12.7927 101.633 14.0682H98.8194C98.7045 13.4453 98.4174 12.8817 97.9579 12.4368C97.4411 11.9622 96.7519 11.7249 96.034 11.7546C95.4023 11.7249 94.7706 11.9326 94.2537 12.3478C93.7943 12.7631 93.5359 13.386 93.5933 14.0088C93.5646 14.5131 93.7369 15.0173 94.0527 15.4326C94.3686 15.8182 94.7706 16.1148 95.2013 16.3224C95.6607 16.53 96.3212 16.797 97.1252 17.0639C97.9866 17.3309 98.8194 17.6571 99.6521 18.0724C100.313 18.4283 100.887 18.9326 101.318 19.5554C101.777 20.3266 102.007 21.2164 101.978 22.1359ZM110.219 13.3563C111.856 13.3563 113.205 13.8012 114.297 14.691C115.388 15.6105 116.106 16.9156 116.307 18.3393H113.493C113.378 17.5681 112.976 16.8859 112.373 16.4114C111.741 15.9368 110.937 15.6698 110.162 15.6995C109.214 15.6698 108.295 16.0851 107.635 16.797C106.974 17.5385 106.63 18.6063 106.63 20.03C106.63 21.4537 106.974 22.5512 107.635 23.2927C108.295 24.0342 109.214 24.4198 110.162 24.4198C110.966 24.4495 111.741 24.2122 112.373 23.708C112.976 23.2334 113.378 22.5215 113.493 21.7503H116.278C116.077 23.1741 115.359 24.4791 114.268 25.3986C113.205 26.2885 111.827 26.763 110.19 26.763C109.071 26.7927 107.951 26.4961 106.946 25.9622C105.998 25.4283 105.223 24.6274 104.735 23.6486C104.189 22.5512 103.902 21.3054 103.931 20.0597C103.902 18.8139 104.189 17.5978 104.735 16.5003C105.251 15.5215 105.998 14.7207 106.946 14.1868C107.951 13.6232 109.07 13.3266 110.219 13.3563ZM123.887 13.3563C124.921 13.3266 125.955 13.6232 126.816 14.2461C127.62 14.8097 128.223 15.6402 128.539 16.5597V13.5343H131.152V26.6147H128.539V23.5893C128.223 24.5385 127.62 25.3393 126.816 25.9029C125.955 26.4961 124.921 26.8224 123.887 26.7927C122.854 26.8224 121.82 26.5257 120.93 25.9918C120.04 25.4283 119.35 24.6274 118.891 23.6783C118.374 22.5512 118.116 21.3351 118.144 20.0893C118.116 18.8732 118.374 17.6275 118.891 16.53C119.35 15.5809 120.04 14.7504 120.93 14.2165C121.82 13.6232 122.854 13.3266 123.887 13.3563ZM124.691 15.7292C123.658 15.6698 122.624 16.0851 121.906 16.8859C121.217 17.6571 120.872 18.6953 120.872 20.0597C120.872 21.4241 121.217 22.4622 121.906 23.2334C122.624 24.0046 123.658 24.4198 124.691 24.3902C125.38 24.3902 126.07 24.2122 126.673 23.8563C127.247 23.5003 127.735 22.9664 128.051 22.3436C128.396 21.6317 128.568 20.8605 128.568 20.0597C128.597 19.2588 128.396 18.4876 128.051 17.8054C127.735 17.1826 127.247 16.6487 126.673 16.2927C126.07 15.9071 125.38 15.7292 124.691 15.7292ZM141.375 13.297C142.839 13.297 144.016 13.8012 144.906 14.78C145.797 15.7588 146.227 17.1529 146.227 18.9919V26.6147H143.643V19.2885C143.643 18.1317 143.356 17.2122 142.782 16.5597C142.15 15.9071 141.288 15.5512 140.398 15.6105C139.451 15.5809 138.561 15.9368 137.9 16.6487C137.268 17.3309 136.952 18.3393 136.952 19.6741V26.6147H134.339V13.5343H136.952V16.4114C137.268 15.4622 137.843 14.6614 138.647 14.1275C139.451 13.5639 140.398 13.297 141.375 13.297Z" fill="#707070"/>
</svg>
