<svg width="206" height="36" viewBox="0 0 206 36" fill="none" xmlns="http://www.w3.org/2000/svg">
<path d="M30.3456 21.5233C29.7277 21.907 29.0068 21.9767 28.4576 21.6628C27.771 21.2442 27.3591 20.3023 27.3591 19.0116V15.0698C27.3591 13.186 26.6382 11.8256 25.4024 11.4767C23.3084 10.8488 21.7294 13.4651 21.1458 14.4419L17.4384 20.4767V13.0465C17.4041 11.3372 16.8549 10.3256 15.825 10.0116C15.1385 9.80233 14.1086 9.90698 13.1131 11.4419L4.84019 24.907C3.74171 22.7791 3.15814 20.407 3.15814 18C3.15814 9.87209 9.5774 3.27907 17.4384 3.27907C25.2995 3.27907 31.7187 9.87209 31.7187 18V18.0349V18.0698C31.7874 19.6395 31.3068 20.8954 30.3456 21.5233ZM34.8769 18V17.9651V17.9302C34.8425 8.05814 27.0158 0 17.4384 0C7.8267 0 0 8.05814 0 18C0 27.907 7.8267 36 17.4384 36C21.8667 36 26.0547 34.2907 29.2815 31.186C29.9337 30.5581 29.968 29.5465 29.3501 28.8837C28.7665 28.2209 27.771 28.186 27.1188 28.7791C27.1188 28.7791 27.1188 28.7791 27.0845 28.814C24.4756 31.3256 20.9742 32.7558 17.3698 32.7558C13.1475 32.7558 9.37144 30.8721 6.76254 27.8721L14.2116 15.7326V21.3488C14.2116 24.0349 15.2415 24.907 16.0997 25.1512C16.9578 25.3954 18.2623 25.2209 19.6697 22.9535L23.7547 16.2209C23.892 16.0116 23.995 15.8023 24.1323 15.6628V19.0814C24.1323 21.593 25.1278 23.6163 26.8442 24.593C28.3889 25.5 30.3456 25.3954 31.959 24.3837C33.95 23.0581 35.0142 20.7558 34.8769 18ZM59.1808 11.8605C59.5927 12.1047 59.9703 12.6977 59.9703 13.2209C59.9703 14.0581 59.2838 14.7558 58.4942 14.7558C58.2883 14.7558 58.1166 14.686 57.945 14.6512C57.0182 13.9535 55.851 13.5 54.6152 13.5C51.6974 13.5 49.7064 15.907 49.7064 18.907C49.7064 21.907 51.7317 24.2791 54.6152 24.2791C56.057 24.2791 57.3614 23.686 58.3226 22.7442C58.5629 22.5698 58.8719 22.4651 59.1808 22.4651C59.9703 22.4651 60.5882 23.093 60.5882 23.8953C60.5882 24.4186 60.2793 24.8721 59.9017 25.1163C58.4943 26.3372 56.6062 27.1395 54.6496 27.1395C50.187 27.1395 46.5482 23.407 46.5482 18.8023C46.5482 14.1977 50.187 10.4651 54.6496 10.4651C56.2973 10.4302 57.8764 10.9535 59.1808 11.8605ZM67.3508 15.3488C70.4059 15.3488 72.9462 17.9651 72.9462 21.2093C72.9462 24.4186 70.3716 27.1744 67.3508 27.1744C64.1583 27.1744 61.5151 24.4535 61.5151 21.2093C61.5151 17.9651 64.1583 15.3488 67.3508 15.3488ZM67.3164 24.2791C68.6552 24.2791 69.788 22.9884 69.788 21.2442C69.788 19.5 68.6552 18.3837 67.3164 18.3837C65.8747 18.3837 64.6732 19.4651 64.6732 21.2442C64.6732 22.9535 65.8747 24.2791 67.3164 24.2791ZM74.8685 25.3605V17.1279C74.8685 16.2209 75.5551 15.4884 76.4476 15.4884C77.3058 15.4884 78.0267 16.2209 78.0267 17.1279V25.3605C78.0267 26.2674 77.3058 27 76.4476 27C75.5894 27 74.8685 26.2326 74.8685 25.3605ZM74.6282 12.3837C74.6282 11.3023 75.4521 10.4651 76.4476 10.4651C77.4774 10.4651 78.3013 11.3372 78.3013 12.3837C78.3013 13.4302 77.4774 14.2674 76.4476 14.2674C75.4178 14.2326 74.6282 13.3953 74.6282 12.3837ZM84.0683 20.8953V25.3605C84.0683 26.2674 83.3474 27 82.4893 27C81.6311 27 80.9102 26.2674 80.9102 25.3605V16.7442C80.9102 16.0465 81.4594 15.4884 82.146 15.4884C82.8325 15.4884 83.3474 16.0814 83.3474 16.7442C84.6176 15.5233 85.7504 15.3488 86.8145 15.3488C89.9727 15.3488 91.3801 17.7558 91.3801 20.5116V25.3605C91.3801 26.2674 90.6592 27 89.801 27C88.9428 27 88.222 26.2674 88.222 25.3605V20.8953C88.222 19.5 88.0503 18.314 86.0593 18.314C84.6519 18.314 84.0683 19.5 84.0683 20.8953ZM101.61 22.6047C101.232 22.6047 100.992 22.4302 100.786 22.186L97.1128 18.1395V25.3605C97.1128 26.2674 96.3919 27 95.5337 27C94.6755 27 93.9547 26.2674 93.9547 25.3605V11.0581C94.0577 10.814 94.2979 10.6395 94.5382 10.6395C94.8129 10.6395 95.0532 10.8837 95.2248 11.0581L101.095 17.7558C101.266 17.9651 101.472 18.0698 101.61 18.0698C101.713 18.0698 101.953 17.9651 102.125 17.7558L107.995 11.0581C108.166 10.8837 108.372 10.6395 108.681 10.6395C108.956 10.6395 109.196 10.814 109.265 11.0581V25.3605C109.265 26.2674 108.578 27 107.686 27C106.828 27 106.107 26.2674 106.107 25.3605V18.1395L102.434 22.186C102.159 22.4302 101.919 22.6047 101.61 22.6047ZM116.783 24.2791C118.19 24.2791 119.391 22.9884 119.391 21.2442C119.391 19.5 118.156 18.3488 116.783 18.3488C115.409 18.3488 114.277 19.5349 114.277 21.2442C114.277 22.9186 115.375 24.2791 116.783 24.2791ZM120.147 25.7442L120.078 25.3605C119.46 26.5814 117.503 27.1395 116.268 27.1395C113.315 27.1395 111.118 24.4186 111.118 21.1744C111.118 17.9651 113.35 15.314 116.439 15.314C116.954 15.314 118.739 15.4535 120.112 17.093L120.181 16.7093C120.181 16.0116 120.696 15.4535 121.382 15.4535C122.069 15.4535 122.618 16.0465 122.618 16.7093V25.7093C122.618 26.407 122.069 26.9651 121.382 26.9651C120.662 27 120.147 26.407 120.147 25.7442ZM131.303 18.314H130.96C128.969 18.4186 128.591 19.5698 128.591 20.8953V25.3605C128.591 26.2674 127.87 27 127.012 27C126.154 27 125.433 26.2674 125.433 25.3605V16.7442C125.433 16.0465 125.982 15.4884 126.669 15.4884C127.355 15.4884 127.87 16.0814 127.87 16.7442C129.037 15.6279 129.999 15.3837 130.96 15.3488H131.269C132.024 15.3488 132.711 16.0116 132.711 16.8488C132.745 17.6163 132.058 18.314 131.303 18.314ZM143.489 24.593C143.627 24.8372 143.73 25.0814 143.73 25.3605C143.73 26.1977 142.974 26.9651 142.151 26.9651C141.601 26.9651 141.121 26.5465 140.743 26.0581L137.104 21.7674V25.3256C137.104 26.2326 136.384 26.9651 135.525 26.9651C134.667 26.9651 133.946 26.2326 133.946 25.3256V12.2442C133.946 11.3372 134.633 10.6047 135.525 10.6047C136.418 10.6047 137.104 11.3372 137.104 12.2442V20.407L140.743 16.3256C141.121 15.907 141.567 15.4535 142.116 15.4535C142.906 15.4535 143.627 16.186 143.627 17.0233C143.627 17.2674 143.558 17.5465 143.421 17.7558L140.537 20.9651L143.489 24.593ZM149.668 18.3488C148.81 18.3488 147.403 18.8023 147.403 20.1628H151.968C151.934 18.8023 150.492 18.3488 149.668 18.3488ZM153.788 22.2209H147.403C147.403 24.1395 149.222 24.4535 150.012 24.4535C150.595 24.4535 151.419 24.3488 152.071 24.0349C152.277 23.8953 152.586 23.7907 152.895 23.7907C153.582 23.7907 154.165 24.3837 154.165 25.1163C154.165 25.6047 153.856 26.0233 153.479 26.2674C152.518 27 151.247 27.1744 150.046 27.1744C146.854 27.1744 144.21 25.4302 144.21 21.3488C144.21 18.1395 145.824 15.3488 149.6 15.3488C152.655 15.3488 154.955 17.3721 155.024 20.9651C155.024 21.6279 154.474 22.2209 153.788 22.2209ZM162.576 27.1395H161.717C159.314 27.1395 157.907 26.0581 157.907 22.2558V18.314H157.083C156.328 18.314 155.676 17.6163 155.676 16.8488C155.676 16.0116 156.362 15.3488 157.083 15.3488H157.907V12.314C157.907 11.407 158.594 10.6744 159.486 10.6744C160.344 10.6744 161.065 11.407 161.065 12.314V15.3488H162.37C163.125 15.3488 163.777 16.0116 163.777 16.8488C163.777 17.6163 163.09 18.314 162.37 18.314H161.065V21.6279C161.065 23.8256 161.168 24.2791 162.129 24.2791H162.576C163.331 24.2791 163.983 24.907 163.983 25.7093C163.983 26.4767 163.331 27.1395 162.576 27.1395ZM177.851 11.8605C178.263 12.1047 178.641 12.6977 178.641 13.2209C178.641 14.0581 177.954 14.7558 177.165 14.7558C176.959 14.7558 176.787 14.686 176.616 14.6512C175.689 13.9535 174.522 13.5 173.286 13.5C170.368 13.5 168.377 15.907 168.377 18.907C168.377 21.907 170.402 24.2791 173.286 24.2791C174.728 24.2791 176.032 23.686 176.993 22.7442C177.233 22.5698 177.542 22.4651 177.851 22.4651C178.641 22.4651 179.259 23.093 179.259 23.8953C179.259 24.4186 178.95 24.8721 178.572 25.1163C177.165 26.3372 175.277 27.1395 173.32 27.1395C168.858 27.1395 165.219 23.407 165.219 18.8023C165.219 14.1977 168.858 10.4651 173.32 10.4651C174.968 10.4302 176.581 10.9535 177.851 11.8605ZM185.85 24.2791C187.257 24.2791 188.459 22.9884 188.459 21.2442C188.459 19.5 187.223 18.3488 185.85 18.3488C184.442 18.3488 183.344 19.5349 183.344 21.2442C183.344 22.9186 184.477 24.2791 185.85 24.2791ZM189.214 25.7442L189.145 25.3605C188.527 26.5814 186.571 27.1395 185.335 27.1395C182.383 27.1395 180.186 24.4186 180.186 21.1744C180.186 17.9651 182.417 15.314 185.506 15.314C186.021 15.314 187.806 15.4535 189.179 17.093L189.248 16.7093C189.248 16.0116 189.763 15.4535 190.45 15.4535C191.136 15.4535 191.685 16.0465 191.685 16.7093V25.7093C191.685 26.407 191.136 26.9651 190.45 26.9651C189.729 27 189.214 26.407 189.214 25.7442ZM200.302 24.2791C201.709 24.2791 202.808 22.9186 202.808 21.2442C202.808 19.5 201.675 18.3488 200.302 18.3488C198.894 18.3488 197.693 19.5 197.693 21.2442C197.693 22.9884 198.894 24.2791 200.302 24.2791ZM197.693 26.1977V30.2791C197.693 31.186 196.972 31.9186 196.114 31.9186C195.255 31.9186 194.535 31.186 194.535 30.2791V16.7442C194.535 16.0465 195.084 15.4884 195.77 15.4884C196.457 15.4884 196.972 16.0814 196.972 16.8837C198.139 15.6628 199.581 15.3488 200.679 15.3488C203.734 15.3488 206 17.9651 206 21.2093C206 24.4186 203.837 27.1744 200.851 27.1744C199.924 27.1395 198.551 26.8605 197.693 26.1977Z" fill="white"/>
</svg>
