<svg width="210" height="36" viewBox="0 0 210 36" fill="none" xmlns="http://www.w3.org/2000/svg">
<g clip-path="url(#clip0)">
<path d="M55.6264 20.6447V20.6769C55.6584 22.0757 55.2261 23.153 54.3614 23.9409C53.4807 24.7448 52.2958 25.1307 50.7427 25.1307C49.1895 25.1307 47.9245 24.6162 46.9638 23.6193C46.0191 22.6224 45.5387 21.304 45.5387 19.7122V17.1235C45.5387 15.5318 46.0191 14.2133 46.9318 13.2164C47.8765 12.2196 49.1094 11.705 50.6306 11.705C52.2158 11.705 53.4487 12.107 54.3614 12.8627C55.2741 13.6666 55.7064 14.7439 55.6744 16.1267V16.1588H53.1285C53.1285 15.3227 52.9363 14.6796 52.536 14.2776C52.1357 13.8757 51.5112 13.6827 50.6626 13.6827C49.862 13.6827 49.2695 14.0043 48.8372 14.6314C48.4049 15.2584 48.1647 16.0623 48.1647 17.0592V19.6961C48.1647 20.693 48.4049 21.5291 48.8372 22.1722C49.3176 22.8154 49.9421 23.1209 50.7747 23.1209C51.5753 23.1209 52.1197 22.9279 52.52 22.5259C52.9203 22.124 53.1125 21.4969 53.1125 20.6447H55.6104H55.6264ZM69.9893 19.6157C69.9893 21.2075 69.4769 22.5581 68.4842 23.6032C67.4914 24.6322 66.1784 25.1628 64.5612 25.1628C62.9279 25.1628 61.663 24.6483 60.6382 23.6032C59.6454 22.5742 59.1331 21.2075 59.1331 19.6157V17.2682C59.1331 15.6765 59.6454 14.358 60.6382 13.2807C61.631 12.2517 62.944 11.689 64.5292 11.689C66.1624 11.689 67.4594 12.2035 68.4522 13.2807C69.4769 14.3098 69.9573 15.6765 69.9573 17.2682V19.6157H69.9893ZM67.3793 17.22C67.3793 16.191 67.1392 15.387 66.6268 14.7117C66.1144 14.0686 65.4419 13.7149 64.5292 13.7149C63.6485 13.7149 62.944 14.0364 62.4636 14.7117C61.9832 15.3549 61.711 16.191 61.711 17.22V19.5675C61.711 20.5965 61.9512 21.4487 62.4636 22.124C62.944 22.7671 63.6485 23.1209 64.5292 23.1209C65.4419 23.1209 66.1144 22.7993 66.6268 22.124C67.1392 21.4808 67.3793 20.6126 67.3793 19.5675V17.22ZM76.7465 24.9538H74.1205V11.8819H76.7465V24.9538ZM91.7819 24.9538H89.1559L83.9199 16.1427H83.8879V24.9538H81.2619V11.8819H83.8879L89.1239 20.693H89.1559V11.8819H91.7819V24.9538ZM104.928 13.9078H101.197V24.9538H98.5711V13.9078H94.9203V11.8819H104.928V13.9078ZM115.72 19.2138H110.884V22.9601H116.633V24.9538H108.291V11.8819H116.633V13.9078H110.917V17.1718H115.768V19.1977H115.72V19.2138ZM122.99 22.9601H128.818V24.9538H120.364V11.8819H122.99V22.9601ZM139.947 19.2138H135.111V22.9601H140.859V24.9538H132.517V11.8819H140.859V13.9078H135.143V17.1718H139.979V19.1977H139.947V19.2138ZM154.582 23.2012C154.181 23.7158 153.589 24.1981 152.756 24.6001C151.956 25.0021 150.931 25.195 149.666 25.195C148.081 25.195 146.816 24.7126 145.823 23.7158C144.83 22.7189 144.318 21.4487 144.318 19.8569V17.1075C144.318 15.5157 144.798 14.2455 145.791 13.2486C146.736 12.2517 148.017 11.7372 149.522 11.7372C151.107 11.7372 152.34 12.1392 153.173 12.8949C154.005 13.6506 154.438 14.6474 154.406 15.9176V15.9498H151.94C151.94 15.2745 151.748 14.7117 151.347 14.3098C150.947 13.9078 150.355 13.7149 149.602 13.7149C148.801 13.7149 148.177 14.0364 147.665 14.6314C147.184 15.2745 146.944 16.0623 146.944 17.0271V19.7765C146.944 20.7734 147.184 21.5773 147.697 22.2044C148.209 22.8475 148.881 23.1209 149.714 23.1209C150.355 23.1209 150.819 23.0405 151.187 22.9279C151.539 22.8154 151.828 22.6546 152.02 22.4456V19.8891H149.522V18.0561H154.646V23.2012H154.582ZM161.339 19.7283V24.9538H158.713V11.8819H163.244C164.717 11.8819 165.902 12.2356 166.735 12.9109C167.568 13.5862 168 14.551 168 15.7408C168 16.4161 167.84 16.9788 167.488 17.4933C167.135 17.9757 166.607 18.3777 165.934 18.6832C166.687 18.9243 167.247 19.2781 167.6 19.8408C167.92 20.3553 168.112 21.0306 168.112 21.8346V22.7832C168.112 23.1369 168.144 23.5389 168.272 23.9409C168.352 24.3428 168.544 24.6162 168.785 24.8252V25.0181H166.079C165.838 24.8252 165.678 24.5036 165.598 24.0695C165.518 23.6354 165.486 23.1852 165.486 22.7993V21.8828C165.486 21.2397 165.326 20.7251 164.974 20.3714C164.621 20.0177 164.093 19.8087 163.469 19.8087H161.323V19.7283H161.339ZM161.339 17.7345H163.212C163.933 17.7345 164.477 17.5737 164.846 17.2522C165.214 16.9306 165.406 16.4965 165.406 15.8533C165.406 15.2584 165.214 14.7761 164.846 14.4223C164.493 14.0686 163.965 13.9078 163.26 13.9078H161.355L161.339 17.7345ZM179.08 22.1561H174.869L173.989 24.986H171.25L175.654 11.9141H178.312L182.683 24.986H179.945L179.08 22.1561ZM175.51 20.0981H178.44L177.015 15.4674H176.983L175.51 20.0981ZM188.496 20.2106V24.9538H185.87V11.8819H190.865C192.371 11.8819 193.523 12.2839 194.404 13.0396C195.285 13.7953 195.669 14.8404 195.669 16.0623C195.669 17.2843 195.237 18.3294 194.404 19.0851C193.523 19.8408 192.387 20.2428 190.865 20.2428H188.48V20.2106H188.496ZM188.496 18.2169H190.881C191.602 18.2169 192.146 18.0239 192.547 17.622C192.899 17.22 193.107 16.7055 193.107 16.1106C193.107 15.4674 192.915 14.9529 192.547 14.551C192.194 14.149 191.634 13.956 190.881 13.956H188.496V18.2169ZM210 24.9538H207.374V19.5353H202.058V24.9538H199.432V11.8819H202.058V17.5094H207.374V11.8819H210V24.9538Z" fill="white"/>
<path d="M22.2249 26.1908L15.8521 28.9885V28.6991C14.6351 29.0046 13.2421 29.1814 11.9771 29.2618C5.94053 29.2136 1.20091 26.03 1.12085 22.2998V20.9009C3.09035 23.7629 7.12543 25.7245 11.9611 25.6441C13.5944 25.7245 15.2756 25.4673 16.6847 25.0814L17.2451 23.6986C15.5799 24.2131 13.7545 24.5508 11.9611 24.5508C5.94053 24.5508 1.1849 21.3994 1.12085 17.5887V16.4632C3.09035 19.1323 7.12543 21.0456 11.9611 20.917C14.1548 21.0456 16.2684 20.5794 18.0778 19.7915L18.366 18.4087C16.6047 19.3252 14.3309 19.8719 11.9931 19.7915C5.97255 19.8719 1.21693 16.7205 1.15288 12.8295V11.704C3.12238 14.4213 7.15745 16.3668 11.9931 16.4472C14.7472 16.3668 17.3572 15.6271 19.5029 14.5016L19.7911 12.8295C17.8536 14.2605 15.0194 15.2091 12.0091 15.3377C5.97255 15.193 1.21693 12.0095 1.15288 8.07021C1.20091 4.30781 5.97255 1.1564 11.9931 1.10817C15.5639 1.1564 18.9104 2.41054 20.8799 4.4686L21.0881 4.80625H22.4971L22.289 4.4686C20.3195 1.76739 16.3645 -0.00125488 11.9931 -0.00125488C5.30004 -0.0334121 0 3.63251 0 8.03805V8.32746V22.557C0.224171 26.8661 5.41212 30.3712 11.9451 30.3712C16.2524 30.3873 20.1594 28.6669 22.2249 26.1908Z" fill="white"/>
<path d="M19.631 35.9998L21.8727 26.417L15.4198 29.2308L19.3428 12.6215H11.785L13.7545 4.45361H37.8689L35.8994 12.6215H28.0374L26.3561 17.1236L35.0668 13.4737L19.631 35.9998ZM23.554 24.4715L22.4331 30.1151L31.7042 16.0463L24.1304 19.4228L27.493 11.5282H35.0668L36.4758 5.61127H14.5712L13.1621 11.5282H20.7359L17.0851 27.2852L23.554 24.4715Z" fill="#FABF2C"/>
</g>
<defs>
<clipPath id="clip0">
<rect width="210" height="36" fill="white"/>
</clipPath>
</defs>
</svg>
