<svg width="222" height="36" viewBox="0 0 222 36" fill="none" xmlns="http://www.w3.org/2000/svg">
<g clip-path="url(#clip0_11764_17891)">
<path d="M19.9048 35.8825C17.32 35.8825 14.7352 35.8532 12.1504 35.9119C10.4272 35.9413 9.26845 35.2365 8.46626 33.7684C5.85173 29.1582 3.20748 24.5481 0.563241 19.9674C-0.179524 18.646 -0.209235 17.3834 0.53353 16.062C3.2372 11.3344 5.94086 6.63622 8.61481 1.90865C9.35758 0.646003 10.4866 0 11.9424 0C17.2606 0 22.5788 0 27.897 0C29.3528 0 30.4818 0.587276 31.2246 1.87928C33.9283 6.63622 36.6616 11.3931 39.3653 16.1501C40.0486 17.354 40.0486 18.5873 39.3653 19.7912C36.6616 24.5188 33.958 29.2463 31.2543 34.0033C30.5412 35.2365 29.5014 35.9119 28.0456 35.8825C25.3419 35.8532 22.6382 35.8825 19.9048 35.8825ZM12.0612 23.7259C10.338 21.2887 9.86266 18.6166 10.4569 15.7684C11.5859 10.4241 16.9932 7.07667 22.3411 8.42741C27.0948 9.60196 30.2738 14.5351 29.5905 19.3507C29.0557 22.9038 26.3223 26.8385 21.5389 27.69C19.6969 28.0131 19.6969 27.9837 19.786 29.8336C19.8157 30.3622 20.0237 30.5677 20.5288 30.509C21.3012 30.3915 22.0737 30.3034 22.8462 30.1272C29.4717 28.5122 33.5123 21.7586 31.9674 15.1517C30.4818 8.63295 24.2426 4.43393 17.8251 5.63785C13.0417 6.54812 9.77353 9.39641 8.25829 13.9478C6.71334 18.5579 7.63436 22.7863 10.8728 26.4861C11.6453 27.367 12.3584 27.367 13.22 26.5155C14.9135 24.8124 16.6367 23.1387 18.3005 21.4356C18.8353 20.907 19.3403 20.5546 20.1722 20.5546C21.4795 20.584 22.5788 19.2626 22.5788 17.9119C22.5491 16.5612 21.4795 15.416 20.1722 15.3573C18.657 15.2985 17.32 16.2088 17.3794 17.5889C17.4389 18.9396 16.4584 19.4095 15.7157 20.2316C15.5671 19.9086 15.4483 19.7325 15.3888 19.5269C14.854 17.7064 15.1214 16.0326 16.4287 14.6232C17.6765 13.3018 19.2215 12.8026 21.0636 13.2137C23.2027 13.6835 24.8665 15.8564 24.8071 18.0294C24.7477 20.3785 22.9947 22.4339 20.7665 22.7276C20.0534 22.8157 19.786 23.0799 19.8157 23.814C19.8751 25.6933 19.5186 25.7227 21.7766 25.2529C24.302 24.7243 27.2731 22.1697 27.4216 18.0881C27.5702 14.124 24.1832 10.4535 20.202 10.3948C14.7352 10.3361 10.9917 15.739 13.012 20.7896C13.22 21.3181 13.6062 21.9347 13.4874 22.4046C13.3388 22.9038 12.6852 23.2561 12.2395 23.6966C12.2098 23.6966 12.1801 23.6966 12.0612 23.7259Z" fill="#2E6DF6"/>
<path d="M49.5573 17.9707C49.5573 14.4177 49.587 10.8647 49.5573 7.28229C49.5573 6.63629 49.7355 6.43074 50.4189 6.43074C52.9145 6.4601 55.44 6.34265 57.9356 6.4601C62.5408 6.72438 66.3735 8.51557 68.3641 12.8027C71.4243 19.4389 68.3344 27.8957 59.54 29.3345C58.6784 29.4813 57.7871 29.5107 56.8958 29.5107C54.7863 29.54 52.6769 29.5107 50.5971 29.5107C49.587 29.5107 49.587 29.5107 49.587 28.5417C49.5572 25.0474 49.5573 21.5237 49.5573 17.9707ZM54.0435 18.0001C54.0435 20.173 54.0733 22.3753 54.0435 24.5482C54.0435 25.1942 54.1921 25.5172 54.9349 25.4585C55.8262 25.3997 56.7175 25.4585 57.6088 25.4291C59.1241 25.3997 60.5205 24.9887 61.7386 24.1371C64.0857 22.5515 64.8879 20.2317 64.8285 17.5009C64.7691 14.2415 62.719 11.5694 59.4806 10.894C57.9951 10.6004 56.4204 10.6591 54.8754 10.5417C54.2515 10.4829 54.0435 10.7472 54.0435 11.3639C54.0435 13.5661 54.0435 15.7978 54.0435 18.0001Z" fill="#2E6DF6"/>
<path d="M152.178 29.5399C150.484 29.5399 148.969 29.5693 147.454 29.5105C147.186 29.5105 146.86 29.1875 146.652 28.9233C144.958 26.6035 143.265 24.3132 141.601 21.9641C141.274 21.5236 140.947 21.3474 140.412 21.3768C139.521 21.4061 138.6 21.3768 137.62 21.3768C137.59 21.6998 137.59 21.9641 137.59 22.2577C137.59 24.4306 137.56 26.6035 137.59 28.8058C137.59 29.4224 137.382 29.5986 136.788 29.5693C135.807 29.5399 134.797 29.5105 133.817 29.5693C133.163 29.5986 132.955 29.3931 132.955 28.7177C132.985 23.3735 132.955 18.0587 132.955 12.7145C132.955 10.8645 132.985 9.01462 132.955 7.1647C132.955 6.63615 133.133 6.45997 133.668 6.48933C136.52 6.5187 139.402 6.40124 142.254 6.5187C145.879 6.66552 149.028 8.77971 149.652 12.5383C150.128 15.4747 149.207 18.2348 146.562 20.026C146.325 20.2022 146.057 20.349 145.731 20.584C147.87 23.5203 149.949 26.4567 152.178 29.5399ZM137.59 17.2952C139.135 17.2952 140.561 17.3246 141.987 17.2952C143.71 17.2658 145.017 16.0326 145.166 14.3588C145.315 12.3621 144.304 10.8058 142.492 10.6003C141.036 10.4241 139.551 10.4828 138.095 10.4534C137.62 10.4534 137.56 10.7177 137.56 11.0994C137.56 12.6557 137.56 14.212 137.56 15.7683C137.59 16.2381 137.59 16.7079 137.59 17.2952Z" fill="#2E6DF6"/>
<path d="M184.592 13.9478C184.592 12.92 184.592 12.0391 184.592 11.1582C184.592 8.80909 184.622 6.45999 184.592 4.08152C184.592 3.43552 184.8 3.25934 185.424 3.2887C186.375 3.31806 187.355 3.34743 188.306 3.2887C188.959 3.25934 189.138 3.52361 189.108 4.11089C189.078 7.54645 189.108 10.982 189.108 14.4176C189.108 19.1158 189.108 23.8434 189.108 28.5416C189.108 29.5399 189.108 29.5399 188.098 29.5399C187.325 29.5399 186.523 29.5106 185.751 29.5399C185.216 29.5693 185.008 29.3637 185.038 28.8352C185.067 28.4241 185.038 28.013 185.038 27.5432C184.83 27.6019 184.74 27.6019 184.681 27.6606C182.482 30.5383 177.432 30.6558 174.55 28.4535C172.47 26.8385 171.4 24.6949 171.133 22.1696C170.806 18.7928 171.668 15.7977 174.401 13.566C177.045 11.3931 181.68 11.2463 184.117 13.6541C184.206 13.7128 184.325 13.7716 184.592 13.9478ZM175.59 20.907C175.679 21.4355 175.708 21.9641 175.827 22.4633C176.332 24.4894 178.056 25.8401 180.106 25.8695C182.245 25.8988 183.909 24.6949 184.414 22.5807C184.622 21.6998 184.651 20.7308 184.532 19.8499C184.235 17.2952 181.918 15.6509 179.363 16.1207C177.075 16.5611 175.649 18.3817 175.59 20.907Z" fill="#2E6DF6"/>
<path d="M94.8066 14.4176C95.0443 14.2414 95.1037 14.1827 95.1631 14.1239C97.5994 11.1582 102.918 11.2169 105.829 13.9478C107.731 15.739 108.592 17.9706 108.681 20.5253C108.771 23.4323 107.939 25.9576 105.77 27.9837C103.066 30.5089 98.2233 30.7439 95.6385 28.2186C95.5493 28.1305 95.4305 28.0717 95.2225 27.9249C95.1928 28.2773 95.1631 28.5416 95.1631 28.7765C95.1631 30.92 95.1334 33.0342 95.1631 35.1778C95.1631 35.8238 94.9551 36 94.3312 35.9706C93.3805 35.9119 92.4594 35.9119 91.5087 35.9706C90.8254 36 90.6471 35.7651 90.6471 35.1191C90.6768 29.7748 90.6471 24.4306 90.6471 19.1158C90.6471 17.0897 90.6768 15.0636 90.6471 13.0375C90.6471 12.4796 90.8254 12.274 91.3899 12.3034C92.2812 12.3328 93.1725 12.3328 94.0638 12.3034C94.6877 12.274 94.866 12.5089 94.8066 13.0962C94.7769 13.4779 94.8066 13.8597 94.8066 14.4176ZM104.076 20.907C104.076 20.6721 104.106 20.4665 104.076 20.2316C103.898 18.4992 103.096 17.1191 101.432 16.4143C99.7385 15.6802 98.0748 15.8858 96.6784 17.0897C95.2225 18.323 95.0146 19.9967 95.1631 21.7585C95.3711 24.2838 97.5103 26.1044 99.9465 25.8695C102.442 25.6346 104.076 23.6378 104.076 20.907Z" fill="#2E6DF6"/>
<path d="M116.258 27.9248C116.258 28.3359 116.258 28.6002 116.258 28.8645C116.258 30.9786 116.228 33.0635 116.258 35.1777C116.258 35.7943 116.109 36.0292 115.455 35.9999C114.534 35.9411 113.613 35.9411 112.722 35.9999C111.95 36.0586 111.712 35.8237 111.712 35.0308C111.742 32.2707 111.742 29.5105 111.742 26.7503C111.742 22.287 111.742 17.8237 111.742 13.3604C111.742 12.3033 111.742 12.3033 112.841 12.3033C113.613 12.3033 114.356 12.3326 115.129 12.3033C115.663 12.2739 115.871 12.4795 115.842 13.008C115.812 13.4191 115.842 13.8302 115.842 14.3881C116.109 14.2413 116.228 14.1826 116.287 14.1238C118.545 11.3636 123.358 11.1875 126.3 13.4485C129.152 15.6508 130.073 18.6459 129.746 22.0521C129.509 24.6067 128.439 26.809 126.33 28.424C123.685 30.4501 119.229 30.5969 116.763 28.2478C116.674 28.1597 116.555 28.101 116.258 27.9248ZM125.29 20.9656C125.201 20.437 125.171 19.8791 125.022 19.3506C124.487 17.3245 122.705 16.0031 120.655 16.0031C118.575 16.0031 116.882 17.2658 116.406 19.38C116.198 20.2315 116.198 21.1711 116.287 22.0521C116.555 24.6361 118.991 26.3098 121.546 25.7519C123.834 25.2527 125.23 23.4615 125.29 20.9656Z" fill="#2E6DF6"/>
<path d="M163.973 27.9545C163.735 28.1013 163.587 28.16 163.497 28.2481C161.477 29.9512 159.16 30.333 156.664 29.7457C154.139 29.1584 152.742 27.2498 152.772 24.607C152.802 22.4635 154.376 20.5842 156.813 20.1731C158.536 19.8795 160.348 19.9382 162.101 19.8501C162.547 19.8207 163.022 19.8501 163.438 19.8501C164.24 17.3835 162.279 15.3868 159.576 15.8566C158.358 16.0622 157.347 16.6494 156.456 17.4716C156.248 17.6772 156.01 17.8827 155.713 18.147C155 17.2661 154.287 16.4439 153.634 15.6217C153.544 15.5043 153.634 15.1813 153.752 15.0638C155.981 12.656 158.714 11.5695 161.982 12.0393C163.111 12.1861 164.27 12.5972 165.25 13.1551C166.974 14.1535 167.924 15.8273 167.984 17.7653C168.132 21.5238 168.103 25.2824 168.162 29.041C168.162 29.4814 167.954 29.5989 167.568 29.5989C166.676 29.5989 165.785 29.5695 164.894 29.5989C164.211 29.6282 163.913 29.4227 164.003 28.718C164.062 28.4831 164.003 28.2775 163.973 27.9545ZM157.199 24.8126C157.496 25.2824 157.704 25.8697 158.12 26.1633C159.249 26.9561 160.526 26.8387 161.715 26.2514C162.874 25.6641 163.527 24.7245 163.587 23.3737C163.616 22.9333 163.408 22.7865 163.022 22.7865C161.685 22.8158 160.348 22.7865 159.011 22.8746C157.942 22.992 157.347 23.7261 157.199 24.8126Z" fill="#2E6DF6"/>
<path d="M203.31 27.8665C202.834 28.2482 202.567 28.4538 202.3 28.6593C200.042 30.2156 197.605 30.4211 195.08 29.4521C192.97 28.6593 191.841 26.6038 192.079 24.3135C192.287 22.3167 193.773 20.6724 196.031 20.2025C196.922 19.997 197.873 19.9383 198.823 19.8795C200.131 19.8208 201.438 19.8795 202.745 19.8795C203.488 17.2955 201.527 15.3869 198.794 15.9154C197.278 16.2091 196.179 17.0606 195.05 18.2058C194.337 17.3249 193.624 16.5027 192.97 15.6218C192.881 15.5043 193 15.1813 193.089 15.0639C195.496 12.0688 200.517 11.0117 203.963 12.7441C206.043 13.8012 207.202 15.5337 207.321 17.7653C207.499 20.6724 207.44 23.6087 207.499 26.5451C207.499 27.3673 207.529 28.1895 207.469 29.0117C207.469 29.2172 207.142 29.5109 206.964 29.5402C205.954 29.599 204.944 29.5696 203.934 29.5696C203.518 29.5696 203.339 29.3934 203.369 28.9823C203.31 28.6593 203.31 28.3657 203.31 27.8665ZM200.695 22.8159V22.7866C199.893 22.8159 199.091 22.8453 198.289 22.9334C197.486 23.0215 196.833 23.55 196.684 24.2254C196.506 25.0476 196.773 25.8404 197.457 26.2808C199.21 27.3673 202.478 26.5451 202.864 23.7556C202.953 23.1389 202.775 22.8159 202.062 22.8453C201.616 22.8453 201.141 22.8159 200.695 22.8159Z" fill="#2E6DF6"/>
<path d="M74.336 18.1466C73.5635 17.207 72.8207 16.3554 71.9888 15.3277C72.7613 14.6817 73.4149 13.9769 74.2171 13.4484C76.6237 11.8334 79.2679 11.481 82.0607 12.2445C84.8535 13.0079 86.6658 15.4158 86.7253 18.4109C86.7847 21.9052 86.7253 25.3701 86.755 28.8644C86.755 29.3929 86.5767 29.5691 86.0419 29.5691C85.21 29.5397 84.3781 29.5104 83.5462 29.5691C82.8332 29.6278 82.4767 29.4223 82.5955 28.6588C82.6252 28.4827 82.5658 28.2771 82.5361 27.9835C82.2984 28.1303 82.1498 28.2184 82.0013 28.3358C79.8621 30.0683 77.4259 30.3619 74.841 29.6278C72.6722 29.0112 71.3055 27.1319 71.3352 24.8709C71.3649 23.021 72.078 21.2592 74.6925 20.3783C75.6432 20.0552 76.6534 19.9378 77.6635 19.8791C78.9411 19.791 80.2484 19.8497 81.5259 19.8791C82.0607 19.8791 82.239 19.7029 82.239 19.2037C82.2687 16.884 80.486 15.3864 78.0795 15.9443C77.099 16.1792 76.2077 16.7665 75.3164 17.2657C75.0193 17.4419 74.7519 17.7942 74.336 18.1466ZM80.0404 22.8154C79.565 22.8154 79.0896 22.7861 78.6143 22.8154C78.3469 22.8154 78.0498 22.8742 77.7824 22.9035C76.7722 22.9916 76.0889 23.5789 75.9403 24.4011C75.7918 25.3407 76.2969 26.1042 77.2773 26.4859C79.5056 27.3375 82.031 25.7812 82.239 23.4321C82.2687 23.021 82.1201 22.8154 81.7042 22.8154C81.1694 22.8154 80.6049 22.8154 80.0404 22.8154Z" fill="#2E6DF6"/>
<path d="M215.432 14.3586C215.966 13.8888 216.293 13.5658 216.679 13.2722C218.016 12.2738 219.502 11.8627 221.166 12.1563C221.582 12.2151 221.73 12.3619 221.73 12.773C221.701 13.742 221.701 14.7403 221.73 15.7093C221.73 16.2085 221.493 16.2673 221.077 16.2966C220.334 16.326 219.591 16.3553 218.908 16.5022C216.977 16.972 215.818 18.5283 215.818 20.6131C215.788 23.3146 215.788 26.016 215.818 28.7175C215.818 29.3341 215.64 29.569 215.016 29.5397C214.035 29.5103 213.025 29.5103 212.045 29.5397C211.54 29.5397 211.302 29.3929 211.302 28.8643C211.302 23.5495 211.302 18.2346 211.302 12.9492C211.302 12.45 211.51 12.3031 211.985 12.3031C212.877 12.3325 213.768 12.3325 214.659 12.3031C215.253 12.2738 215.432 12.5087 215.372 13.0666C215.372 13.419 215.432 13.7713 215.432 14.3586Z" fill="#2E6DF6"/>
</g>
<defs>
<clipPath id="clip0_11764_17891">
<rect width="221.76" height="36" fill="white"/>
</clipPath>
</defs>
</svg>
