<svg width="162" height="33" viewBox="0 0 162 33" fill="none" xmlns="http://www.w3.org/2000/svg">
<path d="M14.6396 1.24946L15.4161 0.266014C14.9535 -0.0886713 14.3091 -0.0886713 13.8465 0.266014L14.6396 1.24946ZM28.0221 5.08651L29.2943 5.10263C29.2943 4.76407 29.1621 4.44162 28.9308 4.21592C28.683 3.97409 28.3691 3.84511 28.0221 3.84511V5.08651ZM14.6396 31.7524L13.9291 32.7842C14.3587 33.0583 14.9204 33.0583 15.35 32.7842L14.6396 31.7524ZM1.27355 5.08651V3.84511C0.926597 3.84511 0.596164 3.97409 0.364861 4.21592C0.117036 4.45775 -0.0151391 4.78019 0.0013825 5.10263L1.27355 5.08651ZM13.863 2.24902C19.6621 6.63422 26.2873 6.34402 28.0221 6.34402V3.84511C26.2212 3.84511 20.4387 4.07082 15.4161 0.266014L13.863 2.24902ZM26.7499 5.07038C26.6508 10.8582 26.403 14.9371 25.9238 17.968C25.4447 20.9667 24.7673 22.7563 23.8917 24.0138C22.9995 25.3197 21.8926 26.0935 20.2569 27.0609C18.6048 28.0282 16.5065 29.0761 13.9291 30.7367L15.35 32.8164C17.7952 31.2203 19.8439 30.2047 21.5787 29.2051C23.33 28.1894 24.8665 27.0609 26.023 25.4164C27.196 23.7236 27.956 21.531 28.4517 18.355C28.9473 15.2112 29.2117 10.9711 29.3108 5.11875L26.7499 5.07038ZM15.35 30.7367C12.7726 29.0761 10.6909 28.0282 9.0222 27.0609C7.38656 26.1097 6.27961 25.3197 5.38744 24.0138C4.51179 22.7563 3.8344 20.9667 3.3718 17.968C2.89267 14.9371 2.64485 10.8582 2.54572 5.07038L0.0013825 5.11875C0.100512 10.9549 0.364861 15.2112 0.86051 18.355C1.35616 21.531 2.11615 23.7236 3.28919 25.4164C4.44571 27.0609 5.98222 28.1733 7.71699 29.2051C9.45177 30.2208 11.4839 31.2365 13.9291 32.8164L15.35 30.7367ZM1.27355 6.32791C2.9918 6.32791 9.6335 6.60198 15.4161 2.2329L13.8465 0.266014C8.84046 4.0547 3.05789 3.82899 1.27355 3.82899V6.32791V6.32791Z" fill="white"/>
<path d="M54.1238 12.1109H50.568V21.8164H48.1746V12.1109H44.6644V10.1606H54.101L54.1238 12.1109ZM59.7766 17.5488H57.8847V21.8164H55.4914V10.1606H59.7994C61.167 10.1606 62.2155 10.4589 62.9677 11.0784C63.7199 11.6979 64.0846 12.5698 64.0846 13.6711C64.0846 14.4742 63.9022 15.1396 63.5603 15.6673C63.2184 16.195 62.6942 16.608 62.0104 16.9293L64.5177 21.7017V21.8164H61.9648L59.7766 17.5488ZM57.8847 15.5985H59.7994C60.392 15.5985 60.8707 15.4379 61.1898 15.1396C61.5089 14.8413 61.6913 14.4054 61.6913 13.8547C61.6913 13.304 61.5317 12.8681 61.2126 12.5468C60.9163 12.2256 60.4376 12.065 59.7994 12.065H57.8847V15.5985ZM74.6608 10.1606V17.847C74.6608 19.1319 74.2733 20.1415 73.4756 20.8757C72.6778 21.6099 71.6065 22 70.2389 22C68.8941 22 67.8227 21.6329 67.025 20.9216C66.2272 20.2103 65.8169 19.2008 65.8169 17.9388V10.1606H68.2102V17.847C68.2102 18.6042 68.3926 19.1778 68.7573 19.522C69.122 19.8662 69.6234 20.0497 70.2617 20.0497C71.6065 20.0497 72.2903 19.3384 72.3131 17.9159V10.1606H74.6608ZM82.6386 18.7648C82.6386 18.3059 82.4791 17.9618 82.1599 17.7323C81.8408 17.4799 81.271 17.2275 80.4504 16.9522C79.6298 16.6769 78.9688 16.4015 78.4902 16.1491C77.1681 15.4379 76.5071 14.4742 76.5071 13.2581C76.5071 12.6386 76.6895 12.065 77.0314 11.5832C77.3961 11.0784 77.8975 10.6883 78.5585 10.413C79.2196 10.1377 79.9718 10 80.7923 10C81.6129 10 82.3651 10.1606 83.0033 10.4589C83.6415 10.7572 84.143 11.1931 84.5077 11.7438C84.8724 12.2945 85.0547 12.914 85.0547 13.6252H82.6614C82.6614 13.0975 82.5018 12.6845 82.1599 12.3862C81.818 12.088 81.3622 11.9273 80.7467 11.9273C80.1541 11.9273 79.6982 12.0421 79.3791 12.2945C79.06 12.5468 78.9005 12.8681 78.9005 13.2811C78.9005 13.6711 79.0828 13.9694 79.4703 14.2447C79.8578 14.4971 80.4048 14.7495 81.157 14.956C82.5246 15.369 83.5048 15.8738 84.1202 16.4933C84.7356 17.1128 85.0547 17.87 85.0547 18.7648C85.0547 19.7744 84.6672 20.5774 83.915 21.151C83.1629 21.7247 82.1371 22 80.8607 22C79.9717 22 79.1512 21.8394 78.4218 21.5182C77.6924 21.1969 77.1225 20.7381 76.7351 20.1644C76.3476 19.5908 76.1652 18.9254 76.1652 18.1683H78.5585C78.5585 19.4532 79.3335 20.0956 80.8607 20.0956C81.4305 20.0956 81.8636 19.9809 82.1827 19.7514C82.479 19.499 82.6386 19.1778 82.6386 18.7648ZM95.3802 12.1109H91.8244V21.8164H89.4311V12.1109H85.9209V10.1606H95.3574L95.3802 12.1109Z" fill="white"/>
<path d="M102.869 18.7739L103.229 20.6432L103.678 18.8643L106.254 10.0302H107.153L109.699 18.8643L110.148 20.6432L110.537 18.7739L112.694 10.0302H113.712L110.657 22H109.699L107.003 12.6231L106.703 11.4472L106.404 12.6231L103.648 22H102.69L99.6644 10.0302H100.683L102.869 18.7739ZM121.739 18.6231H116.348L115.12 21.9699H114.042L118.534 10H119.493L123.986 21.9699H122.937L121.739 18.6231ZM116.647 17.7789H121.41L119.014 11.2663L116.647 17.7789ZM126.771 21.1256H132.642V21.9699H125.753V10H126.771V21.1256ZM135.607 21.1256H141.478V21.9699H134.589V10H135.607V21.1256ZM149.985 16.2412H144.413V21.1256H150.823V21.9699H143.395V10H150.763V10.8744H144.413V15.397H149.985V16.2412ZM161.157 10.8744H157.083V21.9699H156.065V10.8744H151.991V10H161.127L161.157 10.8744Z" fill="white"/>
</svg>
