<svg xmlns="http://www.w3.org/2000/svg" width="26.667" height="26.667" viewBox="0 0 26.667 26.667">
  <g id="Group_Copy_15" data-name="Group Copy 15" transform="translate(-2.667 -2.667)">
    <path id="Combined_Shape" data-name="Combined Shape" d="M13.333,0A13.333,13.333,0,1,1,0,13.333,13.333,13.333,0,0,1,13.333,0Z" transform="translate(2.667 2.667)" fill="#f3ba2f"/>
    <path id="Combined_Shape-2" data-name="Combined Shape" d="M9.332,18.666,3.6,12.932l2.109-2.11,3.625,3.625,3.627-3.627,2.111,2.109L9.334,18.666h0ZM7.195,9.337l0,0,0,0,.375-.375.182-.182L9.333,7.192l2.14,2.14h0l0,0-2.14,2.14Zm9.362,2.106L14.448,9.334l2.11-2.109,2.11,2.109-2.109,2.109h0Zm-14.448,0L0,9.333l2.11-2.11,2.109,2.11L2.111,11.442h0Zm10.85-3.6L9.333,4.219,5.708,7.844,3.6,5.735,9.333,0,15.07,5.737,12.961,7.845h0Z" transform="translate(6.667 6.667)" fill="#fff"/>
  </g>
</svg>
