<svg id="icon" xmlns="http://www.w3.org/2000/svg" width="48" height="48" viewBox="0 0 48 48">
  <rect id="surface" width="48" height="48" rx="24" fill="#00f5be"/>
  <g id="gear" transform="translate(12 12)" opacity="0.8">
    <rect id="frame" width="24" height="24" fill="none"/>
    <path id="shape" d="M8.78,19.336a1.56,1.56,0,0,1-1.564-1.221l-.343-1.468-.184-.07-1.283.791a1.544,1.544,0,0,1-1.969-.255L2.2,15.881a1.546,1.546,0,0,1-.246-1.968l.791-1.274-.061-.175-1.468-.352A1.562,1.562,0,0,1,0,10.547V8.825A1.567,1.567,0,0,1,1.213,7.259l1.45-.36.079-.185-.8-1.274a1.549,1.549,0,0,1,.247-1.969L3.428,2.232A1.55,1.55,0,0,1,5.4,1.986l1.274.782.2-.079.343-1.468A1.56,1.56,0,0,1,8.78,0h1.784a1.564,1.564,0,0,1,1.573,1.221l.334,1.468.2.079,1.283-.782a1.553,1.553,0,0,1,1.968.246l1.23,1.239A1.538,1.538,0,0,1,17.4,5.441l-.791,1.274.07.185,1.45.36a1.569,1.569,0,0,1,1.222,1.565v1.723a1.568,1.568,0,0,1-1.222,1.564l-1.459.352-.07.175.8,1.274a1.545,1.545,0,0,1-.247,1.968l-1.238,1.231a1.545,1.545,0,0,1-1.969.255l-1.283-.791-.194.07-.334,1.468a1.564,1.564,0,0,1-1.573,1.221Z" transform="translate(2.323 2.361)" fill="#141029"/>
  </g>
</svg>
