<svg xmlns="http://www.w3.org/2000/svg" xmlns:xlink="http://www.w3.org/1999/xlink" width="635" height="662.189" viewBox="0 0 635 662.189">
  <defs>
    <clipPath id="clip-path">
      <path id="Clip_4" data-name="Clip 4" d="M252.823,488A241.337,241.337,0,0,1,81.742,417.224a244.486,244.486,0,0,1-20.819-23.66A240.99,240.99,0,0,1,43.47,367.576a14.682,14.682,0,0,1-3.109.327,14.944,14.944,0,0,1-9.9-26.169l-.24-.556-.021-.049c-.1-.237-.206-.475-.307-.71a239.856,239.856,0,0,1-19.013-93.924,15.117,15.117,0,0,1-7.791-5.3,14.911,14.911,0,0,1,.541-18.833,15.009,15.009,0,0,1,8.98-5.022,240.148,240.148,0,0,1,29.435-89.711,87.35,87.35,0,0,1,6.895-20.718A88.592,88.592,0,0,1,94.7,63.464,241.188,241.188,0,0,1,252.823,4.72a244.767,244.767,0,0,1,42.669,3.734,14.979,14.979,0,0,1,28.462,6.506c0,.06,0,.119,0,.178v.006c0,.061,0,.123,0,.184A241.487,241.487,0,0,1,410.858,63.37,88.6,88.6,0,0,1,456.943,107.1a87.336,87.336,0,0,1,6.874,20.9,240.963,240.963,0,0,1,23.329,57.9,14.956,14.956,0,0,1,5.562,28.793,245.449,245.449,0,0,1,2.064,31.671,239.847,239.847,0,0,1-19.013,94.059c-.021.049-.042.1-.063.142l-.007.017c-.023.052-.047.1-.07.159a14.96,14.96,0,0,1-13.039,26.154,240.818,240.818,0,0,1-17.607,26.36A244.279,244.279,0,0,1,383.292,449.9,14.971,14.971,0,0,1,357.657,464.2c-3.579,1.716-7.164,3.336-10.655,4.815A240.7,240.7,0,0,1,252.823,488Zm-197.9-131.54a15.09,15.09,0,0,1-5.009,8c42.1,71.866,119.849,116.511,202.911,116.511a232.5,232.5,0,0,0,101.618-23.1,14.973,14.973,0,0,1,25.1-14.042,237.274,237.274,0,0,0,76.724-80.29,14.955,14.955,0,0,1-4.386-6.885h-87l-23.064,28.481H395.3a14.978,14.978,0,1,1,6.239,14.936,213.3,213.3,0,0,1-119.463,58.064c-9.8,9.815-19.852,13.726-26.562,15.278a18.567,18.567,0,0,1-3.973.4,14.441,14.441,0,0,1-4.634-.63c-5.45-2.069-12.368-7.008-20.562-14.68A212.683,212.683,0,0,1,173.619,445a14.965,14.965,0,0,1-26.289-12.618,213.748,213.748,0,0,1-41.43-30.6,14.956,14.956,0,1,1,1.4-24.377,15.056,15.056,0,0,1,5.231,8.187h51.795l-23.581-29.126Zm198.595,57.528c-9.131,8.467-29.51,19.169-37.848,23.377,14.56,16.414,25.9,26.25,33.693,29.235a10.731,10.731,0,0,0,2.241.189,10.9,10.9,0,0,0,2.327-.22c6.108-1.407,15.258-5.048,24.17-14.407.369-.456,1.9-2.363,4.211-5.249,2.033-2.536,4.673-5.83,7.668-9.563-5.075-2.251-11.863-6.216-20.173-11.786-6.941-4.651-13.185-9.249-16.288-11.576ZM369.03,446.536a7.939,7.939,0,1,0,7.945,7.935A7.953,7.953,0,0,0,369.03,446.536ZM161.948,420.678a14.959,14.959,0,0,1,14.679,17.939A205.926,205.926,0,0,0,217.985,450.2c-6.1-6.376-12.786-14-19.869-22.654a188.628,188.628,0,0,1-65.5-34.944H112.532a14.921,14.921,0,0,1-1.678,4.115,208.683,208.683,0,0,0,39.611,29.328A14.946,14.946,0,0,1,161.948,420.678Zm135.3,18.833L288.84,450a206.166,206.166,0,0,0,107.982-55.21,15.979,15.979,0,0,1-1.1-2.63H373.556A188.656,188.656,0,0,1,306.63,427.82l-5.865,7.3a3.629,3.629,0,0,1,.11,1.058,3.508,3.508,0,0,1-3.505,3.337.661.661,0,0,1-.125-.008h0ZM161.948,427.7a7.935,7.935,0,1,0,7.948,7.935A7.951,7.951,0,0,0,161.948,427.7Zm18.2-35.1c5.946,8.191,17.85,24.187,30.763,39.293,11.9-5.9,33.615-17.764,39.556-24.839a3.524,3.524,0,0,1,4.844-.522c12.494,9.651,31.035,22.017,39.2,25.167,11.6-14.466,25.489-31.789,31.71-39.542H309.154a14.975,14.975,0,1,1-.7-7.025h24.333l23.056-28.481H326.057a15.11,15.11,0,0,1-5.329,7.661,14.953,14.953,0,1,1,5.695-14.685h35.106l37.49-46.307v-76.31l-25.23-22.852-41.454,29.9a21.513,21.513,0,0,1,7.62,4.94,32.369,32.369,0,0,1,6.011,8.3,46.216,46.216,0,0,1,3.943,10.969,58.2,58.2,0,0,1,1.416,12.934c0,21.44-11,38.234-25.034,38.234s-25.034-16.794-25.034-38.234a58.117,58.117,0,0,1,1.441-13.04,46.032,46.032,0,0,1,4.009-11.033,32.086,32.086,0,0,1,6.1-8.309,21.269,21.269,0,0,1,7.725-4.866l-.023-.032,47.95-34.591-20.711-18.76c-1.152-.947-2.258-1.949-3.288-2.978l-.327-.3.015-.018a46.448,46.448,0,1,1,79.622-32.527,45.888,45.888,0,0,1-4.1,19.054,46.364,46.364,0,0,1-11.1,15.243h0v0l-.03.024a46.817,46.817,0,0,1-8.529,6.151l-20.4,14.719,23.749,21.511A81,81,0,0,0,377.286,63.751c-43.783,0-80.162,35.558-81.094,79.266v3.523c.014.569,0,3.154,0,3.666v.012H209.38c0-.067.2-7.989.187-8.335a81.112,81.112,0,1,0-107.146,79.586l23.754-21.511-20.4-14.719a46.845,46.845,0,0,1-8.528-6.151l-.035-.025,0,0a46.38,46.38,0,0,1-11.1-15.243,45.875,45.875,0,0,1-4.1-19.054,46.492,46.492,0,0,1,92.984,0,46.231,46.231,0,0,1-13.361,32.527l.016.018-.328.3c-1.027,1.025-2.133,2.027-3.288,2.978L137.325,199.34l47.952,34.592-.023.032a21.273,21.273,0,0,1,7.727,4.866,32.078,32.078,0,0,1,6.1,8.309,46.028,46.028,0,0,1,4.009,11.033,58.121,58.121,0,0,1,1.441,13.04c0,21.44-11,38.234-25.035,38.234s-25.035-16.794-25.035-38.234a58.184,58.184,0,0,1,1.417-12.934,46.223,46.223,0,0,1,3.944-10.969,32.381,32.381,0,0,1,6.01-8.3,21.511,21.511,0,0,1,7.617-4.94L132,204.161l-25.233,22.852v76.31L144.1,349.435H179.36a15.058,15.058,0,0,1,5.231-8.184,14.812,14.812,0,0,1,9.329-3.266,14.959,14.959,0,1,1,0,29.918,14.819,14.819,0,0,1-9.329-3.262,15.044,15.044,0,0,1-5.231-8.181H149.786l23.581,29.126H196.69a15.056,15.056,0,0,1,5.231-8.187,14.813,14.813,0,0,1,9.328-3.263,14.959,14.959,0,1,1,0,29.919,14.809,14.809,0,0,1-9.328-3.266,15.063,15.063,0,0,1-5.231-8.184Zm154.846-.444h0l.14.117-20.4,25.446a182.309,182.309,0,0,0,47.335-25.563H334.991Zm-190.785.444a182.046,182.046,0,0,0,45.78,24.777c-8.977-11.473-15.93-21.149-18.5-24.777H144.205Zm150.11-10.463a7.939,7.939,0,1,0,7.953,7.934A7.949,7.949,0,0,0,294.315,382.139Zm-83.066-.988a7.939,7.939,0,1,0,7.949,7.943A7.955,7.955,0,0,0,211.249,381.151Zm-113.276,0a7.939,7.939,0,1,0,7.836,9.219,3.47,3.47,0,0,1,0-2.552A7.91,7.91,0,0,0,97.973,381.151Zm312.075-1.33a7.939,7.939,0,1,0,7.945,7.943A7.957,7.957,0,0,0,410.048,379.821ZM193.919,345.009a7.938,7.938,0,1,0,7.948,7.934A7.951,7.951,0,0,0,193.919,345.009Zm-153.558,0a7.938,7.938,0,1,0,7.949,7.934A7.951,7.951,0,0,0,40.361,345.009Zm425.878-.561a7.939,7.939,0,1,0,7.945,7.935A7.953,7.953,0,0,0,466.24,344.448Zm-154.538,0a7.939,7.939,0,1,0,7.742,9.708,3.662,3.662,0,0,1-.148-1.011,3.55,3.55,0,0,1,.319-1.462A8,8,0,0,0,311.7,344.448ZM465.407,146.6h0a87.272,87.272,0,0,1-8.358,35.6,213.126,213.126,0,0,1-16.785,167.423h11.255A14.987,14.987,0,0,1,469.2,337.718a232.389,232.389,0,0,0,18.546-91.358,235.906,235.906,0,0,0-2.01-30.6,14.952,14.952,0,0,1-5.484-28.241A233.18,233.18,0,0,0,465.406,146.6ZM432.45,306.607h0c-1.508,4.507-3.214,9.016-5.071,13.4a188.441,188.441,0,0,1-15.8,29.623h20.556A206.418,206.418,0,0,0,452.3,190.93a88.936,88.936,0,0,1-13.9,17.2,190.7,190.7,0,0,1,1.2,70.034,15.047,15.047,0,0,1,6.154,5.425,14.95,14.95,0,0,1-12.6,23.036c-.2,0-.426-.005-.7-.017Zm-.194-93.088a87.972,87.972,0,0,1-26.2,14.452v77.835l-35.48,43.824h32.434a181.561,181.561,0,0,0,22.651-45.023,15.108,15.108,0,0,1-5.419-5.373,14.961,14.961,0,0,1,12.453-22.518,182.23,182.23,0,0,0-.436-63.2Zm-358.843-.1a181.711,181.711,0,0,0,29.094,136.013H135.06L99.737,305.806V227.971A87.918,87.918,0,0,1,73.413,213.422ZM53.391,190.777a206.9,206.9,0,0,0-5.465,85.282,14.949,14.949,0,0,1,6.069,27.993,205.67,205.67,0,0,0,19.413,45.383H93.93A189.505,189.505,0,0,1,67.279,208.021a88.708,88.708,0,0,1-13.888-17.244ZM40.361,337.984a14.811,14.811,0,0,1,9.329,3.266,15.059,15.059,0,0,1,5.231,8.185H65.285a212.059,212.059,0,0,1-18.077-43.519l-.132,0h-.005c-.108,0-.22.007-.331.007A14.959,14.959,0,0,1,41,277.151a216.6,216.6,0,0,1-2.2-30.792,213.11,213.11,0,0,1,9.864-64.331,87.366,87.366,0,0,1-8.282-35.746,232.315,232.315,0,0,0-20.743,71.609,14.945,14.945,0,0,1,7.408,5.358,14.912,14.912,0,0,1-.534,18.4,15.04,15.04,0,0,1-8.6,5.13,232.264,232.264,0,0,0,18.847,91.645A15,15,0,0,1,40.361,337.984ZM326.29,240c-9.762,0-18.009,14.294-18.009,31.213s8.247,31.212,18.009,31.212,18-14.293,18-31.212S336.048,240,326.29,240ZM179.5,240c-9.759,0-18,14.294-18,31.213s8.245,31.212,18,31.212,18-14.293,18-31.212S189.259,240,179.5,240Zm253.651,43.727a7.938,7.938,0,1,0,7.952,7.938A7.951,7.951,0,0,0,433.151,283.725Zm-386.41-.7a7.938,7.938,0,1,0,7.949,7.938A7.952,7.952,0,0,0,46.741,283.029ZM14.98,224.17a7.939,7.939,0,1,0,7.949,7.939A7.953,7.953,0,0,0,14.98,224.17Zm472.042-31.255a7.938,7.938,0,1,0,7.945,7.939A7.955,7.955,0,0,0,487.022,192.915ZM377.286,105.35a39.368,39.368,0,0,0-28.033,67.109l3.17,2.873.1.081.005,0c.067.055.133.11.2.164a.029.029,0,0,0-.008.007.023.023,0,0,1-.007.006l21.576,19.541,29.81-21.5a39.369,39.369,0,0,0-26.811-68.282Zm-248.78,0a39.372,39.372,0,0,0-26.816,68.282l29.81,21.5L153.076,175.6l-.014-.012.177-.146,0,0,.011-.01.113-.093,3.172-2.873a39.373,39.373,0,0,0-28.033-67.109Zm80.723-35.891a181.8,181.8,0,0,0-24.219,7.795A88.6,88.6,0,0,1,207.7,106.133a87.342,87.342,0,0,1,8.93,36.79h72.531A87.609,87.609,0,0,1,307.927,90.5a89.044,89.044,0,0,1,12.818-13.217,181.133,181.133,0,0,0-67.922-13.106c-4.943,0-9.959.2-14.909.608a14.979,14.979,0,0,1-28.684,4.674Zm43.593-12.3a188.432,188.432,0,0,1,73.741,14.87c.12.05.239.1.358.154s.222.1.335.144a88,88,0,0,1,19.567-10.171,207.007,207.007,0,0,0-187.936-.031,88.1,88.1,0,0,1,19.6,10.166c.1-.042.195-.085.292-.128s.2-.091.308-.134a188.932,188.932,0,0,1,28.968-9.546,14.98,14.98,0,0,1,28.774-4.65C242.149,57.383,247.531,57.156,252.823,57.156Zm-29.834-1.543a7.938,7.938,0,1,0,7.949,7.939A7.953,7.953,0,0,0,222.988,55.613ZM252.823,32.6a212.963,212.963,0,0,1,103.542,26.64A88.535,88.535,0,0,1,392.849,58.1,233.979,233.979,0,0,0,322.1,22.163,14.981,14.981,0,0,1,294,15.355a236.422,236.422,0,0,0-41.181-3.613,232.936,232.936,0,0,0-140.079,46.4,88.514,88.514,0,0,1,36.589,1.076A212.867,212.867,0,0,1,252.823,32.6ZM308.975,7.022a7.938,7.938,0,1,0,7.945,7.938A7.95,7.95,0,0,0,308.975,7.022Z" fill="none"/>
    </clipPath>
    <linearGradient id="linear-gradient-banner" x1="0.499" y1="0.541" x2="0.508" y2="-0.174" gradientUnits="objectBoundingBox">
      <stop offset="0" stop-color="#00f5be"/>
      <stop offset="1" stop-color="#1fd2eb"/>
    </linearGradient>
    <linearGradient id="linear-gradient-banner-2" x1="0.371" x2="0.371" y2="1" gradientUnits="objectBoundingBox">
      <stop offset="0" stop-color="#383a3d"/>
      <stop offset="0.518" stop-color="#2d2f33"/>
      <stop offset="1" stop-color="#282a2e"/>
    </linearGradient>
    <filter id="Oval-banner" x="23" y="477.732" width="184" height="184" filterUnits="userSpaceOnUse">
      <feOffset dx="8" dy="8" input="SourceAlpha"/>
      <feGaussianBlur stdDeviation="12" result="blur"/>
      <feFlood flood-color="#090d14" flood-opacity="0.4"/>
      <feComposite operator="in" in2="blur"/>
      <feComposite in="SourceGraphic"/>
    </filter>
    <filter id="Oval-banner-2" x="23" y="477.732" width="184" height="184" filterUnits="userSpaceOnUse">
      <feOffset dy="-2" input="SourceAlpha"/>
      <feGaussianBlur stdDeviation="0.5" result="blur-2"/>
      <feFlood flood-color="#090d14" flood-opacity="0.8" result="color"/>
      <feComposite operator="out" in="SourceGraphic" in2="blur-2"/>
      <feComposite operator="in" in="color"/>
      <feComposite operator="in" in2="SourceGraphic"/>
    </filter>
    <filter id="Oval-banner-3" x="35" y="489.732" width="136" height="136" filterUnits="userSpaceOnUse">
      <feOffset dx="-4" dy="-4" input="SourceAlpha"/>
      <feGaussianBlur stdDeviation="4" result="blur-3"/>
      <feFlood flood-color="#e0e0ff" flood-opacity="0.039"/>
      <feComposite operator="in" in2="blur-3"/>
    </filter>
    <filter id="Oval-banner-4" x="49.5" y="505.232" width="115" height="115" filterUnits="userSpaceOnUse">
      <feOffset dy="1" input="SourceAlpha"/>
      <feGaussianBlur stdDeviation="0.5" result="blur-4"/>
      <feFlood flood-color="#090d14" flood-opacity="0.4"/>
      <feComposite operator="in" in2="blur-4"/>
    </filter>
    <linearGradient id="linear-gradient-banner-3" x1="0.371" x2="0.371" y2="1" gradientUnits="objectBoundingBox">
      <stop offset="0" stop-color="#090d14"/>
      <stop offset="0.53" stop-color="#282a2e"/>
      <stop offset="1" stop-color="#2d2f33"/>
    </linearGradient>
    <filter id="symbol-banner">
      <feOffset dx="8" dy="8" input="SourceAlpha"/>
      <feGaussianBlur stdDeviation="20" result="blur-5"/>
      <feFlood flood-color="#090d14" flood-opacity="0.4" result="color-2"/>
      <feComposite operator="out" in="SourceGraphic" in2="blur-5"/>
      <feComposite operator="in" in="color-2"/>
      <feComposite operator="in" in2="SourceGraphic"/>
    </filter>
    <filter id="symbol-banner-2">
      <feOffset dx="-4" dy="-4" input="SourceAlpha"/>
      <feGaussianBlur stdDeviation="4" result="blur-6"/>
      <feFlood flood-color="#e0e0ff" flood-opacity="0.039" result="color-3"/>
      <feComposite operator="out" in="SourceGraphic" in2="blur-6"/>
      <feComposite operator="in" in="color-3"/>
      <feComposite operator="in" in2="SourceGraphic"/>
    </filter>
    <filter id="symbol-banner-3">
      <feOffset dy="1" input="SourceAlpha"/>
      <feGaussianBlur stdDeviation="0.5" result="blur-7"/>
      <feFlood flood-color="#090d14" flood-opacity="0.4" result="color-4"/>
      <feComposite operator="out" in="SourceGraphic" in2="blur-7"/>
      <feComposite operator="in" in="color-4"/>
      <feComposite operator="in" in2="SourceGraphic"/>
    </filter>
    <filter id="Oval-banner-5" x="419" y="445.732" width="216" height="216" filterUnits="userSpaceOnUse">
      <feOffset dx="8" dy="8" input="SourceAlpha"/>
      <feGaussianBlur stdDeviation="12" result="blur-8"/>
      <feFlood flood-color="#090d14" flood-opacity="0.4"/>
      <feComposite operator="in" in2="blur-8"/>
      <feComposite in="SourceGraphic"/>
    </filter>
    <filter id="Oval-banner-6" x="419" y="445.732" width="216" height="216" filterUnits="userSpaceOnUse">
      <feOffset dy="-2" input="SourceAlpha"/>
      <feGaussianBlur stdDeviation="0.5" result="blur-9"/>
      <feFlood flood-color="#090d14" flood-opacity="0.8" result="color-5"/>
      <feComposite operator="out" in="SourceGraphic" in2="blur-9"/>
      <feComposite operator="in" in="color-5"/>
      <feComposite operator="in" in2="SourceGraphic"/>
    </filter>
    <filter id="Oval-banner-7" x="431" y="457.732" width="168" height="168" filterUnits="userSpaceOnUse">
      <feOffset dx="-4" dy="-4" input="SourceAlpha"/>
      <feGaussianBlur stdDeviation="4" result="blur-10"/>
      <feFlood flood-color="#e0e0ff" flood-opacity="0.039"/>
      <feComposite operator="in" in2="blur-10"/>
    </filter>
    <filter id="Oval-banner-8" x="445.5" y="473.232" width="147" height="147" filterUnits="userSpaceOnUse">
      <feOffset dy="1" input="SourceAlpha"/>
      <feGaussianBlur stdDeviation="0.5" result="blur-11"/>
      <feFlood flood-color="#090d14" flood-opacity="0.4"/>
      <feComposite operator="in" in2="blur-11"/>
    </filter>
    <filter id="shape-banner-2">
      <feOffset dx="8" dy="8" input="SourceAlpha"/>
      <feGaussianBlur stdDeviation="20" result="blur-12"/>
      <feFlood flood-color="#090d14" flood-opacity="0.4" result="color-6"/>
      <feComposite operator="out" in="SourceGraphic" in2="blur-12"/>
      <feComposite operator="in" in="color-6"/>
      <feComposite operator="in" in2="SourceGraphic"/>
    </filter>
    <filter id="shape-banner-2-2">
      <feOffset dx="-4" dy="-4" input="SourceAlpha"/>
      <feGaussianBlur stdDeviation="4" result="blur-13"/>
      <feFlood flood-color="#e0e0ff" flood-opacity="0.039" result="color-7"/>
      <feComposite operator="out" in="SourceGraphic" in2="blur-13"/>
      <feComposite operator="in" in="color-7"/>
      <feComposite operator="in" in2="SourceGraphic"/>
    </filter>
    <filter id="shape-banner-2-3">
      <feOffset dy="1" input="SourceAlpha"/>
      <feGaussianBlur stdDeviation="0.5" result="blur-14"/>
      <feFlood flood-color="#090d14" flood-opacity="0.4" result="color-8"/>
      <feComposite operator="out" in="SourceGraphic" in2="blur-14"/>
      <feComposite operator="in" in="color-8"/>
      <feComposite operator="in" in2="SourceGraphic"/>
    </filter>
    <filter id="Oval-banner-9" x="145" y="13.732" width="136" height="136" filterUnits="userSpaceOnUse">
      <feOffset dx="8" dy="8" input="SourceAlpha"/>
      <feGaussianBlur stdDeviation="12" result="blur-15"/>
      <feFlood flood-color="#090d14" flood-opacity="0.4"/>
      <feComposite operator="in" in2="blur-15"/>
      <feComposite in="SourceGraphic"/>
    </filter>
    <filter id="Oval-banner-10" x="145" y="13.732" width="136" height="136" filterUnits="userSpaceOnUse">
      <feOffset dy="-2" input="SourceAlpha"/>
      <feGaussianBlur stdDeviation="0.5" result="blur-16"/>
      <feFlood flood-color="#090d14" flood-opacity="0.8" result="color-9"/>
      <feComposite operator="out" in="SourceGraphic" in2="blur-16"/>
      <feComposite operator="in" in="color-9"/>
      <feComposite operator="in" in2="SourceGraphic"/>
    </filter>
    <filter id="Oval-banner-11" x="157" y="25.732" width="88" height="88" filterUnits="userSpaceOnUse">
      <feOffset dx="-4" dy="-4" input="SourceAlpha"/>
      <feGaussianBlur stdDeviation="4" result="blur-17"/>
      <feFlood flood-color="#e0e0ff" flood-opacity="0.039"/>
      <feComposite operator="in" in2="blur-17"/>
    </filter>
    <filter id="Oval-banner-12" x="171.5" y="41.232" width="67" height="67" filterUnits="userSpaceOnUse">
      <feOffset dy="1" input="SourceAlpha"/>
      <feGaussianBlur stdDeviation="0.5" result="blur-18"/>
      <feFlood flood-color="#090d14" flood-opacity="0.4"/>
      <feComposite operator="in" in2="blur-18"/>
    </filter>
    <filter id="shape-banner-1">
      <feOffset dx="8" dy="8" input="SourceAlpha"/>
      <feGaussianBlur stdDeviation="20" result="blur-19"/>
      <feFlood flood-color="#090d14" flood-opacity="0.4" result="color-10"/>
      <feComposite operator="out" in="SourceGraphic" in2="blur-19"/>
      <feComposite operator="in" in="color-10"/>
      <feComposite operator="in" in2="SourceGraphic"/>
    </filter>
    <filter id="shape-banner-1-2">
      <feOffset dx="-4" dy="-4" input="SourceAlpha"/>
      <feGaussianBlur stdDeviation="4" result="blur-20"/>
      <feFlood flood-color="#e0e0ff" flood-opacity="0.039" result="color-11"/>
      <feComposite operator="out" in="SourceGraphic" in2="blur-20"/>
      <feComposite operator="in" in="color-11"/>
      <feComposite operator="in" in2="SourceGraphic"/>
    </filter>
    <filter id="shape-banner-1-3">
      <feOffset dy="1" input="SourceAlpha"/>
      <feGaussianBlur stdDeviation="0.5" result="blur-21"/>
      <feFlood flood-color="#090d14" flood-opacity="0.4" result="color-12"/>
      <feComposite operator="out" in="SourceGraphic" in2="blur-21"/>
      <feComposite operator="in" in="color-12"/>
      <feComposite operator="in" in2="SourceGraphic"/>
    </filter>
    <filter id="Oval-banner-13" x="451" y="56.732" width="184" height="184" filterUnits="userSpaceOnUse">
      <feOffset dx="8" dy="8" input="SourceAlpha"/>
      <feGaussianBlur stdDeviation="12" result="blur-22"/>
      <feFlood flood-color="#090d14" flood-opacity="0.4"/>
      <feComposite operator="in" in2="blur-22"/>
      <feComposite in="SourceGraphic"/>
    </filter>
    <filter id="Oval-banner-14" x="451" y="56.732" width="184" height="184" filterUnits="userSpaceOnUse">
      <feOffset dy="-2" input="SourceAlpha"/>
      <feGaussianBlur stdDeviation="0.5" result="blur-23"/>
      <feFlood flood-color="#090d14" flood-opacity="0.8" result="color-13"/>
      <feComposite operator="out" in="SourceGraphic" in2="blur-23"/>
      <feComposite operator="in" in="color-13"/>
      <feComposite operator="in" in2="SourceGraphic"/>
    </filter>
    <filter id="Oval-banner-15" x="463" y="68.732" width="136" height="136" filterUnits="userSpaceOnUse">
      <feOffset dx="-4" dy="-4" input="SourceAlpha"/>
      <feGaussianBlur stdDeviation="4" result="blur-24"/>
      <feFlood flood-color="#e0e0ff" flood-opacity="0.039"/>
      <feComposite operator="in" in2="blur-24"/>
    </filter>
    <filter id="Oval-banner-16" x="477.5" y="84.232" width="115" height="115" filterUnits="userSpaceOnUse">
      <feOffset dy="1" input="SourceAlpha"/>
      <feGaussianBlur stdDeviation="0.5" result="blur-25"/>
      <feFlood flood-color="#090d14" flood-opacity="0.4"/>
      <feComposite operator="in" in2="blur-25"/>
    </filter>
    <filter id="Path">
      <feOffset dx="8" dy="8" input="SourceAlpha"/>
      <feGaussianBlur stdDeviation="20" result="blur-26"/>
      <feFlood flood-color="#090d14" flood-opacity="0.4" result="color-14"/>
      <feComposite operator="out" in="SourceGraphic" in2="blur-26"/>
      <feComposite operator="in" in="color-14"/>
      <feComposite operator="in" in2="SourceGraphic"/>
    </filter>
    <filter id="Path-2">
      <feOffset dx="-4" dy="-4" input="SourceAlpha"/>
      <feGaussianBlur stdDeviation="4" result="blur-27"/>
      <feFlood flood-color="#e0e0ff" flood-opacity="0.039" result="color-15"/>
      <feComposite operator="out" in="SourceGraphic" in2="blur-27"/>
      <feComposite operator="in" in="color-15"/>
      <feComposite operator="in" in2="SourceGraphic"/>
    </filter>
    <filter id="Path-3">
      <feOffset dy="1" input="SourceAlpha"/>
      <feGaussianBlur stdDeviation="0.5" result="blur-28"/>
      <feFlood flood-color="#090d14" flood-opacity="0.4" result="color-16"/>
      <feComposite operator="out" in="SourceGraphic" in2="blur-28"/>
      <feComposite operator="in" in="color-16"/>
      <feComposite operator="in" in2="SourceGraphic"/>
    </filter>
    <filter id="Oval-banner-17" x="0" y="243.732" width="160" height="160" filterUnits="userSpaceOnUse">
      <feOffset dx="8" dy="8" input="SourceAlpha"/>
      <feGaussianBlur stdDeviation="12" result="blur-29"/>
      <feFlood flood-color="#090d14" flood-opacity="0.4"/>
      <feComposite operator="in" in2="blur-29"/>
      <feComposite in="SourceGraphic"/>
    </filter>
    <filter id="Oval-banner-18" x="0" y="243.732" width="160" height="160" filterUnits="userSpaceOnUse">
      <feOffset dy="-2" input="SourceAlpha"/>
      <feGaussianBlur stdDeviation="0.5" result="blur-30"/>
      <feFlood flood-color="#090d14" flood-opacity="0.8" result="color-17"/>
      <feComposite operator="out" in="SourceGraphic" in2="blur-30"/>
      <feComposite operator="in" in="color-17"/>
      <feComposite operator="in" in2="SourceGraphic"/>
    </filter>
    <filter id="Oval-banner-19" x="12" y="255.732" width="112" height="112" filterUnits="userSpaceOnUse">
      <feOffset dx="-4" dy="-4" input="SourceAlpha"/>
      <feGaussianBlur stdDeviation="4" result="blur-31"/>
      <feFlood flood-color="#e0e0ff" flood-opacity="0.039"/>
      <feComposite operator="in" in2="blur-31"/>
    </filter>
    <filter id="Oval-banner-20" x="26.5" y="271.232" width="91" height="91" filterUnits="userSpaceOnUse">
      <feOffset dy="1" input="SourceAlpha"/>
      <feGaussianBlur stdDeviation="0.5" result="blur-32"/>
      <feFlood flood-color="#090d14" flood-opacity="0.4"/>
      <feComposite operator="in" in2="blur-32"/>
    </filter>
    <filter id="shape-banner-3">
      <feOffset dx="8" dy="8" input="SourceAlpha"/>
      <feGaussianBlur stdDeviation="20" result="blur-33"/>
      <feFlood flood-color="#090d14" flood-opacity="0.4" result="color-18"/>
      <feComposite operator="out" in="SourceGraphic" in2="blur-33"/>
      <feComposite operator="in" in="color-18"/>
      <feComposite operator="in" in2="SourceGraphic"/>
    </filter>
    <filter id="shape-banner-3-2">
      <feOffset dx="-4" dy="-4" input="SourceAlpha"/>
      <feGaussianBlur stdDeviation="4" result="blur-34"/>
      <feFlood flood-color="#e0e0ff" flood-opacity="0.039" result="color-19"/>
      <feComposite operator="out" in="SourceGraphic" in2="blur-34"/>
      <feComposite operator="in" in="color-19"/>
      <feComposite operator="in" in2="SourceGraphic"/>
    </filter>
    <filter id="shape-banner-3-3">
      <feOffset dy="1" input="SourceAlpha"/>
      <feGaussianBlur stdDeviation="0.5" result="blur-35"/>
      <feFlood flood-color="#090d14" flood-opacity="0.4" result="color-20"/>
      <feComposite operator="out" in="SourceGraphic" in2="blur-35"/>
      <feComposite operator="in" in="color-20"/>
      <feComposite operator="in" in2="SourceGraphic"/>
    </filter>
  </defs>
  <g id="Group_2" data-name="Group 2" transform="translate(17.377)">
    <g id="Oval-21" data-name="Oval" transform="matrix(0.848, 0.53, -0.53, 0.848, 349.254, 0)" fill="none" stroke="rgba(224,224,255,0.12)" stroke-miterlimit="10" stroke-width="2">
      <ellipse cx="137.5" cy="304.5" rx="137.5" ry="304.5" stroke="none"/>
      <ellipse cx="137.5" cy="304.5" rx="136.5" ry="303.5" fill="none"/>
    </g>
    <g id="Oval_Copy" data-name="Oval Copy" transform="matrix(0.799, -0.602, 0.602, 0.799, 11.435, 170.66)" fill="none" stroke="rgba(224,224,255,0.12)" stroke-miterlimit="10" stroke-width="2">
      <ellipse cx="137.5" cy="304.5" rx="137.5" ry="304.5" stroke="none"/>
      <ellipse cx="137.5" cy="304.5" rx="136.5" ry="303.5" fill="none"/>
    </g>
    <g id="Oval_Copy_2" data-name="Oval Copy 2" transform="translate(0 468.595) rotate(-90)" fill="none" stroke="rgba(224,224,255,0.12)" stroke-miterlimit="10" stroke-width="2">
      <ellipse cx="137.5" cy="304.5" rx="137.5" ry="304.5" stroke="none"/>
      <ellipse cx="137.5" cy="304.5" rx="136.5" ry="303.5" fill="none"/>
    </g>
  </g>
  <g id="Group_5" data-name="Group 5" transform="translate(72 84.732)">
    <path id="Clip_4-2" data-name="Clip 4" d="M252.823,488A241.337,241.337,0,0,1,81.742,417.224a244.486,244.486,0,0,1-20.819-23.66A240.99,240.99,0,0,1,43.47,367.576a14.682,14.682,0,0,1-3.109.327,14.944,14.944,0,0,1-9.9-26.169l-.24-.556-.021-.049c-.1-.237-.206-.475-.307-.71a239.856,239.856,0,0,1-19.013-93.924,15.117,15.117,0,0,1-7.791-5.3,14.911,14.911,0,0,1,.541-18.833,15.009,15.009,0,0,1,8.98-5.022,240.148,240.148,0,0,1,29.435-89.711,87.35,87.35,0,0,1,6.895-20.718A88.592,88.592,0,0,1,94.7,63.464,241.188,241.188,0,0,1,252.823,4.72a244.767,244.767,0,0,1,42.669,3.734,14.979,14.979,0,0,1,28.462,6.506c0,.06,0,.119,0,.178v.006c0,.061,0,.123,0,.184A241.487,241.487,0,0,1,410.858,63.37,88.6,88.6,0,0,1,456.943,107.1a87.336,87.336,0,0,1,6.874,20.9,240.963,240.963,0,0,1,23.329,57.9,14.956,14.956,0,0,1,5.562,28.793,245.449,245.449,0,0,1,2.064,31.671,239.847,239.847,0,0,1-19.013,94.059c-.021.049-.042.1-.063.142l-.007.017c-.023.052-.047.1-.07.159a14.96,14.96,0,0,1-13.039,26.154,240.818,240.818,0,0,1-17.607,26.36A244.279,244.279,0,0,1,383.292,449.9,14.971,14.971,0,0,1,357.657,464.2c-3.579,1.716-7.164,3.336-10.655,4.815A240.7,240.7,0,0,1,252.823,488Zm-197.9-131.54a15.09,15.09,0,0,1-5.009,8c42.1,71.866,119.849,116.511,202.911,116.511a232.5,232.5,0,0,0,101.618-23.1,14.973,14.973,0,0,1,25.1-14.042,237.274,237.274,0,0,0,76.724-80.29,14.955,14.955,0,0,1-4.386-6.885h-87l-23.064,28.481H395.3a14.978,14.978,0,1,1,6.239,14.936,213.3,213.3,0,0,1-119.463,58.064c-9.8,9.815-19.852,13.726-26.562,15.278a18.567,18.567,0,0,1-3.973.4,14.441,14.441,0,0,1-4.634-.63c-5.45-2.069-12.368-7.008-20.562-14.68A212.683,212.683,0,0,1,173.619,445a14.965,14.965,0,0,1-26.289-12.618,213.748,213.748,0,0,1-41.43-30.6,14.956,14.956,0,1,1,1.4-24.377,15.056,15.056,0,0,1,5.231,8.187h51.795l-23.581-29.126Zm198.595,57.528c-9.131,8.467-29.51,19.169-37.848,23.377,14.56,16.414,25.9,26.25,33.693,29.235a10.731,10.731,0,0,0,2.241.189,10.9,10.9,0,0,0,2.327-.22c6.108-1.407,15.258-5.048,24.17-14.407.369-.456,1.9-2.363,4.211-5.249,2.033-2.536,4.673-5.83,7.668-9.563-5.075-2.251-11.863-6.216-20.173-11.786-6.941-4.651-13.185-9.249-16.288-11.576ZM369.03,446.536a7.939,7.939,0,1,0,7.945,7.935A7.953,7.953,0,0,0,369.03,446.536ZM161.948,420.678a14.959,14.959,0,0,1,14.679,17.939A205.926,205.926,0,0,0,217.985,450.2c-6.1-6.376-12.786-14-19.869-22.654a188.628,188.628,0,0,1-65.5-34.944H112.532a14.921,14.921,0,0,1-1.678,4.115,208.683,208.683,0,0,0,39.611,29.328A14.946,14.946,0,0,1,161.948,420.678Zm135.3,18.833L288.84,450a206.166,206.166,0,0,0,107.982-55.21,15.979,15.979,0,0,1-1.1-2.63H373.556A188.656,188.656,0,0,1,306.63,427.82l-5.865,7.3a3.629,3.629,0,0,1,.11,1.058,3.508,3.508,0,0,1-3.505,3.337.661.661,0,0,1-.125-.008h0ZM161.948,427.7a7.935,7.935,0,1,0,7.948,7.935A7.951,7.951,0,0,0,161.948,427.7Zm18.2-35.1c5.946,8.191,17.85,24.187,30.763,39.293,11.9-5.9,33.615-17.764,39.556-24.839a3.524,3.524,0,0,1,4.844-.522c12.494,9.651,31.035,22.017,39.2,25.167,11.6-14.466,25.489-31.789,31.71-39.542H309.154a14.975,14.975,0,1,1-.7-7.025h24.333l23.056-28.481H326.057a15.11,15.11,0,0,1-5.329,7.661,14.953,14.953,0,1,1,5.695-14.685h35.106l37.49-46.307v-76.31l-25.23-22.852-41.454,29.9a21.513,21.513,0,0,1,7.62,4.94,32.369,32.369,0,0,1,6.011,8.3,46.216,46.216,0,0,1,3.943,10.969,58.2,58.2,0,0,1,1.416,12.934c0,21.44-11,38.234-25.034,38.234s-25.034-16.794-25.034-38.234a58.117,58.117,0,0,1,1.441-13.04,46.032,46.032,0,0,1,4.009-11.033,32.086,32.086,0,0,1,6.1-8.309,21.269,21.269,0,0,1,7.725-4.866l-.023-.032,47.95-34.591-20.711-18.76c-1.152-.947-2.258-1.949-3.288-2.978l-.327-.3.015-.018a46.448,46.448,0,1,1,79.622-32.527,45.888,45.888,0,0,1-4.1,19.054,46.364,46.364,0,0,1-11.1,15.243h0v0l-.03.024a46.817,46.817,0,0,1-8.529,6.151l-20.4,14.719,23.749,21.511A81,81,0,0,0,377.286,63.751c-43.783,0-80.162,35.558-81.094,79.266v3.523c.014.569,0,3.154,0,3.666v.012H209.38c0-.067.2-7.989.187-8.335a81.112,81.112,0,1,0-107.146,79.586l23.754-21.511-20.4-14.719a46.845,46.845,0,0,1-8.528-6.151l-.035-.025,0,0a46.38,46.38,0,0,1-11.1-15.243,45.875,45.875,0,0,1-4.1-19.054,46.492,46.492,0,0,1,92.984,0,46.231,46.231,0,0,1-13.361,32.527l.016.018-.328.3c-1.027,1.025-2.133,2.027-3.288,2.978L137.325,199.34l47.952,34.592-.023.032a21.273,21.273,0,0,1,7.727,4.866,32.078,32.078,0,0,1,6.1,8.309,46.028,46.028,0,0,1,4.009,11.033,58.121,58.121,0,0,1,1.441,13.04c0,21.44-11,38.234-25.035,38.234s-25.035-16.794-25.035-38.234a58.184,58.184,0,0,1,1.417-12.934,46.223,46.223,0,0,1,3.944-10.969,32.381,32.381,0,0,1,6.01-8.3,21.511,21.511,0,0,1,7.617-4.94L132,204.161l-25.233,22.852v76.31L144.1,349.435H179.36a15.058,15.058,0,0,1,5.231-8.184,14.812,14.812,0,0,1,9.329-3.266,14.959,14.959,0,1,1,0,29.918,14.819,14.819,0,0,1-9.329-3.262,15.044,15.044,0,0,1-5.231-8.181H149.786l23.581,29.126H196.69a15.056,15.056,0,0,1,5.231-8.187,14.813,14.813,0,0,1,9.328-3.263,14.959,14.959,0,1,1,0,29.919,14.809,14.809,0,0,1-9.328-3.266,15.063,15.063,0,0,1-5.231-8.184Zm154.846-.444h0l.14.117-20.4,25.446a182.309,182.309,0,0,0,47.335-25.563H334.991Zm-190.785.444a182.046,182.046,0,0,0,45.78,24.777c-8.977-11.473-15.93-21.149-18.5-24.777H144.205Zm150.11-10.463a7.939,7.939,0,1,0,7.953,7.934A7.949,7.949,0,0,0,294.315,382.139Zm-83.066-.988a7.939,7.939,0,1,0,7.949,7.943A7.955,7.955,0,0,0,211.249,381.151Zm-113.276,0a7.939,7.939,0,1,0,7.836,9.219,3.47,3.47,0,0,1,0-2.552A7.91,7.91,0,0,0,97.973,381.151Zm312.075-1.33a7.939,7.939,0,1,0,7.945,7.943A7.957,7.957,0,0,0,410.048,379.821ZM193.919,345.009a7.938,7.938,0,1,0,7.948,7.934A7.951,7.951,0,0,0,193.919,345.009Zm-153.558,0a7.938,7.938,0,1,0,7.949,7.934A7.951,7.951,0,0,0,40.361,345.009Zm425.878-.561a7.939,7.939,0,1,0,7.945,7.935A7.953,7.953,0,0,0,466.24,344.448Zm-154.538,0a7.939,7.939,0,1,0,7.742,9.708,3.662,3.662,0,0,1-.148-1.011,3.55,3.55,0,0,1,.319-1.462A8,8,0,0,0,311.7,344.448ZM465.407,146.6h0a87.272,87.272,0,0,1-8.358,35.6,213.126,213.126,0,0,1-16.785,167.423h11.255A14.987,14.987,0,0,1,469.2,337.718a232.389,232.389,0,0,0,18.546-91.358,235.906,235.906,0,0,0-2.01-30.6,14.952,14.952,0,0,1-5.484-28.241A233.18,233.18,0,0,0,465.406,146.6ZM432.45,306.607h0c-1.508,4.507-3.214,9.016-5.071,13.4a188.441,188.441,0,0,1-15.8,29.623h20.556A206.418,206.418,0,0,0,452.3,190.93a88.936,88.936,0,0,1-13.9,17.2,190.7,190.7,0,0,1,1.2,70.034,15.047,15.047,0,0,1,6.154,5.425,14.95,14.95,0,0,1-12.6,23.036c-.2,0-.426-.005-.7-.017Zm-.194-93.088a87.972,87.972,0,0,1-26.2,14.452v77.835l-35.48,43.824h32.434a181.561,181.561,0,0,0,22.651-45.023,15.108,15.108,0,0,1-5.419-5.373,14.961,14.961,0,0,1,12.453-22.518,182.23,182.23,0,0,0-.436-63.2Zm-358.843-.1a181.711,181.711,0,0,0,29.094,136.013H135.06L99.737,305.806V227.971A87.918,87.918,0,0,1,73.413,213.422ZM53.391,190.777a206.9,206.9,0,0,0-5.465,85.282,14.949,14.949,0,0,1,6.069,27.993,205.67,205.67,0,0,0,19.413,45.383H93.93A189.505,189.505,0,0,1,67.279,208.021a88.708,88.708,0,0,1-13.888-17.244ZM40.361,337.984a14.811,14.811,0,0,1,9.329,3.266,15.059,15.059,0,0,1,5.231,8.185H65.285a212.059,212.059,0,0,1-18.077-43.519l-.132,0h-.005c-.108,0-.22.007-.331.007A14.959,14.959,0,0,1,41,277.151a216.6,216.6,0,0,1-2.2-30.792,213.11,213.11,0,0,1,9.864-64.331,87.366,87.366,0,0,1-8.282-35.746,232.315,232.315,0,0,0-20.743,71.609,14.945,14.945,0,0,1,7.408,5.358,14.912,14.912,0,0,1-.534,18.4,15.04,15.04,0,0,1-8.6,5.13,232.264,232.264,0,0,0,18.847,91.645A15,15,0,0,1,40.361,337.984ZM326.29,240c-9.762,0-18.009,14.294-18.009,31.213s8.247,31.212,18.009,31.212,18-14.293,18-31.212S336.048,240,326.29,240ZM179.5,240c-9.759,0-18,14.294-18,31.213s8.245,31.212,18,31.212,18-14.293,18-31.212S189.259,240,179.5,240Zm253.651,43.727a7.938,7.938,0,1,0,7.952,7.938A7.951,7.951,0,0,0,433.151,283.725Zm-386.41-.7a7.938,7.938,0,1,0,7.949,7.938A7.952,7.952,0,0,0,46.741,283.029ZM14.98,224.17a7.939,7.939,0,1,0,7.949,7.939A7.953,7.953,0,0,0,14.98,224.17Zm472.042-31.255a7.938,7.938,0,1,0,7.945,7.939A7.955,7.955,0,0,0,487.022,192.915ZM377.286,105.35a39.368,39.368,0,0,0-28.033,67.109l3.17,2.873.1.081.005,0c.067.055.133.11.2.164a.029.029,0,0,0-.008.007.023.023,0,0,1-.007.006l21.576,19.541,29.81-21.5a39.369,39.369,0,0,0-26.811-68.282Zm-248.78,0a39.372,39.372,0,0,0-26.816,68.282l29.81,21.5L153.076,175.6l-.014-.012.177-.146,0,0,.011-.01.113-.093,3.172-2.873a39.373,39.373,0,0,0-28.033-67.109Zm80.723-35.891a181.8,181.8,0,0,0-24.219,7.795A88.6,88.6,0,0,1,207.7,106.133a87.342,87.342,0,0,1,8.93,36.79h72.531A87.609,87.609,0,0,1,307.927,90.5a89.044,89.044,0,0,1,12.818-13.217,181.133,181.133,0,0,0-67.922-13.106c-4.943,0-9.959.2-14.909.608a14.979,14.979,0,0,1-28.684,4.674Zm43.593-12.3a188.432,188.432,0,0,1,73.741,14.87c.12.05.239.1.358.154s.222.1.335.144a88,88,0,0,1,19.567-10.171,207.007,207.007,0,0,0-187.936-.031,88.1,88.1,0,0,1,19.6,10.166c.1-.042.195-.085.292-.128s.2-.091.308-.134a188.932,188.932,0,0,1,28.968-9.546,14.98,14.98,0,0,1,28.774-4.65C242.149,57.383,247.531,57.156,252.823,57.156Zm-29.834-1.543a7.938,7.938,0,1,0,7.949,7.939A7.953,7.953,0,0,0,222.988,55.613ZM252.823,32.6a212.963,212.963,0,0,1,103.542,26.64A88.535,88.535,0,0,1,392.849,58.1,233.979,233.979,0,0,0,322.1,22.163,14.981,14.981,0,0,1,294,15.355a236.422,236.422,0,0,0-41.181-3.613,232.936,232.936,0,0,0-140.079,46.4,88.514,88.514,0,0,1,36.589,1.076A212.867,212.867,0,0,1,252.823,32.6ZM308.975,7.022a7.938,7.938,0,1,0,7.945,7.938A7.95,7.95,0,0,0,308.975,7.022Z" fill="url(#linear-gradient-banner)"/>
    <g id="Group_5-2" data-name="Group 5" clip-path="url(#clip-path)">
      <path id="Fill_3" data-name="Fill 3" d="M252.823,488A241.337,241.337,0,0,1,81.742,417.224a244.486,244.486,0,0,1-20.819-23.66A240.99,240.99,0,0,1,43.47,367.576a14.682,14.682,0,0,1-3.109.327,14.944,14.944,0,0,1-9.9-26.169l-.24-.556-.021-.049c-.1-.237-.206-.475-.307-.71a239.856,239.856,0,0,1-19.013-93.924,15.117,15.117,0,0,1-7.791-5.3,14.911,14.911,0,0,1,.541-18.833,15.009,15.009,0,0,1,8.98-5.022,240.148,240.148,0,0,1,29.435-89.711,87.35,87.35,0,0,1,6.895-20.718A88.592,88.592,0,0,1,94.7,63.464,241.188,241.188,0,0,1,252.823,4.72a244.767,244.767,0,0,1,42.669,3.734,14.979,14.979,0,0,1,28.462,6.506c0,.06,0,.119,0,.178v.006c0,.061,0,.123,0,.184A241.487,241.487,0,0,1,410.858,63.37,88.6,88.6,0,0,1,456.943,107.1a87.336,87.336,0,0,1,6.874,20.9,240.963,240.963,0,0,1,23.329,57.9,14.956,14.956,0,0,1,5.562,28.793,245.449,245.449,0,0,1,2.064,31.671,239.847,239.847,0,0,1-19.013,94.059c-.021.049-.042.1-.063.142l-.007.017c-.023.052-.047.1-.07.159a14.96,14.96,0,0,1-13.039,26.154,240.818,240.818,0,0,1-17.607,26.36A244.279,244.279,0,0,1,383.292,449.9,14.971,14.971,0,0,1,357.657,464.2c-3.579,1.716-7.164,3.336-10.655,4.815A240.7,240.7,0,0,1,252.823,488Zm-197.9-131.54a15.09,15.09,0,0,1-5.009,8c42.1,71.866,119.849,116.511,202.911,116.511a232.5,232.5,0,0,0,101.618-23.1,14.973,14.973,0,0,1,25.1-14.042,237.274,237.274,0,0,0,76.724-80.29,14.955,14.955,0,0,1-4.386-6.885h-87l-23.064,28.481H395.3a14.978,14.978,0,1,1,6.239,14.936,213.3,213.3,0,0,1-119.463,58.064c-9.8,9.815-19.852,13.726-26.562,15.278a18.567,18.567,0,0,1-3.973.4,14.441,14.441,0,0,1-4.634-.63c-5.45-2.069-12.368-7.008-20.562-14.68A212.683,212.683,0,0,1,173.619,445a14.965,14.965,0,0,1-26.289-12.618,213.748,213.748,0,0,1-41.43-30.6,14.956,14.956,0,1,1,1.4-24.377,15.056,15.056,0,0,1,5.231,8.187h51.795l-23.581-29.126Zm198.595,57.528c-9.131,8.467-29.51,19.169-37.848,23.377,14.56,16.414,25.9,26.25,33.693,29.235a10.731,10.731,0,0,0,2.241.189,10.9,10.9,0,0,0,2.327-.22c6.108-1.407,15.258-5.048,24.17-14.407.369-.456,1.9-2.363,4.211-5.249,2.033-2.536,4.673-5.83,7.668-9.563-5.075-2.251-11.863-6.216-20.173-11.786-6.941-4.651-13.185-9.249-16.288-11.576ZM369.03,446.536a7.939,7.939,0,1,0,7.945,7.935A7.953,7.953,0,0,0,369.03,446.536ZM161.948,420.678a14.959,14.959,0,0,1,14.679,17.939A205.926,205.926,0,0,0,217.985,450.2c-6.1-6.376-12.786-14-19.869-22.654a188.628,188.628,0,0,1-65.5-34.944H112.532a14.921,14.921,0,0,1-1.678,4.115,208.683,208.683,0,0,0,39.611,29.328A14.946,14.946,0,0,1,161.948,420.678Zm135.3,18.833L288.84,450a206.166,206.166,0,0,0,107.982-55.21,15.979,15.979,0,0,1-1.1-2.63H373.556A188.656,188.656,0,0,1,306.63,427.82l-5.865,7.3a3.629,3.629,0,0,1,.11,1.058,3.508,3.508,0,0,1-3.505,3.337.661.661,0,0,1-.125-.008h0ZM161.948,427.7a7.935,7.935,0,1,0,7.948,7.935A7.951,7.951,0,0,0,161.948,427.7Zm18.2-35.1c5.946,8.191,17.85,24.187,30.763,39.293,11.9-5.9,33.615-17.764,39.556-24.839a3.524,3.524,0,0,1,4.844-.522c12.494,9.651,31.035,22.017,39.2,25.167,11.6-14.466,25.489-31.789,31.71-39.542H309.154a14.975,14.975,0,1,1-.7-7.025h24.333l23.056-28.481H326.057a15.11,15.11,0,0,1-5.329,7.661,14.953,14.953,0,1,1,5.695-14.685h35.106l37.49-46.307v-76.31l-25.23-22.852-41.454,29.9a21.513,21.513,0,0,1,7.62,4.94,32.369,32.369,0,0,1,6.011,8.3,46.216,46.216,0,0,1,3.943,10.969,58.2,58.2,0,0,1,1.416,12.934c0,21.44-11,38.234-25.034,38.234s-25.034-16.794-25.034-38.234a58.117,58.117,0,0,1,1.441-13.04,46.032,46.032,0,0,1,4.009-11.033,32.086,32.086,0,0,1,6.1-8.309,21.269,21.269,0,0,1,7.725-4.866l-.023-.032,47.95-34.591-20.711-18.76c-1.152-.947-2.258-1.949-3.288-2.978l-.327-.3.015-.018a46.448,46.448,0,1,1,79.622-32.527,45.888,45.888,0,0,1-4.1,19.054,46.364,46.364,0,0,1-11.1,15.243h0v0l-.03.024a46.817,46.817,0,0,1-8.529,6.151l-20.4,14.719,23.749,21.511A81,81,0,0,0,377.286,63.751c-43.783,0-80.162,35.558-81.094,79.266v3.523c.014.569,0,3.154,0,3.666v.012H209.38c0-.067.2-7.989.187-8.335a81.112,81.112,0,1,0-107.146,79.586l23.754-21.511-20.4-14.719a46.845,46.845,0,0,1-8.528-6.151l-.035-.025,0,0a46.38,46.38,0,0,1-11.1-15.243,45.875,45.875,0,0,1-4.1-19.054,46.492,46.492,0,0,1,92.984,0,46.231,46.231,0,0,1-13.361,32.527l.016.018-.328.3c-1.027,1.025-2.133,2.027-3.288,2.978L137.325,199.34l47.952,34.592-.023.032a21.273,21.273,0,0,1,7.727,4.866,32.078,32.078,0,0,1,6.1,8.309,46.028,46.028,0,0,1,4.009,11.033,58.121,58.121,0,0,1,1.441,13.04c0,21.44-11,38.234-25.035,38.234s-25.035-16.794-25.035-38.234a58.184,58.184,0,0,1,1.417-12.934,46.223,46.223,0,0,1,3.944-10.969,32.381,32.381,0,0,1,6.01-8.3,21.511,21.511,0,0,1,7.617-4.94L132,204.161l-25.233,22.852v76.31L144.1,349.435H179.36a15.058,15.058,0,0,1,5.231-8.184,14.812,14.812,0,0,1,9.329-3.266,14.959,14.959,0,1,1,0,29.918,14.819,14.819,0,0,1-9.329-3.262,15.044,15.044,0,0,1-5.231-8.181H149.786l23.581,29.126H196.69a15.056,15.056,0,0,1,5.231-8.187,14.813,14.813,0,0,1,9.328-3.263,14.959,14.959,0,1,1,0,29.919,14.809,14.809,0,0,1-9.328-3.266,15.063,15.063,0,0,1-5.231-8.184Zm154.846-.444h0l.14.117-20.4,25.446a182.309,182.309,0,0,0,47.335-25.563H334.991Zm-190.785.444a182.046,182.046,0,0,0,45.78,24.777c-8.977-11.473-15.93-21.149-18.5-24.777H144.205Zm150.11-10.463a7.939,7.939,0,1,0,7.953,7.934A7.949,7.949,0,0,0,294.315,382.139Zm-83.066-.988a7.939,7.939,0,1,0,7.949,7.943A7.955,7.955,0,0,0,211.249,381.151Zm-113.276,0a7.939,7.939,0,1,0,7.836,9.219,3.47,3.47,0,0,1,0-2.552A7.91,7.91,0,0,0,97.973,381.151Zm312.075-1.33a7.939,7.939,0,1,0,7.945,7.943A7.957,7.957,0,0,0,410.048,379.821ZM193.919,345.009a7.938,7.938,0,1,0,7.948,7.934A7.951,7.951,0,0,0,193.919,345.009Zm-153.558,0a7.938,7.938,0,1,0,7.949,7.934A7.951,7.951,0,0,0,40.361,345.009Zm425.878-.561a7.939,7.939,0,1,0,7.945,7.935A7.953,7.953,0,0,0,466.24,344.448Zm-154.538,0a7.939,7.939,0,1,0,7.742,9.708,3.662,3.662,0,0,1-.148-1.011,3.55,3.55,0,0,1,.319-1.462A8,8,0,0,0,311.7,344.448ZM465.407,146.6h0a87.272,87.272,0,0,1-8.358,35.6,213.126,213.126,0,0,1-16.785,167.423h11.255A14.987,14.987,0,0,1,469.2,337.718a232.389,232.389,0,0,0,18.546-91.358,235.906,235.906,0,0,0-2.01-30.6,14.952,14.952,0,0,1-5.484-28.241A233.18,233.18,0,0,0,465.406,146.6ZM432.45,306.607h0c-1.508,4.507-3.214,9.016-5.071,13.4a188.441,188.441,0,0,1-15.8,29.623h20.556A206.418,206.418,0,0,0,452.3,190.93a88.936,88.936,0,0,1-13.9,17.2,190.7,190.7,0,0,1,1.2,70.034,15.047,15.047,0,0,1,6.154,5.425,14.95,14.95,0,0,1-12.6,23.036c-.2,0-.426-.005-.7-.017Zm-.194-93.088a87.972,87.972,0,0,1-26.2,14.452v77.835l-35.48,43.824h32.434a181.561,181.561,0,0,0,22.651-45.023,15.108,15.108,0,0,1-5.419-5.373,14.961,14.961,0,0,1,12.453-22.518,182.23,182.23,0,0,0-.436-63.2Zm-358.843-.1a181.711,181.711,0,0,0,29.094,136.013H135.06L99.737,305.806V227.971A87.918,87.918,0,0,1,73.413,213.422ZM53.391,190.777a206.9,206.9,0,0,0-5.465,85.282,14.949,14.949,0,0,1,6.069,27.993,205.67,205.67,0,0,0,19.413,45.383H93.93A189.505,189.505,0,0,1,67.279,208.021a88.708,88.708,0,0,1-13.888-17.244ZM40.361,337.984a14.811,14.811,0,0,1,9.329,3.266,15.059,15.059,0,0,1,5.231,8.185H65.285a212.059,212.059,0,0,1-18.077-43.519l-.132,0h-.005c-.108,0-.22.007-.331.007A14.959,14.959,0,0,1,41,277.151a216.6,216.6,0,0,1-2.2-30.792,213.11,213.11,0,0,1,9.864-64.331,87.366,87.366,0,0,1-8.282-35.746,232.315,232.315,0,0,0-20.743,71.609,14.945,14.945,0,0,1,7.408,5.358,14.912,14.912,0,0,1-.534,18.4,15.04,15.04,0,0,1-8.6,5.13,232.264,232.264,0,0,0,18.847,91.645A15,15,0,0,1,40.361,337.984ZM326.29,240c-9.762,0-18.009,14.294-18.009,31.213s8.247,31.212,18.009,31.212,18-14.293,18-31.212S336.048,240,326.29,240ZM179.5,240c-9.759,0-18,14.294-18,31.213s8.245,31.212,18,31.212,18-14.293,18-31.212S189.259,240,179.5,240Zm253.651,43.727a7.938,7.938,0,1,0,7.952,7.938A7.951,7.951,0,0,0,433.151,283.725Zm-386.41-.7a7.938,7.938,0,1,0,7.949,7.938A7.952,7.952,0,0,0,46.741,283.029ZM14.98,224.17a7.939,7.939,0,1,0,7.949,7.939A7.953,7.953,0,0,0,14.98,224.17Zm472.042-31.255a7.938,7.938,0,1,0,7.945,7.939A7.955,7.955,0,0,0,487.022,192.915ZM377.286,105.35a39.368,39.368,0,0,0-28.033,67.109l3.17,2.873.1.081.005,0c.067.055.133.11.2.164a.029.029,0,0,0-.008.007.023.023,0,0,1-.007.006l21.576,19.541,29.81-21.5a39.369,39.369,0,0,0-26.811-68.282Zm-248.78,0a39.372,39.372,0,0,0-26.816,68.282l29.81,21.5L153.076,175.6l-.014-.012.177-.146,0,0,.011-.01.113-.093,3.172-2.873a39.373,39.373,0,0,0-28.033-67.109Zm80.723-35.891a181.8,181.8,0,0,0-24.219,7.795A88.6,88.6,0,0,1,207.7,106.133a87.342,87.342,0,0,1,8.93,36.79h72.531A87.609,87.609,0,0,1,307.927,90.5a89.044,89.044,0,0,1,12.818-13.217,181.133,181.133,0,0,0-67.922-13.106c-4.943,0-9.959.2-14.909.608a14.979,14.979,0,0,1-28.684,4.674Zm43.593-12.3a188.432,188.432,0,0,1,73.741,14.87c.12.05.239.1.358.154s.222.1.335.144a88,88,0,0,1,19.567-10.171,207.007,207.007,0,0,0-187.936-.031,88.1,88.1,0,0,1,19.6,10.166c.1-.042.195-.085.292-.128s.2-.091.308-.134a188.932,188.932,0,0,1,28.968-9.546,14.98,14.98,0,0,1,28.774-4.65C242.149,57.383,247.531,57.156,252.823,57.156Zm-29.834-1.543a7.938,7.938,0,1,0,7.949,7.939A7.953,7.953,0,0,0,222.988,55.613ZM252.823,32.6a212.963,212.963,0,0,1,103.542,26.64A88.535,88.535,0,0,1,392.849,58.1,233.979,233.979,0,0,0,322.1,22.163,14.981,14.981,0,0,1,294,15.355a236.422,236.422,0,0,0-41.181-3.613,232.936,232.936,0,0,0-140.079,46.4,88.514,88.514,0,0,1,36.589,1.076A212.867,212.867,0,0,1,252.823,32.6ZM308.975,7.022a7.938,7.938,0,1,0,7.945,7.938A7.95,7.95,0,0,0,308.975,7.022Z" fill="url(#linear-gradient-banner)"/>
    </g>
  </g>
  <g id="Group_3" data-name="Group 3" transform="translate(51 505.732)">
    <g id="Oval-22" data-name="Oval">
      <g data-type="innerShadowGroup">
        <g transform="matrix(1, 0, 0, 1, -51, -505.73)" filter="url(#Oval-banner)">
          <circle id="Oval-23" data-name="Oval" cx="56" cy="56" r="56" transform="translate(51 505.73)" fill="url(#linear-gradient-banner-2)"/>
        </g>
        <g transform="matrix(1, 0, 0, 1, -51, -505.73)" filter="url(#Oval-banner-2)">
          <circle id="Oval-24" data-name="Oval" cx="56" cy="56" r="56" transform="translate(51 505.73)" fill="#fff"/>
        </g>
      </g>
      <g transform="matrix(1, 0, 0, 1, -51, -505.73)" filter="url(#Oval-banner-3)">
        <circle id="Oval-25" data-name="Oval" cx="56" cy="56" r="56" transform="translate(51 505.73)" fill="#fff"/>
      </g>
      <g transform="matrix(1, 0, 0, 1, -51, -505.73)" filter="url(#Oval-banner-4)">
        <circle id="Oval-26" data-name="Oval" cx="56" cy="56" r="56" transform="translate(51 505.73)" fill="#fff"/>
      </g>
    </g>
    <g id="symbol-4" data-name="symbol">
      <g data-type="innerShadowGroup">
        <path id="symbol-5" data-name="symbol" d="M20.16,52.91h0l-4.584-1.142,1.873-7.5c-1.287-.32-2.483-.63-3.654-.948l-1.878,7.537L7.337,49.712l1.9-7.617q-.641-.164-1.29-.335c-.647-.169-1.313-.343-1.978-.51L0,39.765l2.276-5.248c.03.008,3.141.836,3.324.836,0,0,.008,0,.008,0a2.353,2.353,0,0,0,.542.069A1.679,1.679,0,0,0,7.709,34.26l2.572-10.316,2.572-10.316a2.44,2.44,0,0,0-2.136-2.666c-.011-.067-3.194-.8-3.33-.828l1.22-4.9,6.322,1.579-.005.024c.984.244,2.027.483,2.928.688L19.73,0l4.582,1.142-1.84,7.382c1.381.314,2.529.579,3.673.864l1.828-7.332L32.556,3.2l-1.877,7.531a18.188,18.188,0,0,1,7.077,3.934,7.291,7.291,0,0,1,2.113,6.608c-.547,3.7-2.516,5.962-5.854,6.731a8.995,8.995,0,0,1,4.4,4.227c.833,1.9.773,4.158-.184,6.891a9.737,9.737,0,0,1-3.958,5.343,11.493,11.493,0,0,1-6.218,1.5,32.6,32.6,0,0,1-5.994-.658l-1.9,7.6ZM17.8,27.711h0L15.285,37.8c.256.063.55.141.891.231a31.7,31.7,0,0,0,7.579,1.292c3.186,0,5.083-1.133,5.639-3.367a4.1,4.1,0,0,0-.452-3.258c-1.779-2.882-7.137-4.084-10.016-4.729-.436-.1-.812-.182-1.124-.26Zm3.434-13.773-2.282,9.153c.216.054.465.12.754.2a24.738,24.738,0,0,0,6.1,1.043c2.8,0,4.481-1.057,5-3.143a3.883,3.883,0,0,0-.41-3.09c-1.524-2.461-5.879-3.426-8.22-3.944-.368-.081-.685-.152-.946-.217Z" transform="translate(36 30)" fill="url(#linear-gradient-banner-3)"/>
        <g transform="matrix(1, 0, 0, 1, -51, -505.73)" filter="url(#symbol-banner)">
          <path id="symbol-6" data-name="symbol" d="M20.16,52.91h0l-4.584-1.142,1.873-7.5c-1.287-.32-2.483-.63-3.654-.948l-1.878,7.537L7.337,49.712l1.9-7.617q-.641-.164-1.29-.335c-.647-.169-1.313-.343-1.978-.51L0,39.765l2.276-5.248c.03.008,3.141.836,3.324.836,0,0,.008,0,.008,0a2.353,2.353,0,0,0,.542.069A1.679,1.679,0,0,0,7.709,34.26l2.572-10.316,2.572-10.316a2.44,2.44,0,0,0-2.136-2.666c-.011-.067-3.194-.8-3.33-.828l1.22-4.9,6.322,1.579-.005.024c.984.244,2.027.483,2.928.688L19.73,0l4.582,1.142-1.84,7.382c1.381.314,2.529.579,3.673.864l1.828-7.332L32.556,3.2l-1.877,7.531a18.188,18.188,0,0,1,7.077,3.934,7.291,7.291,0,0,1,2.113,6.608c-.547,3.7-2.516,5.962-5.854,6.731a8.995,8.995,0,0,1,4.4,4.227c.833,1.9.773,4.158-.184,6.891a9.737,9.737,0,0,1-3.958,5.343,11.493,11.493,0,0,1-6.218,1.5,32.6,32.6,0,0,1-5.994-.658l-1.9,7.6ZM17.8,27.711h0L15.285,37.8c.256.063.55.141.891.231a31.7,31.7,0,0,0,7.579,1.292c3.186,0,5.083-1.133,5.639-3.367a4.1,4.1,0,0,0-.452-3.258c-1.779-2.882-7.137-4.084-10.016-4.729-.436-.1-.812-.182-1.124-.26Zm3.434-13.773-2.282,9.153c.216.054.465.12.754.2a24.738,24.738,0,0,0,6.1,1.043c2.8,0,4.481-1.057,5-3.143a3.883,3.883,0,0,0-.41-3.09c-1.524-2.461-5.879-3.426-8.22-3.944-.368-.081-.685-.152-.946-.217Z" transform="translate(87 535.73)" fill="#fff"/>
        </g>
      </g>
      <g transform="matrix(1, 0, 0, 1, -51, -505.73)" filter="url(#symbol-banner-2)">
        <path id="symbol-7" data-name="symbol" d="M20.16,52.91h0l-4.584-1.142,1.873-7.5c-1.287-.32-2.483-.63-3.654-.948l-1.878,7.537L7.337,49.712l1.9-7.617q-.641-.164-1.29-.335c-.647-.169-1.313-.343-1.978-.51L0,39.765l2.276-5.248c.03.008,3.141.836,3.324.836,0,0,.008,0,.008,0a2.353,2.353,0,0,0,.542.069A1.679,1.679,0,0,0,7.709,34.26l2.572-10.316,2.572-10.316a2.44,2.44,0,0,0-2.136-2.666c-.011-.067-3.194-.8-3.33-.828l1.22-4.9,6.322,1.579-.005.024c.984.244,2.027.483,2.928.688L19.73,0l4.582,1.142-1.84,7.382c1.381.314,2.529.579,3.673.864l1.828-7.332L32.556,3.2l-1.877,7.531a18.188,18.188,0,0,1,7.077,3.934,7.291,7.291,0,0,1,2.113,6.608c-.547,3.7-2.516,5.962-5.854,6.731a8.995,8.995,0,0,1,4.4,4.227c.833,1.9.773,4.158-.184,6.891a9.737,9.737,0,0,1-3.958,5.343,11.493,11.493,0,0,1-6.218,1.5,32.6,32.6,0,0,1-5.994-.658l-1.9,7.6ZM17.8,27.711h0L15.285,37.8c.256.063.55.141.891.231a31.7,31.7,0,0,0,7.579,1.292c3.186,0,5.083-1.133,5.639-3.367a4.1,4.1,0,0,0-.452-3.258c-1.779-2.882-7.137-4.084-10.016-4.729-.436-.1-.812-.182-1.124-.26Zm3.434-13.773-2.282,9.153c.216.054.465.12.754.2a24.738,24.738,0,0,0,6.1,1.043c2.8,0,4.481-1.057,5-3.143a3.883,3.883,0,0,0-.41-3.09c-1.524-2.461-5.879-3.426-8.22-3.944-.368-.081-.685-.152-.946-.217Z" transform="translate(87 535.73)" fill="#fff"/>
      </g>
      <g transform="matrix(1, 0, 0, 1, -51, -505.73)" filter="url(#symbol-banner-3)">
        <path id="symbol-8" data-name="symbol" d="M20.16,52.91h0l-4.584-1.142,1.873-7.5c-1.287-.32-2.483-.63-3.654-.948l-1.878,7.537L7.337,49.712l1.9-7.617q-.641-.164-1.29-.335c-.647-.169-1.313-.343-1.978-.51L0,39.765l2.276-5.248c.03.008,3.141.836,3.324.836,0,0,.008,0,.008,0a2.353,2.353,0,0,0,.542.069A1.679,1.679,0,0,0,7.709,34.26l2.572-10.316,2.572-10.316a2.44,2.44,0,0,0-2.136-2.666c-.011-.067-3.194-.8-3.33-.828l1.22-4.9,6.322,1.579-.005.024c.984.244,2.027.483,2.928.688L19.73,0l4.582,1.142-1.84,7.382c1.381.314,2.529.579,3.673.864l1.828-7.332L32.556,3.2l-1.877,7.531a18.188,18.188,0,0,1,7.077,3.934,7.291,7.291,0,0,1,2.113,6.608c-.547,3.7-2.516,5.962-5.854,6.731a8.995,8.995,0,0,1,4.4,4.227c.833,1.9.773,4.158-.184,6.891a9.737,9.737,0,0,1-3.958,5.343,11.493,11.493,0,0,1-6.218,1.5,32.6,32.6,0,0,1-5.994-.658l-1.9,7.6ZM17.8,27.711h0L15.285,37.8c.256.063.55.141.891.231a31.7,31.7,0,0,0,7.579,1.292c3.186,0,5.083-1.133,5.639-3.367a4.1,4.1,0,0,0-.452-3.258c-1.779-2.882-7.137-4.084-10.016-4.729-.436-.1-.812-.182-1.124-.26Zm3.434-13.773-2.282,9.153c.216.054.465.12.754.2a24.738,24.738,0,0,0,6.1,1.043c2.8,0,4.481-1.057,5-3.143a3.883,3.883,0,0,0-.41-3.09c-1.524-2.461-5.879-3.426-8.22-3.944-.368-.081-.685-.152-.946-.217Z" transform="translate(87 535.73)" fill="#fff"/>
      </g>
    </g>
  </g>
  <g id="Group_3_Copy_5" data-name="Group 3 Copy 5" transform="translate(447 473.732)">
    <g id="Oval-27" data-name="Oval">
      <g data-type="innerShadowGroup">
        <g transform="matrix(1, 0, 0, 1, -447, -473.73)" filter="url(#Oval-banner-5)">
          <circle id="Oval-28" data-name="Oval" cx="72" cy="72" r="72" transform="translate(447 473.73)" fill="url(#linear-gradient-banner-2)"/>
        </g>
        <g transform="matrix(1, 0, 0, 1, -447, -473.73)" filter="url(#Oval-banner-6)">
          <circle id="Oval-29" data-name="Oval" cx="72" cy="72" r="72" transform="translate(447 473.73)" fill="#fff"/>
        </g>
      </g>
      <g transform="matrix(1, 0, 0, 1, -447, -473.73)" filter="url(#Oval-banner-7)">
        <circle id="Oval-30" data-name="Oval" cx="72" cy="72" r="72" transform="translate(447 473.73)" fill="#fff"/>
      </g>
      <g transform="matrix(1, 0, 0, 1, -447, -473.73)" filter="url(#Oval-banner-8)">
        <circle id="Oval-31" data-name="Oval" cx="72" cy="72" r="72" transform="translate(447 473.73)" fill="#fff"/>
      </g>
    </g>
    <g id="Shape_Copy_2-4" data-name="Shape Copy 2">
      <g data-type="innerShadowGroup">
        <path id="Shape_Copy_2-5" data-name="Shape Copy 2" d="M46.615,73.8a3.414,3.414,0,0,1-2.332-.941,3.061,3.061,0,0,1-.95-2.239A3.284,3.284,0,1,1,46.615,73.8Zm-15.757,0a3.183,3.183,0,1,1,3.282-3.181A3.237,3.237,0,0,1,30.858,73.8Zm33.485-2.545a3.819,3.819,0,1,1,3.939-3.817A3.884,3.884,0,0,1,64.343,71.255ZM38.737,68.711a3.4,3.4,0,0,1-2.334-.938,3.057,3.057,0,0,1-.949-2.244,3.284,3.284,0,1,1,3.282,3.182Zm13.131-2.545a3.183,3.183,0,1,1,3.283-3.181A3.236,3.236,0,0,1,51.868,66.165Zm-26.919,0a2.546,2.546,0,1,1,2.626-2.544A2.6,2.6,0,0,1,24.949,66.165ZM43.989,59.8a3.24,3.24,0,0,1-3.282-3.181,3.105,3.105,0,0,1,.951-2.24,3.357,3.357,0,0,1,4.662,0,3.11,3.11,0,0,1,.952,2.24,3.071,3.071,0,0,1-.952,2.24A3.4,3.4,0,0,1,43.989,59.8Zm-12.475,0a2.711,2.711,0,0,1-1.865-.751,2.483,2.483,0,0,1-.761-1.794A2.628,2.628,0,1,1,31.514,59.8Zm-9.848-1.273a2.013,2.013,0,0,1-1.4-.564,1.869,1.869,0,0,1,0-2.689,2.021,2.021,0,0,1,2.8,0,1.873,1.873,0,0,1,0,2.691A2.037,2.037,0,0,1,21.667,58.531Zm34.8-3.817h0a1.352,1.352,0,0,1-.933-.373,1.255,1.255,0,0,1,0-1.8,1.341,1.341,0,0,1,.933-.376,1.294,1.294,0,0,1,1.313,1.272,1.225,1.225,0,0,1-.381.9A1.358,1.358,0,0,1,56.464,54.714ZM60.4,53.441a1.273,1.273,0,1,1,1.313-1.272A1.3,1.3,0,0,1,60.4,53.441Zm-32.171,0A1.909,1.909,0,1,1,30.2,51.533,1.942,1.942,0,0,1,28.232,53.441Zm11.161-1.272a2.589,2.589,0,0,1-2.625-2.545,2.474,2.474,0,0,1,.759-1.792,2.7,2.7,0,0,1,1.867-.753,2.59,2.59,0,0,1,2.626,2.545,2.444,2.444,0,0,1-.759,1.792A2.7,2.7,0,0,1,39.393,52.169Zm-19.039,0a1.91,1.91,0,1,1,1.969-1.909A1.942,1.942,0,0,1,20.353,52.169ZM66.312,50.9a1.91,1.91,0,1,1,1.97-1.909A1.952,1.952,0,0,1,66.312,50.9Zm-14.444,0a1.91,1.91,0,1,1,1.97-1.909A1.954,1.954,0,0,1,51.868,50.9Zm5.252-2.545a2.027,2.027,0,0,1-1.4-.56,1.835,1.835,0,0,1-.569-1.349,1.942,1.942,0,0,1,1.969-1.908,2,2,0,0,1,1.4.561,1.864,1.864,0,0,1,.571,1.347A1.942,1.942,0,0,1,57.12,48.352Zm13.131-1.273a1.909,1.909,0,1,1,1.97-1.908A1.942,1.942,0,0,1,70.251,47.079Zm-23.636,0a1.909,1.909,0,1,1,1.97-1.908A1.951,1.951,0,0,1,46.615,47.079Zm-19.7,0a2.036,2.036,0,0,1-1.4-.562,1.879,1.879,0,0,1,0-2.69,2.017,2.017,0,0,1,1.4-.564,1.909,1.909,0,1,1,0,3.817Zm-6.566,0a1.909,1.909,0,1,1,1.969-1.908,1.853,1.853,0,0,1-.569,1.342A2.026,2.026,0,0,1,20.353,47.079ZM34.8,45.807a2.043,2.043,0,0,1-1.4-.564,1.859,1.859,0,0,1-.569-1.345A1.97,1.97,0,1,1,34.8,45.807ZM3.939,44.535a3.819,3.819,0,1,1,0-7.635,3.819,3.819,0,1,1,0,7.635Zm57.12-1.273a1.909,1.909,0,1,1,1.97-1.909A1.942,1.942,0,0,1,61.06,43.262ZM73.535,41.99a2.723,2.723,0,0,1-1.868-.751,2.476,2.476,0,0,1-.759-1.793,2.628,2.628,0,1,1,2.626,2.544Zm-22.98,0a2.019,2.019,0,0,1-1.4-.564,1.869,1.869,0,0,1,0-2.688,2.015,2.015,0,0,1,2.8,0,1.842,1.842,0,0,1,.571,1.344A1.944,1.944,0,0,1,50.555,41.99Zm-23.636,0a1.909,1.909,0,1,1,1.969-1.909A1.949,1.949,0,0,1,26.919,41.99Zm-5.909,0a1.273,1.273,0,1,1,1.313-1.273A1.295,1.295,0,0,1,21.01,41.99Zm12.475-2.544a2.008,2.008,0,0,1-1.4-.562,1.843,1.843,0,0,1-.572-1.346,1.942,1.942,0,0,1,1.97-1.909,2.028,2.028,0,0,1,1.4.562,1.86,1.86,0,0,1,.57,1.347A1.942,1.942,0,0,1,33.485,39.445ZM65.656,36.9a2.684,2.684,0,0,1-1.869-.751,2.468,2.468,0,0,1-.757-1.795,2.628,2.628,0,0,1,5.252,0,2.446,2.446,0,0,1-.76,1.792A2.724,2.724,0,0,1,65.656,36.9Zm-10.5-1.273a2.546,2.546,0,1,1,0-5.09,2.715,2.715,0,0,1,1.865.751,2.454,2.454,0,0,1,.761,1.795A2.589,2.589,0,0,1,55.151,35.627Zm-40.05,0a3.584,3.584,0,0,1-3.283-3.817,4.066,4.066,0,0,1,.95-2.688,3.136,3.136,0,0,1,2.333-1.13,3.585,3.585,0,0,1,3.282,3.818A3.584,3.584,0,0,1,15.1,35.627Zm61.717-2.544A3.237,3.237,0,0,1,73.535,29.9a3.067,3.067,0,0,1,.952-2.24,3.358,3.358,0,0,1,2.331-.941,3.183,3.183,0,1,1,0,6.362ZM24.293,31.811a3.183,3.183,0,1,1,3.282-3.181A3.237,3.237,0,0,1,24.293,31.811Zm44.645-1.273a3.183,3.183,0,1,1,3.283-3.181A3.236,3.236,0,0,1,68.938,30.538Zm-22.323,0a1.909,1.909,0,1,1,1.97-1.909A1.958,1.958,0,0,1,46.615,30.538Zm11.818-1.273a3.183,3.183,0,1,1,3.283-3.181,3.068,3.068,0,0,1-.951,2.241A3.358,3.358,0,0,1,58.433,29.265Zm-17.061,0a1.909,1.909,0,1,1,1.961-1.908A1.947,1.947,0,0,1,41.372,29.265Zm-8.545,0a2.722,2.722,0,0,1-1.868-.751,2.5,2.5,0,0,1,0-3.585,2.691,2.691,0,0,1,1.866-.754,2.592,2.592,0,0,1,2.626,2.545,2.448,2.448,0,0,1-.76,1.791A2.7,2.7,0,0,1,32.827,29.265ZM9.849,26.721a3.361,3.361,0,0,1-2.335-.94,3.119,3.119,0,0,1,0-4.482,3.406,3.406,0,0,1,2.333-.941,3.183,3.183,0,1,1,0,6.362Zm38.08-2.545a1.909,1.909,0,1,1,1.97-1.909A1.943,1.943,0,0,1,47.929,24.176ZM20.353,22.9a3.183,3.183,0,1,1,3.282-3.181A3.237,3.237,0,0,1,20.353,22.9Zm22.323-1.273a2.017,2.017,0,0,1-1.4-.564,1.826,1.826,0,0,1-.568-1.344,1.97,1.97,0,1,1,1.969,1.908Zm27.575-1.272a3.183,3.183,0,1,1,3.283-3.182A3.237,3.237,0,0,1,70.251,20.359Zm-34.141,0a2.014,2.014,0,0,1-1.4-.564,1.865,1.865,0,0,1-.571-1.345,1.971,1.971,0,1,1,1.97,1.909Zm-7.222,0a2.546,2.546,0,1,1,2.626-2.545A2.6,2.6,0,0,1,28.888,20.359Zm30.858-1.273a3.584,3.584,0,0,1-3.282-3.817,3.32,3.32,0,1,1,6.565,0,4.065,4.065,0,0,1-.951,2.687A3.1,3.1,0,0,1,59.746,19.086Zm-9.848,0a1.356,1.356,0,0,1-.936-.374,1.254,1.254,0,0,1,0-1.8,1.349,1.349,0,0,1,.933-.376,1.363,1.363,0,0,1,.932.376,1.228,1.228,0,0,1,.381.9,1.241,1.241,0,0,1-.381.9A1.363,1.363,0,0,1,49.9,19.086Zm-3.283-2.545a1.909,1.909,0,1,1,1.97-1.908A1.942,1.942,0,0,1,46.615,16.541Zm-5.242-3.817a1.909,1.909,0,1,1,1.959-1.909A1.948,1.948,0,0,1,41.374,12.724Zm-21.677,0A2.948,2.948,0,0,1,17.07,9.543,2.947,2.947,0,0,1,19.7,6.362a2.947,2.947,0,0,1,2.626,3.181A2.948,2.948,0,0,1,19.7,12.724Zm15.1-1.273a1.951,1.951,0,0,1-1.97-1.909A1.868,1.868,0,0,1,33.4,8.2a2.014,2.014,0,0,1,1.4-.563,1.909,1.909,0,1,1,0,3.817Zm-7.222,0A2.546,2.546,0,1,1,30.2,8.907,2.589,2.589,0,0,1,27.575,11.452Zm30.2-3.817a3.88,3.88,0,0,1-3.939-3.808,3.941,3.941,0,0,1,7.879-.011A3.885,3.885,0,0,1,57.777,7.635Z" transform="translate(34.2 36)" fill="url(#linear-gradient-3)"/>
        <g transform="matrix(1, 0, 0, 1, -447, -473.73)" filter="url(#shape-banner-2)">
          <path id="Shape_Copy_2-6" data-name="Shape Copy 2" d="M46.615,73.8a3.414,3.414,0,0,1-2.332-.941,3.061,3.061,0,0,1-.95-2.239A3.284,3.284,0,1,1,46.615,73.8Zm-15.757,0a3.183,3.183,0,1,1,3.282-3.181A3.237,3.237,0,0,1,30.858,73.8Zm33.485-2.545a3.819,3.819,0,1,1,3.939-3.817A3.884,3.884,0,0,1,64.343,71.255ZM38.737,68.711a3.4,3.4,0,0,1-2.334-.938,3.057,3.057,0,0,1-.949-2.244,3.284,3.284,0,1,1,3.282,3.182Zm13.131-2.545a3.183,3.183,0,1,1,3.283-3.181A3.236,3.236,0,0,1,51.868,66.165Zm-26.919,0a2.546,2.546,0,1,1,2.626-2.544A2.6,2.6,0,0,1,24.949,66.165ZM43.989,59.8a3.24,3.24,0,0,1-3.282-3.181,3.105,3.105,0,0,1,.951-2.24,3.357,3.357,0,0,1,4.662,0,3.11,3.11,0,0,1,.952,2.24,3.071,3.071,0,0,1-.952,2.24A3.4,3.4,0,0,1,43.989,59.8Zm-12.475,0a2.711,2.711,0,0,1-1.865-.751,2.483,2.483,0,0,1-.761-1.794A2.628,2.628,0,1,1,31.514,59.8Zm-9.848-1.273a2.013,2.013,0,0,1-1.4-.564,1.869,1.869,0,0,1,0-2.689,2.021,2.021,0,0,1,2.8,0,1.873,1.873,0,0,1,0,2.691A2.037,2.037,0,0,1,21.667,58.531Zm34.8-3.817h0a1.352,1.352,0,0,1-.933-.373,1.255,1.255,0,0,1,0-1.8,1.341,1.341,0,0,1,.933-.376,1.294,1.294,0,0,1,1.313,1.272,1.225,1.225,0,0,1-.381.9A1.358,1.358,0,0,1,56.464,54.714ZM60.4,53.441a1.273,1.273,0,1,1,1.313-1.272A1.3,1.3,0,0,1,60.4,53.441Zm-32.171,0A1.909,1.909,0,1,1,30.2,51.533,1.942,1.942,0,0,1,28.232,53.441Zm11.161-1.272a2.589,2.589,0,0,1-2.625-2.545,2.474,2.474,0,0,1,.759-1.792,2.7,2.7,0,0,1,1.867-.753,2.59,2.59,0,0,1,2.626,2.545,2.444,2.444,0,0,1-.759,1.792A2.7,2.7,0,0,1,39.393,52.169Zm-19.039,0a1.91,1.91,0,1,1,1.969-1.909A1.942,1.942,0,0,1,20.353,52.169ZM66.312,50.9a1.91,1.91,0,1,1,1.97-1.909A1.952,1.952,0,0,1,66.312,50.9Zm-14.444,0a1.91,1.91,0,1,1,1.97-1.909A1.954,1.954,0,0,1,51.868,50.9Zm5.252-2.545a2.027,2.027,0,0,1-1.4-.56,1.835,1.835,0,0,1-.569-1.349,1.942,1.942,0,0,1,1.969-1.908,2,2,0,0,1,1.4.561,1.864,1.864,0,0,1,.571,1.347A1.942,1.942,0,0,1,57.12,48.352Zm13.131-1.273a1.909,1.909,0,1,1,1.97-1.908A1.942,1.942,0,0,1,70.251,47.079Zm-23.636,0a1.909,1.909,0,1,1,1.97-1.908A1.951,1.951,0,0,1,46.615,47.079Zm-19.7,0a2.036,2.036,0,0,1-1.4-.562,1.879,1.879,0,0,1,0-2.69,2.017,2.017,0,0,1,1.4-.564,1.909,1.909,0,1,1,0,3.817Zm-6.566,0a1.909,1.909,0,1,1,1.969-1.908,1.853,1.853,0,0,1-.569,1.342A2.026,2.026,0,0,1,20.353,47.079ZM34.8,45.807a2.043,2.043,0,0,1-1.4-.564,1.859,1.859,0,0,1-.569-1.345A1.97,1.97,0,1,1,34.8,45.807ZM3.939,44.535a3.819,3.819,0,1,1,0-7.635,3.819,3.819,0,1,1,0,7.635Zm57.12-1.273a1.909,1.909,0,1,1,1.97-1.909A1.942,1.942,0,0,1,61.06,43.262ZM73.535,41.99a2.723,2.723,0,0,1-1.868-.751,2.476,2.476,0,0,1-.759-1.793,2.628,2.628,0,1,1,2.626,2.544Zm-22.98,0a2.019,2.019,0,0,1-1.4-.564,1.869,1.869,0,0,1,0-2.688,2.015,2.015,0,0,1,2.8,0,1.842,1.842,0,0,1,.571,1.344A1.944,1.944,0,0,1,50.555,41.99Zm-23.636,0a1.909,1.909,0,1,1,1.969-1.909A1.949,1.949,0,0,1,26.919,41.99Zm-5.909,0a1.273,1.273,0,1,1,1.313-1.273A1.295,1.295,0,0,1,21.01,41.99Zm12.475-2.544a2.008,2.008,0,0,1-1.4-.562,1.843,1.843,0,0,1-.572-1.346,1.942,1.942,0,0,1,1.97-1.909,2.028,2.028,0,0,1,1.4.562,1.86,1.86,0,0,1,.57,1.347A1.942,1.942,0,0,1,33.485,39.445ZM65.656,36.9a2.684,2.684,0,0,1-1.869-.751,2.468,2.468,0,0,1-.757-1.795,2.628,2.628,0,0,1,5.252,0,2.446,2.446,0,0,1-.76,1.792A2.724,2.724,0,0,1,65.656,36.9Zm-10.5-1.273a2.546,2.546,0,1,1,0-5.09,2.715,2.715,0,0,1,1.865.751,2.454,2.454,0,0,1,.761,1.795A2.589,2.589,0,0,1,55.151,35.627Zm-40.05,0a3.584,3.584,0,0,1-3.283-3.817,4.066,4.066,0,0,1,.95-2.688,3.136,3.136,0,0,1,2.333-1.13,3.585,3.585,0,0,1,3.282,3.818A3.584,3.584,0,0,1,15.1,35.627Zm61.717-2.544A3.237,3.237,0,0,1,73.535,29.9a3.067,3.067,0,0,1,.952-2.24,3.358,3.358,0,0,1,2.331-.941,3.183,3.183,0,1,1,0,6.362ZM24.293,31.811a3.183,3.183,0,1,1,3.282-3.181A3.237,3.237,0,0,1,24.293,31.811Zm44.645-1.273a3.183,3.183,0,1,1,3.283-3.181A3.236,3.236,0,0,1,68.938,30.538Zm-22.323,0a1.909,1.909,0,1,1,1.97-1.909A1.958,1.958,0,0,1,46.615,30.538Zm11.818-1.273a3.183,3.183,0,1,1,3.283-3.181,3.068,3.068,0,0,1-.951,2.241A3.358,3.358,0,0,1,58.433,29.265Zm-17.061,0a1.909,1.909,0,1,1,1.961-1.908A1.947,1.947,0,0,1,41.372,29.265Zm-8.545,0a2.722,2.722,0,0,1-1.868-.751,2.5,2.5,0,0,1,0-3.585,2.691,2.691,0,0,1,1.866-.754,2.592,2.592,0,0,1,2.626,2.545,2.448,2.448,0,0,1-.76,1.791A2.7,2.7,0,0,1,32.827,29.265ZM9.849,26.721a3.361,3.361,0,0,1-2.335-.94,3.119,3.119,0,0,1,0-4.482,3.406,3.406,0,0,1,2.333-.941,3.183,3.183,0,1,1,0,6.362Zm38.08-2.545a1.909,1.909,0,1,1,1.97-1.909A1.943,1.943,0,0,1,47.929,24.176ZM20.353,22.9a3.183,3.183,0,1,1,3.282-3.181A3.237,3.237,0,0,1,20.353,22.9Zm22.323-1.273a2.017,2.017,0,0,1-1.4-.564,1.826,1.826,0,0,1-.568-1.344,1.97,1.97,0,1,1,1.969,1.908Zm27.575-1.272a3.183,3.183,0,1,1,3.283-3.182A3.237,3.237,0,0,1,70.251,20.359Zm-34.141,0a2.014,2.014,0,0,1-1.4-.564,1.865,1.865,0,0,1-.571-1.345,1.971,1.971,0,1,1,1.97,1.909Zm-7.222,0a2.546,2.546,0,1,1,2.626-2.545A2.6,2.6,0,0,1,28.888,20.359Zm30.858-1.273a3.584,3.584,0,0,1-3.282-3.817,3.32,3.32,0,1,1,6.565,0,4.065,4.065,0,0,1-.951,2.687A3.1,3.1,0,0,1,59.746,19.086Zm-9.848,0a1.356,1.356,0,0,1-.936-.374,1.254,1.254,0,0,1,0-1.8,1.349,1.349,0,0,1,.933-.376,1.363,1.363,0,0,1,.932.376,1.228,1.228,0,0,1,.381.9,1.241,1.241,0,0,1-.381.9A1.363,1.363,0,0,1,49.9,19.086Zm-3.283-2.545a1.909,1.909,0,1,1,1.97-1.908A1.942,1.942,0,0,1,46.615,16.541Zm-5.242-3.817a1.909,1.909,0,1,1,1.959-1.909A1.948,1.948,0,0,1,41.374,12.724Zm-21.677,0A2.948,2.948,0,0,1,17.07,9.543,2.947,2.947,0,0,1,19.7,6.362a2.947,2.947,0,0,1,2.626,3.181A2.948,2.948,0,0,1,19.7,12.724Zm15.1-1.273a1.951,1.951,0,0,1-1.97-1.909A1.868,1.868,0,0,1,33.4,8.2a2.014,2.014,0,0,1,1.4-.563,1.909,1.909,0,1,1,0,3.817Zm-7.222,0A2.546,2.546,0,1,1,30.2,8.907,2.589,2.589,0,0,1,27.575,11.452Zm30.2-3.817a3.88,3.88,0,0,1-3.939-3.808,3.941,3.941,0,0,1,7.879-.011A3.885,3.885,0,0,1,57.777,7.635Z" transform="translate(481.2 509.73)" fill="#fff"/>
        </g>
      </g>
      <g transform="matrix(1, 0, 0, 1, -447, -473.73)" filter="url(#shape-banner-2-2)">
        <path id="Shape_Copy_2-7" data-name="Shape Copy 2" d="M46.615,73.8a3.414,3.414,0,0,1-2.332-.941,3.061,3.061,0,0,1-.95-2.239A3.284,3.284,0,1,1,46.615,73.8Zm-15.757,0a3.183,3.183,0,1,1,3.282-3.181A3.237,3.237,0,0,1,30.858,73.8Zm33.485-2.545a3.819,3.819,0,1,1,3.939-3.817A3.884,3.884,0,0,1,64.343,71.255ZM38.737,68.711a3.4,3.4,0,0,1-2.334-.938,3.057,3.057,0,0,1-.949-2.244,3.284,3.284,0,1,1,3.282,3.182Zm13.131-2.545a3.183,3.183,0,1,1,3.283-3.181A3.236,3.236,0,0,1,51.868,66.165Zm-26.919,0a2.546,2.546,0,1,1,2.626-2.544A2.6,2.6,0,0,1,24.949,66.165ZM43.989,59.8a3.24,3.24,0,0,1-3.282-3.181,3.105,3.105,0,0,1,.951-2.24,3.357,3.357,0,0,1,4.662,0,3.11,3.11,0,0,1,.952,2.24,3.071,3.071,0,0,1-.952,2.24A3.4,3.4,0,0,1,43.989,59.8Zm-12.475,0a2.711,2.711,0,0,1-1.865-.751,2.483,2.483,0,0,1-.761-1.794A2.628,2.628,0,1,1,31.514,59.8Zm-9.848-1.273a2.013,2.013,0,0,1-1.4-.564,1.869,1.869,0,0,1,0-2.689,2.021,2.021,0,0,1,2.8,0,1.873,1.873,0,0,1,0,2.691A2.037,2.037,0,0,1,21.667,58.531Zm34.8-3.817h0a1.352,1.352,0,0,1-.933-.373,1.255,1.255,0,0,1,0-1.8,1.341,1.341,0,0,1,.933-.376,1.294,1.294,0,0,1,1.313,1.272,1.225,1.225,0,0,1-.381.9A1.358,1.358,0,0,1,56.464,54.714ZM60.4,53.441a1.273,1.273,0,1,1,1.313-1.272A1.3,1.3,0,0,1,60.4,53.441Zm-32.171,0A1.909,1.909,0,1,1,30.2,51.533,1.942,1.942,0,0,1,28.232,53.441Zm11.161-1.272a2.589,2.589,0,0,1-2.625-2.545,2.474,2.474,0,0,1,.759-1.792,2.7,2.7,0,0,1,1.867-.753,2.59,2.59,0,0,1,2.626,2.545,2.444,2.444,0,0,1-.759,1.792A2.7,2.7,0,0,1,39.393,52.169Zm-19.039,0a1.91,1.91,0,1,1,1.969-1.909A1.942,1.942,0,0,1,20.353,52.169ZM66.312,50.9a1.91,1.91,0,1,1,1.97-1.909A1.952,1.952,0,0,1,66.312,50.9Zm-14.444,0a1.91,1.91,0,1,1,1.97-1.909A1.954,1.954,0,0,1,51.868,50.9Zm5.252-2.545a2.027,2.027,0,0,1-1.4-.56,1.835,1.835,0,0,1-.569-1.349,1.942,1.942,0,0,1,1.969-1.908,2,2,0,0,1,1.4.561,1.864,1.864,0,0,1,.571,1.347A1.942,1.942,0,0,1,57.12,48.352Zm13.131-1.273a1.909,1.909,0,1,1,1.97-1.908A1.942,1.942,0,0,1,70.251,47.079Zm-23.636,0a1.909,1.909,0,1,1,1.97-1.908A1.951,1.951,0,0,1,46.615,47.079Zm-19.7,0a2.036,2.036,0,0,1-1.4-.562,1.879,1.879,0,0,1,0-2.69,2.017,2.017,0,0,1,1.4-.564,1.909,1.909,0,1,1,0,3.817Zm-6.566,0a1.909,1.909,0,1,1,1.969-1.908,1.853,1.853,0,0,1-.569,1.342A2.026,2.026,0,0,1,20.353,47.079ZM34.8,45.807a2.043,2.043,0,0,1-1.4-.564,1.859,1.859,0,0,1-.569-1.345A1.97,1.97,0,1,1,34.8,45.807ZM3.939,44.535a3.819,3.819,0,1,1,0-7.635,3.819,3.819,0,1,1,0,7.635Zm57.12-1.273a1.909,1.909,0,1,1,1.97-1.909A1.942,1.942,0,0,1,61.06,43.262ZM73.535,41.99a2.723,2.723,0,0,1-1.868-.751,2.476,2.476,0,0,1-.759-1.793,2.628,2.628,0,1,1,2.626,2.544Zm-22.98,0a2.019,2.019,0,0,1-1.4-.564,1.869,1.869,0,0,1,0-2.688,2.015,2.015,0,0,1,2.8,0,1.842,1.842,0,0,1,.571,1.344A1.944,1.944,0,0,1,50.555,41.99Zm-23.636,0a1.909,1.909,0,1,1,1.969-1.909A1.949,1.949,0,0,1,26.919,41.99Zm-5.909,0a1.273,1.273,0,1,1,1.313-1.273A1.295,1.295,0,0,1,21.01,41.99Zm12.475-2.544a2.008,2.008,0,0,1-1.4-.562,1.843,1.843,0,0,1-.572-1.346,1.942,1.942,0,0,1,1.97-1.909,2.028,2.028,0,0,1,1.4.562,1.86,1.86,0,0,1,.57,1.347A1.942,1.942,0,0,1,33.485,39.445ZM65.656,36.9a2.684,2.684,0,0,1-1.869-.751,2.468,2.468,0,0,1-.757-1.795,2.628,2.628,0,0,1,5.252,0,2.446,2.446,0,0,1-.76,1.792A2.724,2.724,0,0,1,65.656,36.9Zm-10.5-1.273a2.546,2.546,0,1,1,0-5.09,2.715,2.715,0,0,1,1.865.751,2.454,2.454,0,0,1,.761,1.795A2.589,2.589,0,0,1,55.151,35.627Zm-40.05,0a3.584,3.584,0,0,1-3.283-3.817,4.066,4.066,0,0,1,.95-2.688,3.136,3.136,0,0,1,2.333-1.13,3.585,3.585,0,0,1,3.282,3.818A3.584,3.584,0,0,1,15.1,35.627Zm61.717-2.544A3.237,3.237,0,0,1,73.535,29.9a3.067,3.067,0,0,1,.952-2.24,3.358,3.358,0,0,1,2.331-.941,3.183,3.183,0,1,1,0,6.362ZM24.293,31.811a3.183,3.183,0,1,1,3.282-3.181A3.237,3.237,0,0,1,24.293,31.811Zm44.645-1.273a3.183,3.183,0,1,1,3.283-3.181A3.236,3.236,0,0,1,68.938,30.538Zm-22.323,0a1.909,1.909,0,1,1,1.97-1.909A1.958,1.958,0,0,1,46.615,30.538Zm11.818-1.273a3.183,3.183,0,1,1,3.283-3.181,3.068,3.068,0,0,1-.951,2.241A3.358,3.358,0,0,1,58.433,29.265Zm-17.061,0a1.909,1.909,0,1,1,1.961-1.908A1.947,1.947,0,0,1,41.372,29.265Zm-8.545,0a2.722,2.722,0,0,1-1.868-.751,2.5,2.5,0,0,1,0-3.585,2.691,2.691,0,0,1,1.866-.754,2.592,2.592,0,0,1,2.626,2.545,2.448,2.448,0,0,1-.76,1.791A2.7,2.7,0,0,1,32.827,29.265ZM9.849,26.721a3.361,3.361,0,0,1-2.335-.94,3.119,3.119,0,0,1,0-4.482,3.406,3.406,0,0,1,2.333-.941,3.183,3.183,0,1,1,0,6.362Zm38.08-2.545a1.909,1.909,0,1,1,1.97-1.909A1.943,1.943,0,0,1,47.929,24.176ZM20.353,22.9a3.183,3.183,0,1,1,3.282-3.181A3.237,3.237,0,0,1,20.353,22.9Zm22.323-1.273a2.017,2.017,0,0,1-1.4-.564,1.826,1.826,0,0,1-.568-1.344,1.97,1.97,0,1,1,1.969,1.908Zm27.575-1.272a3.183,3.183,0,1,1,3.283-3.182A3.237,3.237,0,0,1,70.251,20.359Zm-34.141,0a2.014,2.014,0,0,1-1.4-.564,1.865,1.865,0,0,1-.571-1.345,1.971,1.971,0,1,1,1.97,1.909Zm-7.222,0a2.546,2.546,0,1,1,2.626-2.545A2.6,2.6,0,0,1,28.888,20.359Zm30.858-1.273a3.584,3.584,0,0,1-3.282-3.817,3.32,3.32,0,1,1,6.565,0,4.065,4.065,0,0,1-.951,2.687A3.1,3.1,0,0,1,59.746,19.086Zm-9.848,0a1.356,1.356,0,0,1-.936-.374,1.254,1.254,0,0,1,0-1.8,1.349,1.349,0,0,1,.933-.376,1.363,1.363,0,0,1,.932.376,1.228,1.228,0,0,1,.381.9,1.241,1.241,0,0,1-.381.9A1.363,1.363,0,0,1,49.9,19.086Zm-3.283-2.545a1.909,1.909,0,1,1,1.97-1.908A1.942,1.942,0,0,1,46.615,16.541Zm-5.242-3.817a1.909,1.909,0,1,1,1.959-1.909A1.948,1.948,0,0,1,41.374,12.724Zm-21.677,0A2.948,2.948,0,0,1,17.07,9.543,2.947,2.947,0,0,1,19.7,6.362a2.947,2.947,0,0,1,2.626,3.181A2.948,2.948,0,0,1,19.7,12.724Zm15.1-1.273a1.951,1.951,0,0,1-1.97-1.909A1.868,1.868,0,0,1,33.4,8.2a2.014,2.014,0,0,1,1.4-.563,1.909,1.909,0,1,1,0,3.817Zm-7.222,0A2.546,2.546,0,1,1,30.2,8.907,2.589,2.589,0,0,1,27.575,11.452Zm30.2-3.817a3.88,3.88,0,0,1-3.939-3.808,3.941,3.941,0,0,1,7.879-.011A3.885,3.885,0,0,1,57.777,7.635Z" transform="translate(481.2 509.73)" fill="#fff"/>
      </g>
      <g transform="matrix(1, 0, 0, 1, -447, -473.73)" filter="url(#shape-banner-2-3)">
        <path id="Shape_Copy_2-8" data-name="Shape Copy 2" d="M46.615,73.8a3.414,3.414,0,0,1-2.332-.941,3.061,3.061,0,0,1-.95-2.239A3.284,3.284,0,1,1,46.615,73.8Zm-15.757,0a3.183,3.183,0,1,1,3.282-3.181A3.237,3.237,0,0,1,30.858,73.8Zm33.485-2.545a3.819,3.819,0,1,1,3.939-3.817A3.884,3.884,0,0,1,64.343,71.255ZM38.737,68.711a3.4,3.4,0,0,1-2.334-.938,3.057,3.057,0,0,1-.949-2.244,3.284,3.284,0,1,1,3.282,3.182Zm13.131-2.545a3.183,3.183,0,1,1,3.283-3.181A3.236,3.236,0,0,1,51.868,66.165Zm-26.919,0a2.546,2.546,0,1,1,2.626-2.544A2.6,2.6,0,0,1,24.949,66.165ZM43.989,59.8a3.24,3.24,0,0,1-3.282-3.181,3.105,3.105,0,0,1,.951-2.24,3.357,3.357,0,0,1,4.662,0,3.11,3.11,0,0,1,.952,2.24,3.071,3.071,0,0,1-.952,2.24A3.4,3.4,0,0,1,43.989,59.8Zm-12.475,0a2.711,2.711,0,0,1-1.865-.751,2.483,2.483,0,0,1-.761-1.794A2.628,2.628,0,1,1,31.514,59.8Zm-9.848-1.273a2.013,2.013,0,0,1-1.4-.564,1.869,1.869,0,0,1,0-2.689,2.021,2.021,0,0,1,2.8,0,1.873,1.873,0,0,1,0,2.691A2.037,2.037,0,0,1,21.667,58.531Zm34.8-3.817h0a1.352,1.352,0,0,1-.933-.373,1.255,1.255,0,0,1,0-1.8,1.341,1.341,0,0,1,.933-.376,1.294,1.294,0,0,1,1.313,1.272,1.225,1.225,0,0,1-.381.9A1.358,1.358,0,0,1,56.464,54.714ZM60.4,53.441a1.273,1.273,0,1,1,1.313-1.272A1.3,1.3,0,0,1,60.4,53.441Zm-32.171,0A1.909,1.909,0,1,1,30.2,51.533,1.942,1.942,0,0,1,28.232,53.441Zm11.161-1.272a2.589,2.589,0,0,1-2.625-2.545,2.474,2.474,0,0,1,.759-1.792,2.7,2.7,0,0,1,1.867-.753,2.59,2.59,0,0,1,2.626,2.545,2.444,2.444,0,0,1-.759,1.792A2.7,2.7,0,0,1,39.393,52.169Zm-19.039,0a1.91,1.91,0,1,1,1.969-1.909A1.942,1.942,0,0,1,20.353,52.169ZM66.312,50.9a1.91,1.91,0,1,1,1.97-1.909A1.952,1.952,0,0,1,66.312,50.9Zm-14.444,0a1.91,1.91,0,1,1,1.97-1.909A1.954,1.954,0,0,1,51.868,50.9Zm5.252-2.545a2.027,2.027,0,0,1-1.4-.56,1.835,1.835,0,0,1-.569-1.349,1.942,1.942,0,0,1,1.969-1.908,2,2,0,0,1,1.4.561,1.864,1.864,0,0,1,.571,1.347A1.942,1.942,0,0,1,57.12,48.352Zm13.131-1.273a1.909,1.909,0,1,1,1.97-1.908A1.942,1.942,0,0,1,70.251,47.079Zm-23.636,0a1.909,1.909,0,1,1,1.97-1.908A1.951,1.951,0,0,1,46.615,47.079Zm-19.7,0a2.036,2.036,0,0,1-1.4-.562,1.879,1.879,0,0,1,0-2.69,2.017,2.017,0,0,1,1.4-.564,1.909,1.909,0,1,1,0,3.817Zm-6.566,0a1.909,1.909,0,1,1,1.969-1.908,1.853,1.853,0,0,1-.569,1.342A2.026,2.026,0,0,1,20.353,47.079ZM34.8,45.807a2.043,2.043,0,0,1-1.4-.564,1.859,1.859,0,0,1-.569-1.345A1.97,1.97,0,1,1,34.8,45.807ZM3.939,44.535a3.819,3.819,0,1,1,0-7.635,3.819,3.819,0,1,1,0,7.635Zm57.12-1.273a1.909,1.909,0,1,1,1.97-1.909A1.942,1.942,0,0,1,61.06,43.262ZM73.535,41.99a2.723,2.723,0,0,1-1.868-.751,2.476,2.476,0,0,1-.759-1.793,2.628,2.628,0,1,1,2.626,2.544Zm-22.98,0a2.019,2.019,0,0,1-1.4-.564,1.869,1.869,0,0,1,0-2.688,2.015,2.015,0,0,1,2.8,0,1.842,1.842,0,0,1,.571,1.344A1.944,1.944,0,0,1,50.555,41.99Zm-23.636,0a1.909,1.909,0,1,1,1.969-1.909A1.949,1.949,0,0,1,26.919,41.99Zm-5.909,0a1.273,1.273,0,1,1,1.313-1.273A1.295,1.295,0,0,1,21.01,41.99Zm12.475-2.544a2.008,2.008,0,0,1-1.4-.562,1.843,1.843,0,0,1-.572-1.346,1.942,1.942,0,0,1,1.97-1.909,2.028,2.028,0,0,1,1.4.562,1.86,1.86,0,0,1,.57,1.347A1.942,1.942,0,0,1,33.485,39.445ZM65.656,36.9a2.684,2.684,0,0,1-1.869-.751,2.468,2.468,0,0,1-.757-1.795,2.628,2.628,0,0,1,5.252,0,2.446,2.446,0,0,1-.76,1.792A2.724,2.724,0,0,1,65.656,36.9Zm-10.5-1.273a2.546,2.546,0,1,1,0-5.09,2.715,2.715,0,0,1,1.865.751,2.454,2.454,0,0,1,.761,1.795A2.589,2.589,0,0,1,55.151,35.627Zm-40.05,0a3.584,3.584,0,0,1-3.283-3.817,4.066,4.066,0,0,1,.95-2.688,3.136,3.136,0,0,1,2.333-1.13,3.585,3.585,0,0,1,3.282,3.818A3.584,3.584,0,0,1,15.1,35.627Zm61.717-2.544A3.237,3.237,0,0,1,73.535,29.9a3.067,3.067,0,0,1,.952-2.24,3.358,3.358,0,0,1,2.331-.941,3.183,3.183,0,1,1,0,6.362ZM24.293,31.811a3.183,3.183,0,1,1,3.282-3.181A3.237,3.237,0,0,1,24.293,31.811Zm44.645-1.273a3.183,3.183,0,1,1,3.283-3.181A3.236,3.236,0,0,1,68.938,30.538Zm-22.323,0a1.909,1.909,0,1,1,1.97-1.909A1.958,1.958,0,0,1,46.615,30.538Zm11.818-1.273a3.183,3.183,0,1,1,3.283-3.181,3.068,3.068,0,0,1-.951,2.241A3.358,3.358,0,0,1,58.433,29.265Zm-17.061,0a1.909,1.909,0,1,1,1.961-1.908A1.947,1.947,0,0,1,41.372,29.265Zm-8.545,0a2.722,2.722,0,0,1-1.868-.751,2.5,2.5,0,0,1,0-3.585,2.691,2.691,0,0,1,1.866-.754,2.592,2.592,0,0,1,2.626,2.545,2.448,2.448,0,0,1-.76,1.791A2.7,2.7,0,0,1,32.827,29.265ZM9.849,26.721a3.361,3.361,0,0,1-2.335-.94,3.119,3.119,0,0,1,0-4.482,3.406,3.406,0,0,1,2.333-.941,3.183,3.183,0,1,1,0,6.362Zm38.08-2.545a1.909,1.909,0,1,1,1.97-1.909A1.943,1.943,0,0,1,47.929,24.176ZM20.353,22.9a3.183,3.183,0,1,1,3.282-3.181A3.237,3.237,0,0,1,20.353,22.9Zm22.323-1.273a2.017,2.017,0,0,1-1.4-.564,1.826,1.826,0,0,1-.568-1.344,1.97,1.97,0,1,1,1.969,1.908Zm27.575-1.272a3.183,3.183,0,1,1,3.283-3.182A3.237,3.237,0,0,1,70.251,20.359Zm-34.141,0a2.014,2.014,0,0,1-1.4-.564,1.865,1.865,0,0,1-.571-1.345,1.971,1.971,0,1,1,1.97,1.909Zm-7.222,0a2.546,2.546,0,1,1,2.626-2.545A2.6,2.6,0,0,1,28.888,20.359Zm30.858-1.273a3.584,3.584,0,0,1-3.282-3.817,3.32,3.32,0,1,1,6.565,0,4.065,4.065,0,0,1-.951,2.687A3.1,3.1,0,0,1,59.746,19.086Zm-9.848,0a1.356,1.356,0,0,1-.936-.374,1.254,1.254,0,0,1,0-1.8,1.349,1.349,0,0,1,.933-.376,1.363,1.363,0,0,1,.932.376,1.228,1.228,0,0,1,.381.9,1.241,1.241,0,0,1-.381.9A1.363,1.363,0,0,1,49.9,19.086Zm-3.283-2.545a1.909,1.909,0,1,1,1.97-1.908A1.942,1.942,0,0,1,46.615,16.541Zm-5.242-3.817a1.909,1.909,0,1,1,1.959-1.909A1.948,1.948,0,0,1,41.374,12.724Zm-21.677,0A2.948,2.948,0,0,1,17.07,9.543,2.947,2.947,0,0,1,19.7,6.362a2.947,2.947,0,0,1,2.626,3.181A2.948,2.948,0,0,1,19.7,12.724Zm15.1-1.273a1.951,1.951,0,0,1-1.97-1.909A1.868,1.868,0,0,1,33.4,8.2a2.014,2.014,0,0,1,1.4-.563,1.909,1.909,0,1,1,0,3.817Zm-7.222,0A2.546,2.546,0,1,1,30.2,8.907,2.589,2.589,0,0,1,27.575,11.452Zm30.2-3.817a3.88,3.88,0,0,1-3.939-3.808,3.941,3.941,0,0,1,7.879-.011A3.885,3.885,0,0,1,57.777,7.635Z" transform="translate(481.2 509.73)" fill="#fff"/>
      </g>
    </g>
  </g>
  <g id="Group_3_Copy_6" data-name="Group 3 Copy 6" transform="translate(173 41.732)">
    <g id="Oval-32" data-name="Oval">
      <g data-type="innerShadowGroup">
        <g transform="matrix(1, 0, 0, 1, -173, -41.73)" filter="url(#Oval-banner-9)">
          <circle id="Oval-33" data-name="Oval" cx="32" cy="32" r="32" transform="translate(173 41.73)" fill="url(#linear-gradient-banner-2)"/>
        </g>
        <g transform="matrix(1, 0, 0, 1, -173, -41.73)" filter="url(#Oval-banner-10)">
          <circle id="Oval-34" data-name="Oval" cx="32" cy="32" r="32" transform="translate(173 41.73)" fill="#fff"/>
        </g>
      </g>
      <g transform="matrix(1, 0, 0, 1, -173, -41.73)" filter="url(#Oval-banner-11)">
        <circle id="Oval-35" data-name="Oval" cx="32" cy="32" r="32" transform="translate(173 41.73)" fill="#fff"/>
      </g>
      <g transform="matrix(1, 0, 0, 1, -173, -41.73)" filter="url(#Oval-banner-12)">
        <circle id="Oval-36" data-name="Oval" cx="32" cy="32" r="32" transform="translate(173 41.73)" fill="#fff"/>
      </g>
    </g>
    <g id="Combined_Shape_Copy-4" data-name="Combined Shape Copy">
      <g data-type="innerShadowGroup">
        <path id="Combined_Shape_Copy-5" data-name="Combined Shape Copy" d="M19.625,33.278l-8.375-14.2-6,3.557L3.029,19l6.058-3.588-.672-1.139L2.354,17.86.136,14.223,6.252,10.6,0,0H4.91L19.582,25.516l.9-1.679L24.169,17.3l7.7-13.061H16.475l1.911,3.244H14.109L9.866,0H39.254L33.026,10.559,39.2,14.214,36.98,17.851l-6.117-3.623-.672,1.139,6.114,3.621-2.218,3.637-6.06-3.589-8.4,14.243v0Z" transform="translate(12.8 15.36)" fill="url(#linear-gradient-banner-3)"/>
        <g transform="matrix(1, 0, 0, 1, -173, -41.73)" filter="url(#shape-banner-1)">
          <path id="Combined_Shape_Copy-6" data-name="Combined Shape Copy" d="M19.625,33.278l-8.375-14.2-6,3.557L3.029,19l6.058-3.588-.672-1.139L2.354,17.86.136,14.223,6.252,10.6,0,0H4.91L19.582,25.516l.9-1.679L24.169,17.3l7.7-13.061H16.475l1.911,3.244H14.109L9.866,0H39.254L33.026,10.559,39.2,14.214,36.98,17.851l-6.117-3.623-.672,1.139,6.114,3.621-2.218,3.637-6.06-3.589-8.4,14.243v0Z" transform="translate(185.8 57.09)" fill="#fff"/>
        </g>
      </g>
      <g transform="matrix(1, 0, 0, 1, -173, -41.73)" filter="url(#shape-banner-1-2)">
        <path id="Combined_Shape_Copy-7" data-name="Combined Shape Copy" d="M19.625,33.278l-8.375-14.2-6,3.557L3.029,19l6.058-3.588-.672-1.139L2.354,17.86.136,14.223,6.252,10.6,0,0H4.91L19.582,25.516l.9-1.679L24.169,17.3l7.7-13.061H16.475l1.911,3.244H14.109L9.866,0H39.254L33.026,10.559,39.2,14.214,36.98,17.851l-6.117-3.623-.672,1.139,6.114,3.621-2.218,3.637-6.06-3.589-8.4,14.243v0Z" transform="translate(185.8 57.09)" fill="#fff"/>
      </g>
      <g transform="matrix(1, 0, 0, 1, -173, -41.73)" filter="url(#shape-banner-1-3)">
        <path id="Combined_Shape_Copy-8" data-name="Combined Shape Copy" d="M19.625,33.278l-8.375-14.2-6,3.557L3.029,19l6.058-3.588-.672-1.139L2.354,17.86.136,14.223,6.252,10.6,0,0H4.91L19.582,25.516l.9-1.679L24.169,17.3l7.7-13.061H16.475l1.911,3.244H14.109L9.866,0H39.254L33.026,10.559,39.2,14.214,36.98,17.851l-6.117-3.623-.672,1.139,6.114,3.621-2.218,3.637-6.06-3.589-8.4,14.243v0Z" transform="translate(185.8 57.09)" fill="#fff"/>
      </g>
    </g>
  </g>
  <g id="Group_3_Copy_7" data-name="Group 3 Copy 7" transform="translate(479 84.732)">
    <g id="Oval-37" data-name="Oval">
      <g data-type="innerShadowGroup">
        <g transform="matrix(1, 0, 0, 1, -479, -84.73)" filter="url(#Oval-banner-13)">
          <circle id="Oval-38" data-name="Oval" cx="56" cy="56" r="56" transform="translate(479 84.73)" fill="url(#linear-gradient-banner-2)"/>
        </g>
        <g transform="matrix(1, 0, 0, 1, -479, -84.73)" filter="url(#Oval-banner-14)">
          <circle id="Oval-39" data-name="Oval" cx="56" cy="56" r="56" transform="translate(479 84.73)" fill="#fff"/>
        </g>
      </g>
      <g transform="matrix(1, 0, 0, 1, -479, -84.73)" filter="url(#Oval-banner-15)">
        <circle id="Oval-40" data-name="Oval" cx="56" cy="56" r="56" transform="translate(479 84.73)" fill="#fff"/>
      </g>
      <g transform="matrix(1, 0, 0, 1, -479, -84.73)" filter="url(#Oval-banner-16)">
        <circle id="Oval-41" data-name="Oval" cx="56" cy="56" r="56" transform="translate(479 84.73)" fill="#fff"/>
      </g>
    </g>
    <g id="Path-4" data-name="Path">
      <g data-type="innerShadowGroup">
        <path id="Path-5" data-name="Path" d="M41.17,33.788A4.736,4.736,0,0,1,36.34,29a4.877,4.877,0,0,1,4.83-4.788,14.272,14.272,0,0,0,6.712-1.607A12.058,12.058,0,0,0,53.261,7.971a12.249,12.249,0,0,0-23.727,4.144,13.812,13.812,0,0,0,1.919,6.51,4.7,4.7,0,0,1-1.74,6.586,4.939,4.939,0,0,1-6.627-1.8,13.983,13.983,0,0,0-4.736-4.9,12.315,12.315,0,0,0-15.487,2.7,12.023,12.023,0,0,0,0,15.573,12.315,12.315,0,0,0,15.487,2.7,13.976,13.976,0,0,0,4.735-4.9,4.784,4.784,0,0,1,6.628-1.8,4.843,4.843,0,0,1,1.739,6.587,13.808,13.808,0,0,0-1.917,6.509A12.213,12.213,0,1,0,47.882,35.4,14.272,14.272,0,0,0,41.17,33.788Z" transform="translate(29 27)" fill="url(#linear-gradient-banner-3)"/>
        <g transform="matrix(1, 0, 0, 1, -479, -84.73)" filter="url(#Path)">
          <path id="Path-6" data-name="Path" d="M41.17,33.788A4.736,4.736,0,0,1,36.34,29a4.877,4.877,0,0,1,4.83-4.788,14.272,14.272,0,0,0,6.712-1.607A12.058,12.058,0,0,0,53.261,7.971a12.249,12.249,0,0,0-23.727,4.144,13.812,13.812,0,0,0,1.919,6.51,4.7,4.7,0,0,1-1.74,6.586,4.939,4.939,0,0,1-6.627-1.8,13.983,13.983,0,0,0-4.736-4.9,12.315,12.315,0,0,0-15.487,2.7,12.023,12.023,0,0,0,0,15.573,12.315,12.315,0,0,0,15.487,2.7,13.976,13.976,0,0,0,4.735-4.9,4.784,4.784,0,0,1,6.628-1.8,4.843,4.843,0,0,1,1.739,6.587,13.808,13.808,0,0,0-1.917,6.509A12.213,12.213,0,1,0,47.882,35.4,14.272,14.272,0,0,0,41.17,33.788Z" transform="translate(508 111.73)" fill="#fff"/>
        </g>
      </g>
      <g transform="matrix(1, 0, 0, 1, -479, -84.73)" filter="url(#Path-2)">
        <path id="Path-7" data-name="Path" d="M41.17,33.788A4.736,4.736,0,0,1,36.34,29a4.877,4.877,0,0,1,4.83-4.788,14.272,14.272,0,0,0,6.712-1.607A12.058,12.058,0,0,0,53.261,7.971a12.249,12.249,0,0,0-23.727,4.144,13.812,13.812,0,0,0,1.919,6.51,4.7,4.7,0,0,1-1.74,6.586,4.939,4.939,0,0,1-6.627-1.8,13.983,13.983,0,0,0-4.736-4.9,12.315,12.315,0,0,0-15.487,2.7,12.023,12.023,0,0,0,0,15.573,12.315,12.315,0,0,0,15.487,2.7,13.976,13.976,0,0,0,4.735-4.9,4.784,4.784,0,0,1,6.628-1.8,4.843,4.843,0,0,1,1.739,6.587,13.808,13.808,0,0,0-1.917,6.509A12.213,12.213,0,1,0,47.882,35.4,14.272,14.272,0,0,0,41.17,33.788Z" transform="translate(508 111.73)" fill="#fff"/>
      </g>
      <g transform="matrix(1, 0, 0, 1, -479, -84.73)" filter="url(#Path-3)">
        <path id="Path-8" data-name="Path" d="M41.17,33.788A4.736,4.736,0,0,1,36.34,29a4.877,4.877,0,0,1,4.83-4.788,14.272,14.272,0,0,0,6.712-1.607A12.058,12.058,0,0,0,53.261,7.971a12.249,12.249,0,0,0-23.727,4.144,13.812,13.812,0,0,0,1.919,6.51,4.7,4.7,0,0,1-1.74,6.586,4.939,4.939,0,0,1-6.627-1.8,13.983,13.983,0,0,0-4.736-4.9,12.315,12.315,0,0,0-15.487,2.7,12.023,12.023,0,0,0,0,15.573,12.315,12.315,0,0,0,15.487,2.7,13.976,13.976,0,0,0,4.735-4.9,4.784,4.784,0,0,1,6.628-1.8,4.843,4.843,0,0,1,1.739,6.587,13.808,13.808,0,0,0-1.917,6.509A12.213,12.213,0,1,0,47.882,35.4,14.272,14.272,0,0,0,41.17,33.788Z" transform="translate(508 111.73)" fill="#fff"/>
      </g>
    </g>
  </g>
  <g id="Group_4_Copy" data-name="Group 4 Copy" transform="translate(28 271.732)">
    <g id="Oval-42" data-name="Oval">
      <g data-type="innerShadowGroup">
        <g transform="matrix(1, 0, 0, 1, -28, -271.73)" filter="url(#Oval-banner-17)">
          <circle id="Oval-43" data-name="Oval" cx="44" cy="44" r="44" transform="translate(28 271.73)" fill="url(#linear-gradient-banner-2)"/>
        </g>
        <g transform="matrix(1, 0, 0, 1, -28, -271.73)" filter="url(#Oval-banner-18)">
          <circle id="Oval-44" data-name="Oval" cx="44" cy="44" r="44" transform="translate(28 271.73)" fill="#fff"/>
        </g>
      </g>
      <g transform="matrix(1, 0, 0, 1, -28, -271.73)" filter="url(#Oval-banner-19)">
        <circle id="Oval-45" data-name="Oval" cx="44" cy="44" r="44" transform="translate(28 271.73)" fill="#fff"/>
      </g>
      <g transform="matrix(1, 0, 0, 1, -28, -271.73)" filter="url(#Oval-banner-20)">
        <circle id="Oval-46" data-name="Oval" cx="44" cy="44" r="44" transform="translate(28 271.73)" fill="#fff"/>
      </g>
    </g>
    <g id="Shape_Copy_3-4" data-name="Shape Copy 3">
      <g data-type="innerShadowGroup">
        <path id="Shape_Copy_3-5" data-name="Shape Copy 3" d="M29.484,45H19.553V25.821A68.666,68.666,0,0,1,5.593,23.938a16.359,16.359,0,0,1-4.106-1.6C.5,21.739,0,21.107,0,20.462s.5-1.278,1.486-1.879a16.345,16.345,0,0,1,4.106-1.6,68.585,68.585,0,0,1,13.962-1.879V9.123H5.82V0H43.213V9.123H29.48v5.988l0,0A68.379,68.379,0,0,1,43.42,16.992a16.3,16.3,0,0,1,4.1,1.6c.984.6,1.483,1.232,1.483,1.877s-.5,1.277-1.483,1.877a16.3,16.3,0,0,1-4.1,1.6,68.426,68.426,0,0,1-13.936,1.88V45ZM19.092,23.9h0c.334.017,2.145.1,4.963.1,2.9,0,4.382-.069,4.887-.1a71.582,71.582,0,0,0,12.191-1.408C44.272,21.777,46,20.873,46,19.951s-1.728-1.825-4.865-2.543A71.631,71.631,0,0,0,28.944,16v6.3c-.405.035-1.949.145-4.847.145-2.536,0-4.345-.1-5-.145V16A71.989,71.989,0,0,0,6.876,17.407C3.686,18.134,2,19.015,2,19.953s1.732,1.83,4.876,2.548a71.865,71.865,0,0,0,12.216,1.407V23.9Z" transform="translate(20 21)" fill="url(#linear-gradient-banner-3)"/>
        <g transform="matrix(1, 0, 0, 1, -28, -271.73)" filter="url(#shape-banner-3)">
          <path id="Shape_Copy_3-6" data-name="Shape Copy 3" d="M29.484,45H19.553V25.821A68.666,68.666,0,0,1,5.593,23.938a16.359,16.359,0,0,1-4.106-1.6C.5,21.739,0,21.107,0,20.462s.5-1.278,1.486-1.879a16.345,16.345,0,0,1,4.106-1.6,68.585,68.585,0,0,1,13.962-1.879V9.123H5.82V0H43.213V9.123H29.48v5.988l0,0A68.379,68.379,0,0,1,43.42,16.992a16.3,16.3,0,0,1,4.1,1.6c.984.6,1.483,1.232,1.483,1.877s-.5,1.277-1.483,1.877a16.3,16.3,0,0,1-4.1,1.6,68.426,68.426,0,0,1-13.936,1.88V45ZM19.092,23.9h0c.334.017,2.145.1,4.963.1,2.9,0,4.382-.069,4.887-.1a71.582,71.582,0,0,0,12.191-1.408C44.272,21.777,46,20.873,46,19.951s-1.728-1.825-4.865-2.543A71.631,71.631,0,0,0,28.944,16v6.3c-.405.035-1.949.145-4.847.145-2.536,0-4.345-.1-5-.145V16A71.989,71.989,0,0,0,6.876,17.407C3.686,18.134,2,19.015,2,19.953s1.732,1.83,4.876,2.548a71.865,71.865,0,0,0,12.216,1.407V23.9Z" transform="translate(48 292.73)" fill="#fff"/>
        </g>
      </g>
      <g transform="matrix(1, 0, 0, 1, -28, -271.73)" filter="url(#shape-banner-3-2)">
        <path id="Shape_Copy_3-7" data-name="Shape Copy 3" d="M29.484,45H19.553V25.821A68.666,68.666,0,0,1,5.593,23.938a16.359,16.359,0,0,1-4.106-1.6C.5,21.739,0,21.107,0,20.462s.5-1.278,1.486-1.879a16.345,16.345,0,0,1,4.106-1.6,68.585,68.585,0,0,1,13.962-1.879V9.123H5.82V0H43.213V9.123H29.48v5.988l0,0A68.379,68.379,0,0,1,43.42,16.992a16.3,16.3,0,0,1,4.1,1.6c.984.6,1.483,1.232,1.483,1.877s-.5,1.277-1.483,1.877a16.3,16.3,0,0,1-4.1,1.6,68.426,68.426,0,0,1-13.936,1.88V45ZM19.092,23.9h0c.334.017,2.145.1,4.963.1,2.9,0,4.382-.069,4.887-.1a71.582,71.582,0,0,0,12.191-1.408C44.272,21.777,46,20.873,46,19.951s-1.728-1.825-4.865-2.543A71.631,71.631,0,0,0,28.944,16v6.3c-.405.035-1.949.145-4.847.145-2.536,0-4.345-.1-5-.145V16A71.989,71.989,0,0,0,6.876,17.407C3.686,18.134,2,19.015,2,19.953s1.732,1.83,4.876,2.548a71.865,71.865,0,0,0,12.216,1.407V23.9Z" transform="translate(48 292.73)" fill="#fff"/>
      </g>
      <g transform="matrix(1, 0, 0, 1, -28, -271.73)" filter="url(#shape-banner-3-3)">
        <path id="Shape_Copy_3-8" data-name="Shape Copy 3" d="M29.484,45H19.553V25.821A68.666,68.666,0,0,1,5.593,23.938a16.359,16.359,0,0,1-4.106-1.6C.5,21.739,0,21.107,0,20.462s.5-1.278,1.486-1.879a16.345,16.345,0,0,1,4.106-1.6,68.585,68.585,0,0,1,13.962-1.879V9.123H5.82V0H43.213V9.123H29.48v5.988l0,0A68.379,68.379,0,0,1,43.42,16.992a16.3,16.3,0,0,1,4.1,1.6c.984.6,1.483,1.232,1.483,1.877s-.5,1.277-1.483,1.877a16.3,16.3,0,0,1-4.1,1.6,68.426,68.426,0,0,1-13.936,1.88V45ZM19.092,23.9h0c.334.017,2.145.1,4.963.1,2.9,0,4.382-.069,4.887-.1a71.582,71.582,0,0,0,12.191-1.408C44.272,21.777,46,20.873,46,19.951s-1.728-1.825-4.865-2.543A71.631,71.631,0,0,0,28.944,16v6.3c-.405.035-1.949.145-4.847.145-2.536,0-4.345-.1-5-.145V16A71.989,71.989,0,0,0,6.876,17.407C3.686,18.134,2,19.015,2,19.953s1.732,1.83,4.876,2.548a71.865,71.865,0,0,0,12.216,1.407V23.9Z" transform="translate(48 292.73)" fill="#fff"/>
      </g>
    </g>
  </g>
</svg>
