<svg xmlns="http://www.w3.org/2000/svg" xmlns:xlink="http://www.w3.org/1999/xlink" width="39.982" height="38.916" viewBox="0 0 39.982 38.916">
  <defs>
    <clipPath id="logo-path">
      <path id="Clip_4" data-name="Clip 4" d="M20.136,38.916a19.3,19.3,0,0,1-16.673-9.6,1.192,1.192,0,0,1-1.036-2.061l-.046-.1A19.146,19.146,0,0,1,.867,19.657,1.192,1.192,0,0,1,1,17.332a19.107,19.107,0,0,1,1.376-5.187,19.345,19.345,0,0,1,.968-1.967A7.017,7.017,0,0,1,7.543,5.061,19.2,19.2,0,0,1,20.136.376a19.461,19.461,0,0,1,3.4.3,1.193,1.193,0,0,1,2.267.519s0,.009,0,.014,0,.01,0,.015a19.231,19.231,0,0,1,6.923,3.831,7.007,7.007,0,0,1,4.217,5.154A19.212,19.212,0,0,1,38.8,14.825a1.193,1.193,0,0,1,.443,2.3,19.685,19.685,0,0,1,.164,2.525,19.145,19.145,0,0,1-1.514,7.5l-.012.025a1.192,1.192,0,0,1-1.038,2.085,19.409,19.409,0,0,1-6.315,6.62,1.192,1.192,0,0,1-2.041,1.139c-.3.144-.579.27-.849.384A19.161,19.161,0,0,1,20.136,38.916ZM4.374,28.427a1.2,1.2,0,0,1-.4.638,18.8,18.8,0,0,0,16.16,9.292,18.509,18.509,0,0,0,8.094-1.842,1.177,1.177,0,0,1-.031-.272,1.193,1.193,0,0,1,2.03-.849,18.91,18.91,0,0,0,6.11-6.4,1.194,1.194,0,0,1-.349-.549H29.061l-1.837,2.272h4.26a1.194,1.194,0,1,1,.5,1.191,16.976,16.976,0,0,1-9.515,4.63,4.393,4.393,0,0,1-2.115,1.219,1.507,1.507,0,0,1-.317.031,1.125,1.125,0,0,1-.369-.05,5.6,5.6,0,0,1-1.637-1.171,16.951,16.951,0,0,1-4.2-1.076,1.192,1.192,0,0,1-2.093-1.006,17.026,17.026,0,0,1-3.3-2.441,1.193,1.193,0,1,1,.527-1.291h4.126L11.21,28.427Zm15.818,4.587a16.453,16.453,0,0,1-3.015,1.865A8.851,8.851,0,0,0,19.86,37.21a.865.865,0,0,0,.179.015.847.847,0,0,0,.185-.018,3.869,3.869,0,0,0,1.925-1.148l.248-.31.058-.073.639-.8A19.605,19.605,0,0,1,20.192,33.014Zm9.2,2.6a.633.633,0,1,0,.633.633A.634.634,0,0,0,29.391,35.609ZM12.9,33.548a1.2,1.2,0,0,1,1.193,1.193,1.228,1.228,0,0,1-.023.238,16.407,16.407,0,0,0,3.293.923c-.484-.507-1.016-1.115-1.582-1.806a15.046,15.046,0,0,1-5.216-2.787h-1.6a1.161,1.161,0,0,1-.133.329,16.654,16.654,0,0,0,3.155,2.339A1.192,1.192,0,0,1,12.9,33.548Zm10.776,1.5L23,35.886a16.413,16.413,0,0,0,8.6-4.4,1.313,1.313,0,0,1-.087-.21H29.752a15.048,15.048,0,0,1-5.331,2.844l-.467.582a.291.291,0,0,1,.009.085.281.281,0,0,1-.28.266h-.01ZM12.9,34.107a.633.633,0,1,0,.634.634A.634.634,0,0,0,12.9,34.107Zm1.45-2.8c.47.649,1.412,1.919,2.45,3.134a13.861,13.861,0,0,0,3.151-1.981.28.28,0,0,1,.215-.1.277.277,0,0,1,.171.058,18.251,18.251,0,0,0,3.122,2.007l1.993-2.487.056-.07.478-.6h-1.36a1.194,1.194,0,1,1-.056-.56h1.939l1.836-2.272H25.969a1.192,1.192,0,1,1,.03-.56h2.8l2.986-3.693V18.1l-2.01-1.823-3.3,2.385a3.061,3.061,0,0,1,1.512,2.962c0,1.71-.876,3.049-1.993,3.049s-1.994-1.339-1.994-3.049a3.034,3.034,0,0,1,1.535-2.97L29.346,15.9,27.7,14.4c-.1-.08-.184-.16-.262-.238l-.026-.023a3.7,3.7,0,1,1,5.133.139,3.828,3.828,0,0,1-.682.493l-1.625,1.174,1.892,1.715A6.46,6.46,0,1,0,23.59,11.4v.281c0,.05,0,.291,0,.293H16.676c0-.01.016-.642.015-.664a6.46,6.46,0,1,0-8.534,6.347l1.892-1.715L8.424,14.773a3.782,3.782,0,0,1-.679-.491,3.7,3.7,0,1,1,6.192-2.738,3.678,3.678,0,0,1-1.064,2.594l-.024.025c-.083.082-.171.162-.262.238l-1.651,1.5,3.82,2.759a3.043,3.043,0,0,1,1.534,2.973c0,1.71-.876,3.049-1.993,3.049S12.3,23.338,12.3,21.628a3.061,3.061,0,0,1,1.513-2.962l-3.3-2.385L8.5,18.1v6.086l2.974,3.677h2.808a1.193,1.193,0,1,1,0,.561H11.93l1.878,2.323h1.858a1.193,1.193,0,1,1,0,.559Zm12.333-.035.011.009-1.625,2.03a14.523,14.523,0,0,0,3.77-2.039Zm-15.2.035a14.514,14.514,0,0,0,3.647,1.976c-.724-.927-1.272-1.691-1.474-1.976Zm11.956-.834a.633.633,0,1,0,.634.633A.633.633,0,0,0,23.441,30.474ZM16.825,30.4a.633.633,0,1,0,.634.633A.633.633,0,0,0,16.825,30.4ZM7.8,30.4a.633.633,0,1,0,.624.735.3.3,0,0,1-.019-.1.3.3,0,0,1,.019-.1A.629.629,0,0,0,7.8,30.4Zm24.855-.106a.633.633,0,1,0,.633.634A.634.634,0,0,0,32.658,30.289ZM15.445,27.513a.633.633,0,1,0,.633.633A.634.634,0,0,0,15.445,27.513Zm-12.23,0a.633.633,0,1,0,.633.633A.634.634,0,0,0,3.215,27.513Zm33.919-.044a.633.633,0,1,0,.633.633A.634.634,0,0,0,37.134,27.469Zm-12.308,0a.633.633,0,1,0,.616.774.3.3,0,0,1-.012-.081.281.281,0,0,1,.025-.116A.637.637,0,0,0,24.826,27.469ZM37.068,11.692h0a6.922,6.922,0,0,1-.665,2.839,17.123,17.123,0,0,1-.558,11.751,17.246,17.246,0,0,1-.778,1.6h.9a1.193,1.193,0,0,1,1.408-.95,18.537,18.537,0,0,0,1.478-7.285,18.914,18.914,0,0,0-.16-2.441,1.192,1.192,0,0,1-.437-2.252A18.642,18.642,0,0,0,37.068,11.692ZM34.442,24.451c-.117.353-.253.712-.4,1.068a15.083,15.083,0,0,1-1.258,2.362h1.637a16.474,16.474,0,0,0,1.606-12.656A7.112,7.112,0,0,1,34.916,16.6a15.2,15.2,0,0,1,.1,5.585,1.193,1.193,0,0,1-.514,2.27h-.056Zm-.015-7.424A7.008,7.008,0,0,1,32.34,18.18v6.207l-2.825,3.495H32.1a14.494,14.494,0,0,0,1.8-3.591,1.192,1.192,0,0,1,.561-2.224,14.563,14.563,0,0,0-.035-5.04ZM5.847,17.02A14.5,14.5,0,0,0,8.164,27.866h2.593L7.943,24.387V18.18A7.012,7.012,0,0,1,5.847,17.02ZM4.253,15.214a16.475,16.475,0,0,0-.606,4.433,16.655,16.655,0,0,0,.17,2.369A1.192,1.192,0,0,1,4.3,24.247a16.389,16.389,0,0,0,1.546,3.619H7.481A15.129,15.129,0,0,1,5.359,16.589,7.07,7.07,0,0,1,4.253,15.214ZM3.215,26.953a1.189,1.189,0,0,1,1.159.913H5.2a17.014,17.014,0,0,1-.769-1.584A16.813,16.813,0,0,1,3.76,24.4H3.722A1.193,1.193,0,0,1,3.265,22.1a17.335,17.335,0,0,1-.175-2.456,17.027,17.027,0,0,1,.786-5.13,6.939,6.939,0,0,1-.66-2.85,18.555,18.555,0,0,0-1.652,5.711,1.192,1.192,0,0,1-.137,2.3,18.537,18.537,0,0,0,1.5,7.309A1.21,1.21,0,0,1,3.215,26.953Zm22.773-7.814c-.778,0-1.435,1.14-1.435,2.489s.657,2.489,1.435,2.489,1.434-1.14,1.434-2.489S26.765,19.139,25.988,19.139Zm-11.691,0c-.778,0-1.435,1.14-1.435,2.489s.657,2.489,1.435,2.489,1.434-1.14,1.434-2.489S15.074,19.139,14.3,19.139Zm20.2,3.487a.633.633,0,1,0,.634.633A.633.633,0,0,0,34.5,22.626ZM3.722,22.57a.633.633,0,1,0,.634.634A.634.634,0,0,0,3.722,22.57ZM1.193,17.877a.633.633,0,1,0,.633.634A.634.634,0,0,0,1.193,17.877Zm37.6-2.492a.633.633,0,1,0,.633.633A.634.634,0,0,0,38.789,15.385ZM30.049,8.4a3.14,3.14,0,0,0-2.233,5.351l.252.229.012.01.012.01,1.717,1.559,2.374-1.714A3.14,3.14,0,0,0,30.049,8.4Zm-19.814,0A3.14,3.14,0,0,0,8.1,13.847l2.374,1.714L12.191,14a.073.073,0,0,1,.011-.011l.012-.01.253-.229A3.141,3.141,0,0,0,10.235,8.4Zm6.43-2.862a14.5,14.5,0,0,0-1.93.621A7.022,7.022,0,0,1,17.253,11.4H23.03a7.022,7.022,0,0,1,2.515-5.234,14.4,14.4,0,0,0-5.41-1.045c-.394,0-.794.016-1.187.048a1.192,1.192,0,0,1-2.284.373Zm3.471-.982a15,15,0,0,1,5.873,1.186l.017.007.038.016a7.031,7.031,0,0,1,1.559-.811,16.466,16.466,0,0,0-14.968,0,6.985,6.985,0,0,1,1.561.81l.036-.016.012-.005a15.106,15.106,0,0,1,2.307-.761,1.193,1.193,0,0,1,2.292-.371C19.295,4.576,19.724,4.558,20.136,4.558ZM17.76,4.435a.633.633,0,1,0,.634.633A.633.633,0,0,0,17.76,4.435ZM20.136,2.6a16.95,16.95,0,0,1,6.636,1.339,17.253,17.253,0,0,1,1.611.785,7.075,7.075,0,0,1,2.906-.091,18.644,18.644,0,0,0-5.635-2.866,1.193,1.193,0,0,1-2.237-.543A18.752,18.752,0,0,0,20.136.936a18.534,18.534,0,0,0-11.156,3.7,7.053,7.053,0,0,1,2.914.085A17.19,17.19,0,0,1,13.5,3.939,16.948,16.948,0,0,1,20.136,2.6ZM24.609.56a.633.633,0,1,0,.633.634A.634.634,0,0,0,24.609.56Z" transform="translate(0 0)" fill="none"/>
    </clipPath>
    <linearGradient id="linear-gradient" x1="0.499" y1="0.541" x2="0.508" y2="-0.174" gradientUnits="objectBoundingBox">
      <stop offset="0" stop-color="#00f5be"/>
      <stop offset="1" stop-color="#1fd2eb"/>
    </linearGradient>
  </defs>
  <g id="Group_5" data-name="Group 5" transform="translate(0 0)">
    <path id="Clip_4-2" data-name="Clip 4" d="M20.136,38.916a19.3,19.3,0,0,1-16.673-9.6,1.192,1.192,0,0,1-1.036-2.061l-.046-.1A19.146,19.146,0,0,1,.867,19.657,1.192,1.192,0,0,1,1,17.332a19.107,19.107,0,0,1,1.376-5.187,19.345,19.345,0,0,1,.968-1.967A7.017,7.017,0,0,1,7.543,5.061,19.2,19.2,0,0,1,20.136.376a19.461,19.461,0,0,1,3.4.3,1.193,1.193,0,0,1,2.267.519s0,.009,0,.014,0,.01,0,.015a19.231,19.231,0,0,1,6.923,3.831,7.007,7.007,0,0,1,4.217,5.154A19.212,19.212,0,0,1,38.8,14.825a1.193,1.193,0,0,1,.443,2.3,19.685,19.685,0,0,1,.164,2.525,19.145,19.145,0,0,1-1.514,7.5l-.012.025a1.192,1.192,0,0,1-1.038,2.085,19.409,19.409,0,0,1-6.315,6.62,1.192,1.192,0,0,1-2.041,1.139c-.3.144-.579.27-.849.384A19.161,19.161,0,0,1,20.136,38.916ZM4.374,28.427a1.2,1.2,0,0,1-.4.638,18.8,18.8,0,0,0,16.16,9.292,18.509,18.509,0,0,0,8.094-1.842,1.177,1.177,0,0,1-.031-.272,1.193,1.193,0,0,1,2.03-.849,18.91,18.91,0,0,0,6.11-6.4,1.194,1.194,0,0,1-.349-.549H29.061l-1.837,2.272h4.26a1.194,1.194,0,1,1,.5,1.191,16.976,16.976,0,0,1-9.515,4.63,4.393,4.393,0,0,1-2.115,1.219,1.507,1.507,0,0,1-.317.031,1.125,1.125,0,0,1-.369-.05,5.6,5.6,0,0,1-1.637-1.171,16.951,16.951,0,0,1-4.2-1.076,1.192,1.192,0,0,1-2.093-1.006,17.026,17.026,0,0,1-3.3-2.441,1.193,1.193,0,1,1,.527-1.291h4.126L11.21,28.427Zm15.818,4.587a16.453,16.453,0,0,1-3.015,1.865A8.851,8.851,0,0,0,19.86,37.21a.865.865,0,0,0,.179.015.847.847,0,0,0,.185-.018,3.869,3.869,0,0,0,1.925-1.148l.248-.31.058-.073.639-.8A19.605,19.605,0,0,1,20.192,33.014Zm9.2,2.6a.633.633,0,1,0,.633.633A.634.634,0,0,0,29.391,35.609ZM12.9,33.548a1.2,1.2,0,0,1,1.193,1.193,1.228,1.228,0,0,1-.023.238,16.407,16.407,0,0,0,3.293.923c-.484-.507-1.016-1.115-1.582-1.806a15.046,15.046,0,0,1-5.216-2.787h-1.6a1.161,1.161,0,0,1-.133.329,16.654,16.654,0,0,0,3.155,2.339A1.192,1.192,0,0,1,12.9,33.548Zm10.776,1.5L23,35.886a16.413,16.413,0,0,0,8.6-4.4,1.313,1.313,0,0,1-.087-.21H29.752a15.048,15.048,0,0,1-5.331,2.844l-.467.582a.291.291,0,0,1,.009.085.281.281,0,0,1-.28.266h-.01ZM12.9,34.107a.633.633,0,1,0,.634.634A.634.634,0,0,0,12.9,34.107Zm1.45-2.8c.47.649,1.412,1.919,2.45,3.134a13.861,13.861,0,0,0,3.151-1.981.28.28,0,0,1,.215-.1.277.277,0,0,1,.171.058,18.251,18.251,0,0,0,3.122,2.007l1.993-2.487.056-.07.478-.6h-1.36a1.194,1.194,0,1,1-.056-.56h1.939l1.836-2.272H25.969a1.192,1.192,0,1,1,.03-.56h2.8l2.986-3.693V18.1l-2.01-1.823-3.3,2.385a3.061,3.061,0,0,1,1.512,2.962c0,1.71-.876,3.049-1.993,3.049s-1.994-1.339-1.994-3.049a3.034,3.034,0,0,1,1.535-2.97L29.346,15.9,27.7,14.4c-.1-.08-.184-.16-.262-.238l-.026-.023a3.7,3.7,0,1,1,5.133.139,3.828,3.828,0,0,1-.682.493l-1.625,1.174,1.892,1.715A6.46,6.46,0,1,0,23.59,11.4v.281c0,.05,0,.291,0,.293H16.676c0-.01.016-.642.015-.664a6.46,6.46,0,1,0-8.534,6.347l1.892-1.715L8.424,14.773a3.782,3.782,0,0,1-.679-.491,3.7,3.7,0,1,1,6.192-2.738,3.678,3.678,0,0,1-1.064,2.594l-.024.025c-.083.082-.171.162-.262.238l-1.651,1.5,3.82,2.759a3.043,3.043,0,0,1,1.534,2.973c0,1.71-.876,3.049-1.993,3.049S12.3,23.338,12.3,21.628a3.061,3.061,0,0,1,1.513-2.962l-3.3-2.385L8.5,18.1v6.086l2.974,3.677h2.808a1.193,1.193,0,1,1,0,.561H11.93l1.878,2.323h1.858a1.193,1.193,0,1,1,0,.559Zm12.333-.035.011.009-1.625,2.03a14.523,14.523,0,0,0,3.77-2.039Zm-15.2.035a14.514,14.514,0,0,0,3.647,1.976c-.724-.927-1.272-1.691-1.474-1.976Zm11.956-.834a.633.633,0,1,0,.634.633A.633.633,0,0,0,23.441,30.474ZM16.825,30.4a.633.633,0,1,0,.634.633A.633.633,0,0,0,16.825,30.4ZM7.8,30.4a.633.633,0,1,0,.624.735.3.3,0,0,1-.019-.1.3.3,0,0,1,.019-.1A.629.629,0,0,0,7.8,30.4Zm24.855-.106a.633.633,0,1,0,.633.634A.634.634,0,0,0,32.658,30.289ZM15.445,27.513a.633.633,0,1,0,.633.633A.634.634,0,0,0,15.445,27.513Zm-12.23,0a.633.633,0,1,0,.633.633A.634.634,0,0,0,3.215,27.513Zm33.919-.044a.633.633,0,1,0,.633.633A.634.634,0,0,0,37.134,27.469Zm-12.308,0a.633.633,0,1,0,.616.774.3.3,0,0,1-.012-.081.281.281,0,0,1,.025-.116A.637.637,0,0,0,24.826,27.469ZM37.068,11.692h0a6.922,6.922,0,0,1-.665,2.839,17.123,17.123,0,0,1-.558,11.751,17.246,17.246,0,0,1-.778,1.6h.9a1.193,1.193,0,0,1,1.408-.95,18.537,18.537,0,0,0,1.478-7.285,18.914,18.914,0,0,0-.16-2.441,1.192,1.192,0,0,1-.437-2.252A18.642,18.642,0,0,0,37.068,11.692ZM34.442,24.451c-.117.353-.253.712-.4,1.068a15.083,15.083,0,0,1-1.258,2.362h1.637a16.474,16.474,0,0,0,1.606-12.656A7.112,7.112,0,0,1,34.916,16.6a15.2,15.2,0,0,1,.1,5.585,1.193,1.193,0,0,1-.514,2.27h-.056Zm-.015-7.424A7.008,7.008,0,0,1,32.34,18.18v6.207l-2.825,3.495H32.1a14.494,14.494,0,0,0,1.8-3.591,1.192,1.192,0,0,1,.561-2.224,14.563,14.563,0,0,0-.035-5.04ZM5.847,17.02A14.5,14.5,0,0,0,8.164,27.866h2.593L7.943,24.387V18.18A7.012,7.012,0,0,1,5.847,17.02ZM4.253,15.214a16.475,16.475,0,0,0-.606,4.433,16.655,16.655,0,0,0,.17,2.369A1.192,1.192,0,0,1,4.3,24.247a16.389,16.389,0,0,0,1.546,3.619H7.481A15.129,15.129,0,0,1,5.359,16.589,7.07,7.07,0,0,1,4.253,15.214ZM3.215,26.953a1.189,1.189,0,0,1,1.159.913H5.2a17.014,17.014,0,0,1-.769-1.584A16.813,16.813,0,0,1,3.76,24.4H3.722A1.193,1.193,0,0,1,3.265,22.1a17.335,17.335,0,0,1-.175-2.456,17.027,17.027,0,0,1,.786-5.13,6.939,6.939,0,0,1-.66-2.85,18.555,18.555,0,0,0-1.652,5.711,1.192,1.192,0,0,1-.137,2.3,18.537,18.537,0,0,0,1.5,7.309A1.21,1.21,0,0,1,3.215,26.953Zm22.773-7.814c-.778,0-1.435,1.14-1.435,2.489s.657,2.489,1.435,2.489,1.434-1.14,1.434-2.489S26.765,19.139,25.988,19.139Zm-11.691,0c-.778,0-1.435,1.14-1.435,2.489s.657,2.489,1.435,2.489,1.434-1.14,1.434-2.489S15.074,19.139,14.3,19.139Zm20.2,3.487a.633.633,0,1,0,.634.633A.633.633,0,0,0,34.5,22.626ZM3.722,22.57a.633.633,0,1,0,.634.634A.634.634,0,0,0,3.722,22.57ZM1.193,17.877a.633.633,0,1,0,.633.634A.634.634,0,0,0,1.193,17.877Zm37.6-2.492a.633.633,0,1,0,.633.633A.634.634,0,0,0,38.789,15.385ZM30.049,8.4a3.14,3.14,0,0,0-2.233,5.351l.252.229.012.01.012.01,1.717,1.559,2.374-1.714A3.14,3.14,0,0,0,30.049,8.4Zm-19.814,0A3.14,3.14,0,0,0,8.1,13.847l2.374,1.714L12.191,14a.073.073,0,0,1,.011-.011l.012-.01.253-.229A3.141,3.141,0,0,0,10.235,8.4Zm6.43-2.862a14.5,14.5,0,0,0-1.93.621A7.022,7.022,0,0,1,17.253,11.4H23.03a7.022,7.022,0,0,1,2.515-5.234,14.4,14.4,0,0,0-5.41-1.045c-.394,0-.794.016-1.187.048a1.192,1.192,0,0,1-2.284.373Zm3.471-.982a15,15,0,0,1,5.873,1.186l.017.007.038.016a7.031,7.031,0,0,1,1.559-.811,16.466,16.466,0,0,0-14.968,0,6.985,6.985,0,0,1,1.561.81l.036-.016.012-.005a15.106,15.106,0,0,1,2.307-.761,1.193,1.193,0,0,1,2.292-.371C19.295,4.576,19.724,4.558,20.136,4.558ZM17.76,4.435a.633.633,0,1,0,.634.633A.633.633,0,0,0,17.76,4.435ZM20.136,2.6a16.95,16.95,0,0,1,6.636,1.339,17.253,17.253,0,0,1,1.611.785,7.075,7.075,0,0,1,2.906-.091,18.644,18.644,0,0,0-5.635-2.866,1.193,1.193,0,0,1-2.237-.543A18.752,18.752,0,0,0,20.136.936a18.534,18.534,0,0,0-11.156,3.7,7.053,7.053,0,0,1,2.914.085A17.19,17.19,0,0,1,13.5,3.939,16.948,16.948,0,0,1,20.136,2.6ZM24.609.56a.633.633,0,1,0,.633.634A.634.634,0,0,0,24.609.56Z" transform="translate(0 0)" fill="none"/>
    <g id="Group_5-2" data-name="Group 5" clip-path="url(#logo-path)">
      <path id="Fill_3" data-name="Fill 3" d="M20.136,38.916a19.3,19.3,0,0,1-16.673-9.6,1.192,1.192,0,0,1-1.036-2.061l-.046-.1A19.146,19.146,0,0,1,.867,19.657,1.192,1.192,0,0,1,1,17.332a19.107,19.107,0,0,1,1.376-5.187,19.345,19.345,0,0,1,.968-1.967A7.017,7.017,0,0,1,7.543,5.061,19.2,19.2,0,0,1,20.136.376a19.461,19.461,0,0,1,3.4.3,1.193,1.193,0,0,1,2.267.519s0,.009,0,.014,0,.01,0,.015a19.231,19.231,0,0,1,6.923,3.831,7.007,7.007,0,0,1,4.217,5.154A19.212,19.212,0,0,1,38.8,14.825a1.193,1.193,0,0,1,.443,2.3,19.685,19.685,0,0,1,.164,2.525,19.145,19.145,0,0,1-1.514,7.5l-.012.025a1.192,1.192,0,0,1-1.038,2.085,19.409,19.409,0,0,1-6.315,6.62,1.192,1.192,0,0,1-2.041,1.139c-.3.144-.579.27-.849.384A19.161,19.161,0,0,1,20.136,38.916ZM4.374,28.427a1.2,1.2,0,0,1-.4.638,18.8,18.8,0,0,0,16.16,9.292,18.509,18.509,0,0,0,8.094-1.842,1.177,1.177,0,0,1-.031-.272,1.193,1.193,0,0,1,2.03-.849,18.91,18.91,0,0,0,6.11-6.4,1.194,1.194,0,0,1-.349-.549H29.061l-1.837,2.272h4.26a1.194,1.194,0,1,1,.5,1.191,16.976,16.976,0,0,1-9.515,4.63,4.393,4.393,0,0,1-2.115,1.219,1.507,1.507,0,0,1-.317.031,1.125,1.125,0,0,1-.369-.05,5.6,5.6,0,0,1-1.637-1.171,16.951,16.951,0,0,1-4.2-1.076,1.192,1.192,0,0,1-2.093-1.006,17.026,17.026,0,0,1-3.3-2.441,1.193,1.193,0,1,1,.527-1.291h4.126L11.21,28.427Zm15.818,4.587a16.453,16.453,0,0,1-3.015,1.865A8.851,8.851,0,0,0,19.86,37.21a.865.865,0,0,0,.179.015.847.847,0,0,0,.185-.018,3.869,3.869,0,0,0,1.925-1.148l.248-.31.058-.073.639-.8A19.605,19.605,0,0,1,20.192,33.014Zm9.2,2.6a.633.633,0,1,0,.633.633A.634.634,0,0,0,29.391,35.609ZM12.9,33.548a1.2,1.2,0,0,1,1.193,1.193,1.228,1.228,0,0,1-.023.238,16.407,16.407,0,0,0,3.293.923c-.484-.507-1.016-1.115-1.582-1.806a15.046,15.046,0,0,1-5.216-2.787h-1.6a1.161,1.161,0,0,1-.133.329,16.654,16.654,0,0,0,3.155,2.339A1.192,1.192,0,0,1,12.9,33.548Zm10.776,1.5L23,35.886a16.413,16.413,0,0,0,8.6-4.4,1.313,1.313,0,0,1-.087-.21H29.752a15.048,15.048,0,0,1-5.331,2.844l-.467.582a.291.291,0,0,1,.009.085.281.281,0,0,1-.28.266h-.01ZM12.9,34.107a.633.633,0,1,0,.634.634A.634.634,0,0,0,12.9,34.107Zm1.45-2.8c.47.649,1.412,1.919,2.45,3.134a13.861,13.861,0,0,0,3.151-1.981.28.28,0,0,1,.215-.1.277.277,0,0,1,.171.058,18.251,18.251,0,0,0,3.122,2.007l1.993-2.487.056-.07.478-.6h-1.36a1.194,1.194,0,1,1-.056-.56h1.939l1.836-2.272H25.969a1.192,1.192,0,1,1,.03-.56h2.8l2.986-3.693V18.1l-2.01-1.823-3.3,2.385a3.061,3.061,0,0,1,1.512,2.962c0,1.71-.876,3.049-1.993,3.049s-1.994-1.339-1.994-3.049a3.034,3.034,0,0,1,1.535-2.97L29.346,15.9,27.7,14.4c-.1-.08-.184-.16-.262-.238l-.026-.023a3.7,3.7,0,1,1,5.133.139,3.828,3.828,0,0,1-.682.493l-1.625,1.174,1.892,1.715A6.46,6.46,0,1,0,23.59,11.4v.281c0,.05,0,.291,0,.293H16.676c0-.01.016-.642.015-.664a6.46,6.46,0,1,0-8.534,6.347l1.892-1.715L8.424,14.773a3.782,3.782,0,0,1-.679-.491,3.7,3.7,0,1,1,6.192-2.738,3.678,3.678,0,0,1-1.064,2.594l-.024.025c-.083.082-.171.162-.262.238l-1.651,1.5,3.82,2.759a3.043,3.043,0,0,1,1.534,2.973c0,1.71-.876,3.049-1.993,3.049S12.3,23.338,12.3,21.628a3.061,3.061,0,0,1,1.513-2.962l-3.3-2.385L8.5,18.1v6.086l2.974,3.677h2.808a1.193,1.193,0,1,1,0,.561H11.93l1.878,2.323h1.858a1.193,1.193,0,1,1,0,.559Zm12.333-.035.011.009-1.625,2.03a14.523,14.523,0,0,0,3.77-2.039Zm-15.2.035a14.514,14.514,0,0,0,3.647,1.976c-.724-.927-1.272-1.691-1.474-1.976Zm11.956-.834a.633.633,0,1,0,.634.633A.633.633,0,0,0,23.441,30.474ZM16.825,30.4a.633.633,0,1,0,.634.633A.633.633,0,0,0,16.825,30.4ZM7.8,30.4a.633.633,0,1,0,.624.735.3.3,0,0,1-.019-.1.3.3,0,0,1,.019-.1A.629.629,0,0,0,7.8,30.4Zm24.855-.106a.633.633,0,1,0,.633.634A.634.634,0,0,0,32.658,30.289ZM15.445,27.513a.633.633,0,1,0,.633.633A.634.634,0,0,0,15.445,27.513Zm-12.23,0a.633.633,0,1,0,.633.633A.634.634,0,0,0,3.215,27.513Zm33.919-.044a.633.633,0,1,0,.633.633A.634.634,0,0,0,37.134,27.469Zm-12.308,0a.633.633,0,1,0,.616.774.3.3,0,0,1-.012-.081.281.281,0,0,1,.025-.116A.637.637,0,0,0,24.826,27.469ZM37.068,11.692h0a6.922,6.922,0,0,1-.665,2.839,17.123,17.123,0,0,1-.558,11.751,17.246,17.246,0,0,1-.778,1.6h.9a1.193,1.193,0,0,1,1.408-.95,18.537,18.537,0,0,0,1.478-7.285,18.914,18.914,0,0,0-.16-2.441,1.192,1.192,0,0,1-.437-2.252A18.642,18.642,0,0,0,37.068,11.692ZM34.442,24.451c-.117.353-.253.712-.4,1.068a15.083,15.083,0,0,1-1.258,2.362h1.637a16.474,16.474,0,0,0,1.606-12.656A7.112,7.112,0,0,1,34.916,16.6a15.2,15.2,0,0,1,.1,5.585,1.193,1.193,0,0,1-.514,2.27h-.056Zm-.015-7.424A7.008,7.008,0,0,1,32.34,18.18v6.207l-2.825,3.495H32.1a14.494,14.494,0,0,0,1.8-3.591,1.192,1.192,0,0,1,.561-2.224,14.563,14.563,0,0,0-.035-5.04ZM5.847,17.02A14.5,14.5,0,0,0,8.164,27.866h2.593L7.943,24.387V18.18A7.012,7.012,0,0,1,5.847,17.02ZM4.253,15.214a16.475,16.475,0,0,0-.606,4.433,16.655,16.655,0,0,0,.17,2.369A1.192,1.192,0,0,1,4.3,24.247a16.389,16.389,0,0,0,1.546,3.619H7.481A15.129,15.129,0,0,1,5.359,16.589,7.07,7.07,0,0,1,4.253,15.214ZM3.215,26.953a1.189,1.189,0,0,1,1.159.913H5.2a17.014,17.014,0,0,1-.769-1.584A16.813,16.813,0,0,1,3.76,24.4H3.722A1.193,1.193,0,0,1,3.265,22.1a17.335,17.335,0,0,1-.175-2.456,17.027,17.027,0,0,1,.786-5.13,6.939,6.939,0,0,1-.66-2.85,18.555,18.555,0,0,0-1.652,5.711,1.192,1.192,0,0,1-.137,2.3,18.537,18.537,0,0,0,1.5,7.309A1.21,1.21,0,0,1,3.215,26.953Zm22.773-7.814c-.778,0-1.435,1.14-1.435,2.489s.657,2.489,1.435,2.489,1.434-1.14,1.434-2.489S26.765,19.139,25.988,19.139Zm-11.691,0c-.778,0-1.435,1.14-1.435,2.489s.657,2.489,1.435,2.489,1.434-1.14,1.434-2.489S15.074,19.139,14.3,19.139Zm20.2,3.487a.633.633,0,1,0,.634.633A.633.633,0,0,0,34.5,22.626ZM3.722,22.57a.633.633,0,1,0,.634.634A.634.634,0,0,0,3.722,22.57ZM1.193,17.877a.633.633,0,1,0,.633.634A.634.634,0,0,0,1.193,17.877Zm37.6-2.492a.633.633,0,1,0,.633.633A.634.634,0,0,0,38.789,15.385ZM30.049,8.4a3.14,3.14,0,0,0-2.233,5.351l.252.229.012.01.012.01,1.717,1.559,2.374-1.714A3.14,3.14,0,0,0,30.049,8.4Zm-19.814,0A3.14,3.14,0,0,0,8.1,13.847l2.374,1.714L12.191,14a.073.073,0,0,1,.011-.011l.012-.01.253-.229A3.141,3.141,0,0,0,10.235,8.4Zm6.43-2.862a14.5,14.5,0,0,0-1.93.621A7.022,7.022,0,0,1,17.253,11.4H23.03a7.022,7.022,0,0,1,2.515-5.234,14.4,14.4,0,0,0-5.41-1.045c-.394,0-.794.016-1.187.048a1.192,1.192,0,0,1-2.284.373Zm3.471-.982a15,15,0,0,1,5.873,1.186l.017.007.038.016a7.031,7.031,0,0,1,1.559-.811,16.466,16.466,0,0,0-14.968,0,6.985,6.985,0,0,1,1.561.81l.036-.016.012-.005a15.106,15.106,0,0,1,2.307-.761,1.193,1.193,0,0,1,2.292-.371C19.295,4.576,19.724,4.558,20.136,4.558ZM17.76,4.435a.633.633,0,1,0,.634.633A.633.633,0,0,0,17.76,4.435ZM20.136,2.6a16.95,16.95,0,0,1,6.636,1.339,17.253,17.253,0,0,1,1.611.785,7.075,7.075,0,0,1,2.906-.091,18.644,18.644,0,0,0-5.635-2.866,1.193,1.193,0,0,1-2.237-.543A18.752,18.752,0,0,0,20.136.936a18.534,18.534,0,0,0-11.156,3.7,7.053,7.053,0,0,1,2.914.085A17.19,17.19,0,0,1,13.5,3.939,16.948,16.948,0,0,1,20.136,2.6ZM24.609.56a.633.633,0,1,0,.633.634A.634.634,0,0,0,24.609.56Z" transform="translate(0 0)" fill="url(#linear-gradient)"/>
    </g>
  </g>
</svg>
