<svg id="icon" xmlns="http://www.w3.org/2000/svg" width="48" height="48" viewBox="0 0 48 48">
  <rect id="surface" width="48" height="48" rx="24" fill="#00f5be"/>
  <g id="stack" transform="translate(12 12)">
    <rect id="frame" width="24" height="24" fill="none"/>
    <path id="shape" d="M8.05,19.811.8,15.557A1.379,1.379,0,0,1,0,14.37a1.3,1.3,0,0,1,.651-1.081l7.892,4.587a1.4,1.4,0,0,0,.66.247,1.372,1.372,0,0,0,.65-.247l7.9-4.587a1.3,1.3,0,0,1,.65,1.081,1.38,1.38,0,0,1-.8,1.186l-7.251,4.254A2.29,2.29,0,0,1,9.2,20.25,2.289,2.289,0,0,1,8.05,19.811Zm0-4.157L.8,11.4A1.378,1.378,0,0,1,0,10.221a1.3,1.3,0,0,1,.651-1.09L8.543,13.72a1.4,1.4,0,0,0,.66.247,1.372,1.372,0,0,0,.65-.247l7.9-4.588a1.3,1.3,0,0,1,.65,1.09,1.372,1.372,0,0,1-.8,1.178l-7.251,4.254a2.29,2.29,0,0,1-1.151.439A2.289,2.289,0,0,1,8.05,15.654Zm-.114-4.369L1.151,7.348C.378,6.89.009,6.486.009,5.863S.378,4.825,1.151,4.369L7.936.431A2.578,2.578,0,0,1,9.2,0a2.522,2.522,0,0,1,1.256.431l6.794,3.937c.773.456,1.142.861,1.142,1.494s-.369,1.028-1.142,1.485l-6.794,3.937a2.522,2.522,0,0,1-1.256.431A2.578,2.578,0,0,1,7.936,11.285Z" transform="translate(2.798 2.027)" fill="#141029" opacity="0.8"/>
  </g>
</svg>
