<svg xmlns="http://www.w3.org/2000/svg" xmlns:xlink="http://www.w3.org/1999/xlink" width="401" height="231" viewBox="0 0 401 231">
  <defs>
    <linearGradient id="linear-gradient-timer" x1="0.371" x2="0.371" y2="1" gradientUnits="objectBoundingBox">
      <stop offset="0" stop-color="#383a3d"/>
      <stop offset="0.518" stop-color="#2d2f33"/>
      <stop offset="1" stop-color="#282a2e"/>
    </linearGradient>
    <filter id="Oval-timer" x="85" y="0" width="231" height="231" filterUnits="userSpaceOnUse">
      <feOffset dx="8" dy="8" input="SourceAlpha"/>
      <feGaussianBlur stdDeviation="12" result="blur"/>
      <feFlood flood-color="#090d14" flood-opacity="0.4"/>
      <feComposite operator="in" in2="blur"/>
      <feComposite in="SourceGraphic"/>
    </filter>
    <filter id="Oval-timer-2" x="85" y="0" width="231" height="231" filterUnits="userSpaceOnUse">
      <feOffset dy="-2" input="SourceAlpha"/>
      <feGaussianBlur stdDeviation="0.5" result="blur-2"/>
      <feFlood flood-color="#090d14" flood-opacity="0.8" result="color"/>
      <feComposite operator="out" in="SourceGraphic" in2="blur-2"/>
      <feComposite operator="in" in="color"/>
      <feComposite operator="in" in2="SourceGraphic"/>
    </filter>
    <filter id="Oval-timer-3" x="97" y="12" width="183" height="183" filterUnits="userSpaceOnUse">
      <feOffset dx="-4" dy="-4" input="SourceAlpha"/>
      <feGaussianBlur stdDeviation="4" result="blur-3"/>
      <feFlood flood-color="#e0e0ff" flood-opacity="0.039"/>
      <feComposite operator="in" in2="blur-3"/>
    </filter>
    <filter id="Oval-timer-4" x="111.5" y="27.5" width="162" height="162" filterUnits="userSpaceOnUse">
      <feOffset dy="1" input="SourceAlpha"/>
      <feGaussianBlur stdDeviation="0.5" result="blur-4"/>
      <feFlood flood-color="#090d14" flood-opacity="0.4"/>
      <feComposite operator="in" in2="blur-4"/>
    </filter>
    <linearGradient id="linear-gradient-timer-2" x1="0.371" x2="0.371" y2="1" gradientUnits="objectBoundingBox">
      <stop offset="0" stop-color="#090d14"/>
      <stop offset="0.53" stop-color="#282a2e"/>
      <stop offset="1" stop-color="#2d2f33"/>
    </linearGradient>
    <filter id="Shape-timer">
      <feOffset dx="8" dy="8" input="SourceAlpha"/>
      <feGaussianBlur stdDeviation="20" result="blur-5"/>
      <feFlood flood-color="#090d14" flood-opacity="0.4" result="color-2"/>
      <feComposite operator="out" in="SourceGraphic" in2="blur-5"/>
      <feComposite operator="in" in="color-2"/>
      <feComposite operator="in" in2="SourceGraphic"/>
    </filter>
    <filter id="Shape-timer-2">
      <feOffset dx="-4" dy="-4" input="SourceAlpha"/>
      <feGaussianBlur stdDeviation="4" result="blur-6"/>
      <feFlood flood-color="#e0e0ff" flood-opacity="0.039" result="color-3"/>
      <feComposite operator="out" in="SourceGraphic" in2="blur-6"/>
      <feComposite operator="in" in="color-3"/>
      <feComposite operator="in" in2="SourceGraphic"/>
    </filter>
    <filter id="Shape-timer-3">
      <feOffset dy="1" input="SourceAlpha"/>
      <feGaussianBlur stdDeviation="0.5" result="blur-7"/>
      <feFlood flood-color="#090d14" flood-opacity="0.4" result="color-4"/>
      <feComposite operator="out" in="SourceGraphic" in2="blur-7"/>
      <feComposite operator="in" in="color-4"/>
      <feComposite operator="in" in2="SourceGraphic"/>
    </filter>
    <filter id="Oval-timer-5" x="217" y="46" width="184" height="184" filterUnits="userSpaceOnUse">
      <feOffset dx="8" dy="8" input="SourceAlpha"/>
      <feGaussianBlur stdDeviation="12" result="blur-8"/>
      <feFlood flood-color="#090d14" flood-opacity="0.4"/>
      <feComposite operator="in" in2="blur-8"/>
      <feComposite in="SourceGraphic"/>
    </filter>
    <filter id="Oval-timer-6" x="217" y="46" width="184" height="184" filterUnits="userSpaceOnUse">
      <feOffset dy="-2" input="SourceAlpha"/>
      <feGaussianBlur stdDeviation="0.5" result="blur-9"/>
      <feFlood flood-color="#090d14" flood-opacity="0.8" result="color-5"/>
      <feComposite operator="out" in="SourceGraphic" in2="blur-9"/>
      <feComposite operator="in" in="color-5"/>
      <feComposite operator="in" in2="SourceGraphic"/>
    </filter>
    <filter id="Oval-timer-7" x="229" y="58" width="136" height="136" filterUnits="userSpaceOnUse">
      <feOffset dx="-4" dy="-4" input="SourceAlpha"/>
      <feGaussianBlur stdDeviation="4" result="blur-10"/>
      <feFlood flood-color="#e0e0ff" flood-opacity="0.039"/>
      <feComposite operator="in" in2="blur-10"/>
    </filter>
    <filter id="Oval-timer-8" x="243.5" y="73.5" width="115" height="115" filterUnits="userSpaceOnUse">
      <feOffset dy="1" input="SourceAlpha"/>
      <feGaussianBlur stdDeviation="0.5" result="blur-11"/>
      <feFlood flood-color="#090d14" flood-opacity="0.4"/>
      <feComposite operator="in" in2="blur-11"/>
    </filter>
    <filter id="Shape-timer-copy">
      <feOffset dx="8" dy="8" input="SourceAlpha"/>
      <feGaussianBlur stdDeviation="20" result="blur-12"/>
      <feFlood flood-color="#090d14" flood-opacity="0.4" result="color-6"/>
      <feComposite operator="out" in="SourceGraphic" in2="blur-12"/>
      <feComposite operator="in" in="color-6"/>
      <feComposite operator="in" in2="SourceGraphic"/>
    </filter>
    <filter id="Shape-timer-copy-2">
      <feOffset dx="-4" dy="-4" input="SourceAlpha"/>
      <feGaussianBlur stdDeviation="4" result="blur-13"/>
      <feFlood flood-color="#e0e0ff" flood-opacity="0.039" result="color-7"/>
      <feComposite operator="out" in="SourceGraphic" in2="blur-13"/>
      <feComposite operator="in" in="color-7"/>
      <feComposite operator="in" in2="SourceGraphic"/>
    </filter>
    <filter id="Shape-timer-copy-3">
      <feOffset dy="1" input="SourceAlpha"/>
      <feGaussianBlur stdDeviation="0.5" result="blur-14"/>
      <feFlood flood-color="#090d14" flood-opacity="0.4" result="color-8"/>
      <feComposite operator="out" in="SourceGraphic" in2="blur-14"/>
      <feComposite operator="in" in="color-8"/>
      <feComposite operator="in" in2="SourceGraphic"/>
    </filter>
    <filter id="Oval-timer-9" x="0" y="46" width="184" height="184" filterUnits="userSpaceOnUse">
      <feOffset dx="8" dy="8" input="SourceAlpha"/>
      <feGaussianBlur stdDeviation="12" result="blur-15"/>
      <feFlood flood-color="#090d14" flood-opacity="0.4"/>
      <feComposite operator="in" in2="blur-15"/>
      <feComposite in="SourceGraphic"/>
    </filter>
    <filter id="Oval-timer-10" x="0" y="46" width="184" height="184" filterUnits="userSpaceOnUse">
      <feOffset dy="-2" input="SourceAlpha"/>
      <feGaussianBlur stdDeviation="0.5" result="blur-16"/>
      <feFlood flood-color="#090d14" flood-opacity="0.8" result="color-9"/>
      <feComposite operator="out" in="SourceGraphic" in2="blur-16"/>
      <feComposite operator="in" in="color-9"/>
      <feComposite operator="in" in2="SourceGraphic"/>
    </filter>
    <filter id="Oval-timer-11" x="12" y="58" width="136" height="136" filterUnits="userSpaceOnUse">
      <feOffset dx="-4" dy="-4" input="SourceAlpha"/>
      <feGaussianBlur stdDeviation="4" result="blur-17"/>
      <feFlood flood-color="#e0e0ff" flood-opacity="0.039"/>
      <feComposite operator="in" in2="blur-17"/>
    </filter>
    <filter id="Oval-timer-12" x="26.5" y="73.5" width="115" height="115" filterUnits="userSpaceOnUse">
      <feOffset dy="1" input="SourceAlpha"/>
      <feGaussianBlur stdDeviation="0.5" result="blur-18"/>
      <feFlood flood-color="#090d14" flood-opacity="0.4"/>
      <feComposite operator="in" in2="blur-18"/>
    </filter>
    <filter id="symbol-timer">
      <feOffset dx="8" dy="8" input="SourceAlpha"/>
      <feGaussianBlur stdDeviation="20" result="blur-19"/>
      <feFlood flood-color="#090d14" flood-opacity="0.4" result="color-10"/>
      <feComposite operator="out" in="SourceGraphic" in2="blur-19"/>
      <feComposite operator="in" in="color-10"/>
      <feComposite operator="in" in2="SourceGraphic"/>
    </filter>
    <filter id="symbol-timer-2">
      <feOffset dx="-4" dy="-4" input="SourceAlpha"/>
      <feGaussianBlur stdDeviation="4" result="blur-20"/>
      <feFlood flood-color="#e0e0ff" flood-opacity="0.039" result="color-11"/>
      <feComposite operator="out" in="SourceGraphic" in2="blur-20"/>
      <feComposite operator="in" in="color-11"/>
      <feComposite operator="in" in2="SourceGraphic"/>
    </filter>
    <filter id="symbol-timer-3">
      <feOffset dy="1" input="SourceAlpha"/>
      <feGaussianBlur stdDeviation="0.5" result="blur-21"/>
      <feFlood flood-color="#090d14" flood-opacity="0.4" result="color-12"/>
      <feComposite operator="out" in="SourceGraphic" in2="blur-21"/>
      <feComposite operator="in" in="color-12"/>
      <feComposite operator="in" in2="SourceGraphic"/>
    </filter>
  </defs>
  <g id="Group_12" data-name="Group 12" transform="translate(28 28)">
    <g id="Group_4_Copy" data-name="Group 4 Copy" transform="translate(85)">
      <g id="Oval-13" data-name="Oval">
        <g data-type="innerShadowGroup">
          <g transform="matrix(1, 0, 0, 1, -113, -28)" filter="url(#Oval-timer)">
            <circle id="Oval-14" data-name="Oval" cx="79.5" cy="79.5" r="79.5" transform="translate(113 28)" fill="url(#linear-gradient-timer)"/>
          </g>
          <g transform="matrix(1, 0, 0, 1, -113, -28)" filter="url(#Oval-timer-2)">
            <circle id="Oval-15" data-name="Oval" cx="79.5" cy="79.5" r="79.5" transform="translate(113 28)" fill="#fff"/>
          </g>
        </g>
        <g transform="matrix(1, 0, 0, 1, -113, -28)" filter="url(#Oval-timer-3)">
          <circle id="Oval-16" data-name="Oval" cx="79.5" cy="79.5" r="79.5" transform="translate(113 28)" fill="#fff"/>
        </g>
        <g transform="matrix(1, 0, 0, 1, -113, -28)" filter="url(#Oval-timer-4)">
          <circle id="Oval-17" data-name="Oval" cx="79.5" cy="79.5" r="79.5" transform="translate(113 28)" fill="#fff"/>
        </g>
      </g>
      <g id="Shape-4" data-name="Shape">
        <g data-type="innerShadowGroup">
          <path id="Shape-5" data-name="Shape" d="M52.951,82H35.116V47.051c-9.78-.458-18.684-1.676-25.072-3.43A29.133,29.133,0,0,1,2.669,40.71C.9,39.615,0,38.463,0,37.286s.9-2.329,2.668-3.424a29.107,29.107,0,0,1,7.373-2.911c6.39-1.754,15.3-2.97,25.075-3.425v-10.9H10.453V0H77.606V16.625H52.944V27.536l.006,0c9.762.456,18.65,1.672,25.028,3.425a29.038,29.038,0,0,1,7.359,2.909C87.1,34.967,88,36.118,88,37.293s-.9,2.326-2.663,3.421a29.04,29.04,0,0,1-7.359,2.909c-6.377,1.753-15.265,2.969-25.028,3.426ZM34.287,43.552h0c.606.03,3.886.182,8.913.182,5.284,0,7.9-.125,8.778-.179v.009l0-.008a126.861,126.861,0,0,0,21.891-2.567,28.45,28.45,0,0,0,6.419-2.135c1.54-.8,2.32-1.641,2.32-2.5s-.78-1.7-2.319-2.5a28.428,28.428,0,0,0-6.418-2.135,126.919,126.919,0,0,0-21.894-2.567V40.637c-.51.045-3.324.263-8.706.263-4.5,0-7.785-.184-8.988-.263V29.156a127.5,127.5,0,0,0-21.938,2.564,28.479,28.479,0,0,0-6.433,2.136c-1.543.8-2.325,1.644-2.325,2.5s.782,1.7,2.325,2.506A28.464,28.464,0,0,0,12.349,41a127.3,127.3,0,0,0,21.939,2.564v-.013Z" transform="translate(36 38)" fill="url(#linear-gradient-timer-2)"/>
          <g transform="matrix(1, 0, 0, 1, -113, -28)" filter="url(#Shape-timer)">
            <path id="Shape-6" data-name="Shape" d="M52.951,82H35.116V47.051c-9.78-.458-18.684-1.676-25.072-3.43A29.133,29.133,0,0,1,2.669,40.71C.9,39.615,0,38.463,0,37.286s.9-2.329,2.668-3.424a29.107,29.107,0,0,1,7.373-2.911c6.39-1.754,15.3-2.97,25.075-3.425v-10.9H10.453V0H77.606V16.625H52.944V27.536l.006,0c9.762.456,18.65,1.672,25.028,3.425a29.038,29.038,0,0,1,7.359,2.909C87.1,34.967,88,36.118,88,37.293s-.9,2.326-2.663,3.421a29.04,29.04,0,0,1-7.359,2.909c-6.377,1.753-15.265,2.969-25.028,3.426ZM34.287,43.552h0c.606.03,3.886.182,8.913.182,5.284,0,7.9-.125,8.778-.179v.009l0-.008a126.861,126.861,0,0,0,21.891-2.567,28.45,28.45,0,0,0,6.419-2.135c1.54-.8,2.32-1.641,2.32-2.5s-.78-1.7-2.319-2.5a28.428,28.428,0,0,0-6.418-2.135,126.919,126.919,0,0,0-21.894-2.567V40.637c-.51.045-3.324.263-8.706.263-4.5,0-7.785-.184-8.988-.263V29.156a127.5,127.5,0,0,0-21.938,2.564,28.479,28.479,0,0,0-6.433,2.136c-1.543.8-2.325,1.644-2.325,2.5s.782,1.7,2.325,2.506A28.464,28.464,0,0,0,12.349,41a127.3,127.3,0,0,0,21.939,2.564v-.013Z" transform="translate(149 66)" fill="#fff"/>
          </g>
        </g>
        <g transform="matrix(1, 0, 0, 1, -113, -28)" filter="url(#Shape-timer-2)">
          <path id="Shape-7" data-name="Shape" d="M52.951,82H35.116V47.051c-9.78-.458-18.684-1.676-25.072-3.43A29.133,29.133,0,0,1,2.669,40.71C.9,39.615,0,38.463,0,37.286s.9-2.329,2.668-3.424a29.107,29.107,0,0,1,7.373-2.911c6.39-1.754,15.3-2.97,25.075-3.425v-10.9H10.453V0H77.606V16.625H52.944V27.536l.006,0c9.762.456,18.65,1.672,25.028,3.425a29.038,29.038,0,0,1,7.359,2.909C87.1,34.967,88,36.118,88,37.293s-.9,2.326-2.663,3.421a29.04,29.04,0,0,1-7.359,2.909c-6.377,1.753-15.265,2.969-25.028,3.426ZM34.287,43.552h0c.606.03,3.886.182,8.913.182,5.284,0,7.9-.125,8.778-.179v.009l0-.008a126.861,126.861,0,0,0,21.891-2.567,28.45,28.45,0,0,0,6.419-2.135c1.54-.8,2.32-1.641,2.32-2.5s-.78-1.7-2.319-2.5a28.428,28.428,0,0,0-6.418-2.135,126.919,126.919,0,0,0-21.894-2.567V40.637c-.51.045-3.324.263-8.706.263-4.5,0-7.785-.184-8.988-.263V29.156a127.5,127.5,0,0,0-21.938,2.564,28.479,28.479,0,0,0-6.433,2.136c-1.543.8-2.325,1.644-2.325,2.5s.782,1.7,2.325,2.506A28.464,28.464,0,0,0,12.349,41a127.3,127.3,0,0,0,21.939,2.564v-.013Z" transform="translate(149 66)" fill="#fff"/>
        </g>
        <g transform="matrix(1, 0, 0, 1, -113, -28)" filter="url(#Shape-timer-3)">
          <path id="Shape-8" data-name="Shape" d="M52.951,82H35.116V47.051c-9.78-.458-18.684-1.676-25.072-3.43A29.133,29.133,0,0,1,2.669,40.71C.9,39.615,0,38.463,0,37.286s.9-2.329,2.668-3.424a29.107,29.107,0,0,1,7.373-2.911c6.39-1.754,15.3-2.97,25.075-3.425v-10.9H10.453V0H77.606V16.625H52.944V27.536l.006,0c9.762.456,18.65,1.672,25.028,3.425a29.038,29.038,0,0,1,7.359,2.909C87.1,34.967,88,36.118,88,37.293s-.9,2.326-2.663,3.421a29.04,29.04,0,0,1-7.359,2.909c-6.377,1.753-15.265,2.969-25.028,3.426ZM34.287,43.552h0c.606.03,3.886.182,8.913.182,5.284,0,7.9-.125,8.778-.179v.009l0-.008a126.861,126.861,0,0,0,21.891-2.567,28.45,28.45,0,0,0,6.419-2.135c1.54-.8,2.32-1.641,2.32-2.5s-.78-1.7-2.319-2.5a28.428,28.428,0,0,0-6.418-2.135,126.919,126.919,0,0,0-21.894-2.567V40.637c-.51.045-3.324.263-8.706.263-4.5,0-7.785-.184-8.988-.263V29.156a127.5,127.5,0,0,0-21.938,2.564,28.479,28.479,0,0,0-6.433,2.136c-1.543.8-2.325,1.644-2.325,2.5s.782,1.7,2.325,2.506A28.464,28.464,0,0,0,12.349,41a127.3,127.3,0,0,0,21.939,2.564v-.013Z" transform="translate(149 66)" fill="#fff"/>
        </g>
      </g>
    </g>
    <g id="Group_3" data-name="Group 3" transform="translate(217 46)">
      <g id="Oval-18" data-name="Oval">
        <g data-type="innerShadowGroup">
          <g transform="matrix(1, 0, 0, 1, -245, -74)" filter="url(#Oval-timer-5)">
            <circle id="Oval-19" data-name="Oval" cx="56" cy="56" r="56" transform="translate(245 74)" fill="url(#linear-gradient-timer)"/>
          </g>
          <g transform="matrix(1, 0, 0, 1, -245, -74)" filter="url(#Oval-timer-6)">
            <circle id="Oval-20" data-name="Oval" cx="56" cy="56" r="56" transform="translate(245 74)" fill="#fff"/>
          </g>
        </g>
        <g transform="matrix(1, 0, 0, 1, -245, -74)" filter="url(#Oval-timer-7)">
          <circle id="Oval-21" data-name="Oval" cx="56" cy="56" r="56" transform="translate(245 74)" fill="#fff"/>
        </g>
        <g transform="matrix(1, 0, 0, 1, -245, -74)" filter="url(#Oval-timer-8)">
          <circle id="Oval-22" data-name="Oval" cx="56" cy="56" r="56" transform="translate(245 74)" fill="#fff"/>
        </g>
      </g>
      <g id="Shape_Copy-4" data-name="Shape Copy">
        <g data-type="innerShadowGroup">
          <path id="Shape_Copy-5" data-name="Shape Copy" d="M34.5,55a2.524,2.524,0,0,1-1.776-.74A2.5,2.5,0,0,1,34.5,50a2.5,2.5,0,1,1,0,5Zm-12,0A2.5,2.5,0,1,1,25,52.5,2.5,2.5,0,0,1,22.5,55ZM48,53a3,3,0,1,1,3-3A3,3,0,0,1,48,53ZM28.5,51a2.545,2.545,0,0,1-1.778-.737A2.5,2.5,0,1,1,28.5,51Zm10-2A2.5,2.5,0,1,1,41,46.5,2.5,2.5,0,0,1,38.5,49ZM19,49a2,2,0,1,1,2-2A2.012,2.012,0,0,1,19,49Zm13.5-4A2.5,2.5,0,1,1,35,42.5a2.451,2.451,0,0,1-.725,1.761A2.521,2.521,0,0,1,32.5,45ZM23,45a2.011,2.011,0,0,1-1.421-.59A1.961,1.961,0,0,1,21,43a2,2,0,1,1,2,2Zm-6.5-1a1.511,1.511,0,0,1-1.065-.444,1.5,1.5,0,0,1,0-2.113,1.506,1.506,0,0,1,2.132,0,1.5,1.5,0,0,1,0,2.115A1.527,1.527,0,0,1,16.5,44ZM42,41a1.015,1.015,0,0,1-.714-.293,1.009,1.009,0,0,1,0-1.411A1,1,0,0,1,43,40a.977.977,0,0,1-.29.7A1.021,1.021,0,0,1,42,41Zm3-1a1,1,0,1,1,1-1A1.008,1.008,0,0,1,45,40ZM21.5,40A1.5,1.5,0,1,1,23,38.5,1.5,1.5,0,0,1,21.5,40ZM29,39a2,2,0,0,1-2-2,1.955,1.955,0,0,1,.579-1.409A2.043,2.043,0,0,1,29,35a2,2,0,0,1,2,2,1.95,1.95,0,0,1-.578,1.409A2.017,2.017,0,0,1,29,39ZM15.5,39A1.5,1.5,0,1,1,17,37.5,1.5,1.5,0,0,1,15.5,39Zm34-1A1.5,1.5,0,1,1,51,36.5,1.51,1.51,0,0,1,49.5,38Zm-11,0A1.5,1.5,0,1,1,40,36.5,1.511,1.511,0,0,1,38.5,38Zm4-2a1.518,1.518,0,0,1-1.067-.44A1.485,1.485,0,0,1,41,34.5,1.5,1.5,0,0,1,42.5,33a1.517,1.517,0,0,1,1.066.441A1.468,1.468,0,0,1,44,34.5,1.5,1.5,0,0,1,42.5,36Zm10-1A1.5,1.5,0,1,1,54,33.5,1.5,1.5,0,0,1,52.5,35Zm-18,0A1.5,1.5,0,1,1,36,33.5,1.51,1.51,0,0,1,34.5,35Zm-14,0a1.525,1.525,0,0,1-1.068-.442A1.461,1.461,0,0,1,19,33.5a1.48,1.48,0,0,1,.433-1.057A1.533,1.533,0,0,1,20.5,32a1.5,1.5,0,0,1,0,3Zm-5,0A1.5,1.5,0,1,1,17,33.5a1.48,1.48,0,0,1-.434,1.055A1.535,1.535,0,0,1,15.5,35Zm10-1a1.529,1.529,0,0,1-1.066-.444A1.478,1.478,0,0,1,24,32.5,1.5,1.5,0,1,1,25.5,34ZM3,33a3,3,0,1,1,3-3A3,3,0,0,1,3,33Zm42.5-1A1.5,1.5,0,1,1,47,30.5,1.5,1.5,0,0,1,45.5,32ZM55,31a2.039,2.039,0,0,1-1.422-.59A1.978,1.978,0,0,1,53,29a2,2,0,1,1,2,2ZM37.5,31a1.511,1.511,0,0,1-1.066-.443A1.466,1.466,0,0,1,36,29.5a1.5,1.5,0,0,1,2.566-1.057,1.5,1.5,0,0,1,0,2.112A1.513,1.513,0,0,1,37.5,31Zm-17,0A1.5,1.5,0,1,1,22,29.5,1.507,1.507,0,0,1,20.5,31ZM16,31a1,1,0,1,1,1-1A1,1,0,0,1,16,31Zm8.5-2a1.5,1.5,0,0,1-1.065-.442A1.484,1.484,0,0,1,23,27.5a1.5,1.5,0,0,1,2.565-1.059A1.469,1.469,0,0,1,26,27.5,1.5,1.5,0,0,1,24.5,29ZM49,28a2.035,2.035,0,0,1-1.423-.59A1.947,1.947,0,0,1,47,26a2,2,0,0,1,4,0,1.955,1.955,0,0,1-.579,1.408A2.02,2.02,0,0,1,49,28Zm-8-1a2,2,0,1,1,0-4,2.032,2.032,0,0,1,1.42.59A2,2,0,0,1,41,27ZM11.5,27A2.788,2.788,0,0,1,9,24a3.261,3.261,0,0,1,.724-2.113A2.331,2.331,0,0,1,11.5,21,2.788,2.788,0,0,1,14,24,2.788,2.788,0,0,1,11.5,27Zm46-2A2.5,2.5,0,0,1,55,22.5a2.45,2.45,0,0,1,.725-1.76A2.5,2.5,0,1,1,57.5,25Zm-39-1A2.5,2.5,0,1,1,21,21.5,2.5,2.5,0,0,1,18.5,24Zm33-1A2.5,2.5,0,1,1,54,20.5,2.5,2.5,0,0,1,51.5,23Zm-17,0A1.5,1.5,0,1,1,36,21.5,1.513,1.513,0,0,1,34.5,23Zm9-1A2.5,2.5,0,1,1,46,19.5a2.446,2.446,0,0,1-.724,1.761A2.548,2.548,0,0,1,43.5,22ZM30.507,22A1.5,1.5,0,1,1,32,20.5,1.505,1.505,0,0,1,30.507,22ZM24,22a2.033,2.033,0,0,1-1.423-.59,2.006,2.006,0,0,1,0-2.817A2,2,0,0,1,26,20a1.957,1.957,0,0,1-.579,1.408A2.016,2.016,0,0,1,24,22ZM7.5,20a2.515,2.515,0,0,1-1.777-.738,2.508,2.508,0,0,1,0-3.523A2.5,2.5,0,1,1,7.5,20Zm28-2A1.5,1.5,0,1,1,37,16.5,1.5,1.5,0,0,1,35.5,18Zm-20-1A2.5,2.5,0,1,1,18,14.5,2.5,2.5,0,0,1,15.5,17Zm16-1a1.534,1.534,0,0,1-1.067-.444A1.463,1.463,0,0,1,30,14.5,1.5,1.5,0,1,1,31.5,16Zm21-1A2.5,2.5,0,1,1,55,12.5,2.5,2.5,0,0,1,52.5,15Zm-26,0a1.531,1.531,0,0,1-1.065-.443A1.487,1.487,0,0,1,25,13.5,1.5,1.5,0,1,1,26.5,15ZM22,15a2,2,0,1,1,2-2A2.012,2.012,0,0,1,22,15Zm22.5-1A2.788,2.788,0,0,1,42,11a2.787,2.787,0,0,1,2.5-3A2.788,2.788,0,0,1,47,11a3.256,3.256,0,0,1-.725,2.112A2.334,2.334,0,0,1,44.5,14ZM37,14a1.015,1.015,0,0,1-.713-.294A.976.976,0,0,1,36,13a.989.989,0,0,1,.29-.7,1,1,0,0,1,1.421,0,1,1,0,0,1,0,1.409A1.026,1.026,0,0,1,37,14Zm-2.5-2A1.5,1.5,0,1,1,36,10.5,1.5,1.5,0,0,1,34.5,12Zm-3.992-2A1.5,1.5,0,1,1,32,8.5,1.506,1.506,0,0,1,30.508,10ZM15,10a2.3,2.3,0,0,1-2-2.5A2.3,2.3,0,0,1,15,5a2.294,2.294,0,0,1,2,2.5A2.3,2.3,0,0,1,15,10ZM25.5,9A1.507,1.507,0,0,1,24,7.5a1.482,1.482,0,0,1,.435-1.057A1.523,1.523,0,0,1,25.5,6a1.5,1.5,0,1,1,0,3ZM21,9a2,2,0,1,1,2-2A2,2,0,0,1,21,9ZM43,6a3,3,0,1,1,3-3A3,3,0,0,1,43,6Z" transform="translate(26 29)" fill="url(#linear-gradient-timer-2)"/>
          <g transform="matrix(1, 0, 0, 1, -245, -74)" filter="url(#Shape-timer-copy)">
            <path id="Shape_Copy-6" data-name="Shape Copy" d="M34.5,55a2.524,2.524,0,0,1-1.776-.74A2.5,2.5,0,0,1,34.5,50a2.5,2.5,0,1,1,0,5Zm-12,0A2.5,2.5,0,1,1,25,52.5,2.5,2.5,0,0,1,22.5,55ZM48,53a3,3,0,1,1,3-3A3,3,0,0,1,48,53ZM28.5,51a2.545,2.545,0,0,1-1.778-.737A2.5,2.5,0,1,1,28.5,51Zm10-2A2.5,2.5,0,1,1,41,46.5,2.5,2.5,0,0,1,38.5,49ZM19,49a2,2,0,1,1,2-2A2.012,2.012,0,0,1,19,49Zm13.5-4A2.5,2.5,0,1,1,35,42.5a2.451,2.451,0,0,1-.725,1.761A2.521,2.521,0,0,1,32.5,45ZM23,45a2.011,2.011,0,0,1-1.421-.59A1.961,1.961,0,0,1,21,43a2,2,0,1,1,2,2Zm-6.5-1a1.511,1.511,0,0,1-1.065-.444,1.5,1.5,0,0,1,0-2.113,1.506,1.506,0,0,1,2.132,0,1.5,1.5,0,0,1,0,2.115A1.527,1.527,0,0,1,16.5,44ZM42,41a1.015,1.015,0,0,1-.714-.293,1.009,1.009,0,0,1,0-1.411A1,1,0,0,1,43,40a.977.977,0,0,1-.29.7A1.021,1.021,0,0,1,42,41Zm3-1a1,1,0,1,1,1-1A1.008,1.008,0,0,1,45,40ZM21.5,40A1.5,1.5,0,1,1,23,38.5,1.5,1.5,0,0,1,21.5,40ZM29,39a2,2,0,0,1-2-2,1.955,1.955,0,0,1,.579-1.409A2.043,2.043,0,0,1,29,35a2,2,0,0,1,2,2,1.95,1.95,0,0,1-.578,1.409A2.017,2.017,0,0,1,29,39ZM15.5,39A1.5,1.5,0,1,1,17,37.5,1.5,1.5,0,0,1,15.5,39Zm34-1A1.5,1.5,0,1,1,51,36.5,1.51,1.51,0,0,1,49.5,38Zm-11,0A1.5,1.5,0,1,1,40,36.5,1.511,1.511,0,0,1,38.5,38Zm4-2a1.518,1.518,0,0,1-1.067-.44A1.485,1.485,0,0,1,41,34.5,1.5,1.5,0,0,1,42.5,33a1.517,1.517,0,0,1,1.066.441A1.468,1.468,0,0,1,44,34.5,1.5,1.5,0,0,1,42.5,36Zm10-1A1.5,1.5,0,1,1,54,33.5,1.5,1.5,0,0,1,52.5,35Zm-18,0A1.5,1.5,0,1,1,36,33.5,1.51,1.51,0,0,1,34.5,35Zm-14,0a1.525,1.525,0,0,1-1.068-.442A1.461,1.461,0,0,1,19,33.5a1.48,1.48,0,0,1,.433-1.057A1.533,1.533,0,0,1,20.5,32a1.5,1.5,0,0,1,0,3Zm-5,0A1.5,1.5,0,1,1,17,33.5a1.48,1.48,0,0,1-.434,1.055A1.535,1.535,0,0,1,15.5,35Zm10-1a1.529,1.529,0,0,1-1.066-.444A1.478,1.478,0,0,1,24,32.5,1.5,1.5,0,1,1,25.5,34ZM3,33a3,3,0,1,1,3-3A3,3,0,0,1,3,33Zm42.5-1A1.5,1.5,0,1,1,47,30.5,1.5,1.5,0,0,1,45.5,32ZM55,31a2.039,2.039,0,0,1-1.422-.59A1.978,1.978,0,0,1,53,29a2,2,0,1,1,2,2ZM37.5,31a1.511,1.511,0,0,1-1.066-.443A1.466,1.466,0,0,1,36,29.5a1.5,1.5,0,0,1,2.566-1.057,1.5,1.5,0,0,1,0,2.112A1.513,1.513,0,0,1,37.5,31Zm-17,0A1.5,1.5,0,1,1,22,29.5,1.507,1.507,0,0,1,20.5,31ZM16,31a1,1,0,1,1,1-1A1,1,0,0,1,16,31Zm8.5-2a1.5,1.5,0,0,1-1.065-.442A1.484,1.484,0,0,1,23,27.5a1.5,1.5,0,0,1,2.565-1.059A1.469,1.469,0,0,1,26,27.5,1.5,1.5,0,0,1,24.5,29ZM49,28a2.035,2.035,0,0,1-1.423-.59A1.947,1.947,0,0,1,47,26a2,2,0,0,1,4,0,1.955,1.955,0,0,1-.579,1.408A2.02,2.02,0,0,1,49,28Zm-8-1a2,2,0,1,1,0-4,2.032,2.032,0,0,1,1.42.59A2,2,0,0,1,41,27ZM11.5,27A2.788,2.788,0,0,1,9,24a3.261,3.261,0,0,1,.724-2.113A2.331,2.331,0,0,1,11.5,21,2.788,2.788,0,0,1,14,24,2.788,2.788,0,0,1,11.5,27Zm46-2A2.5,2.5,0,0,1,55,22.5a2.45,2.45,0,0,1,.725-1.76A2.5,2.5,0,1,1,57.5,25Zm-39-1A2.5,2.5,0,1,1,21,21.5,2.5,2.5,0,0,1,18.5,24Zm33-1A2.5,2.5,0,1,1,54,20.5,2.5,2.5,0,0,1,51.5,23Zm-17,0A1.5,1.5,0,1,1,36,21.5,1.513,1.513,0,0,1,34.5,23Zm9-1A2.5,2.5,0,1,1,46,19.5a2.446,2.446,0,0,1-.724,1.761A2.548,2.548,0,0,1,43.5,22ZM30.507,22A1.5,1.5,0,1,1,32,20.5,1.505,1.505,0,0,1,30.507,22ZM24,22a2.033,2.033,0,0,1-1.423-.59,2.006,2.006,0,0,1,0-2.817A2,2,0,0,1,26,20a1.957,1.957,0,0,1-.579,1.408A2.016,2.016,0,0,1,24,22ZM7.5,20a2.515,2.515,0,0,1-1.777-.738,2.508,2.508,0,0,1,0-3.523A2.5,2.5,0,1,1,7.5,20Zm28-2A1.5,1.5,0,1,1,37,16.5,1.5,1.5,0,0,1,35.5,18Zm-20-1A2.5,2.5,0,1,1,18,14.5,2.5,2.5,0,0,1,15.5,17Zm16-1a1.534,1.534,0,0,1-1.067-.444A1.463,1.463,0,0,1,30,14.5,1.5,1.5,0,1,1,31.5,16Zm21-1A2.5,2.5,0,1,1,55,12.5,2.5,2.5,0,0,1,52.5,15Zm-26,0a1.531,1.531,0,0,1-1.065-.443A1.487,1.487,0,0,1,25,13.5,1.5,1.5,0,1,1,26.5,15ZM22,15a2,2,0,1,1,2-2A2.012,2.012,0,0,1,22,15Zm22.5-1A2.788,2.788,0,0,1,42,11a2.787,2.787,0,0,1,2.5-3A2.788,2.788,0,0,1,47,11a3.256,3.256,0,0,1-.725,2.112A2.334,2.334,0,0,1,44.5,14ZM37,14a1.015,1.015,0,0,1-.713-.294A.976.976,0,0,1,36,13a.989.989,0,0,1,.29-.7,1,1,0,0,1,1.421,0,1,1,0,0,1,0,1.409A1.026,1.026,0,0,1,37,14Zm-2.5-2A1.5,1.5,0,1,1,36,10.5,1.5,1.5,0,0,1,34.5,12Zm-3.992-2A1.5,1.5,0,1,1,32,8.5,1.506,1.506,0,0,1,30.508,10ZM15,10a2.3,2.3,0,0,1-2-2.5A2.3,2.3,0,0,1,15,5a2.294,2.294,0,0,1,2,2.5A2.3,2.3,0,0,1,15,10ZM25.5,9A1.507,1.507,0,0,1,24,7.5a1.482,1.482,0,0,1,.435-1.057A1.523,1.523,0,0,1,25.5,6a1.5,1.5,0,1,1,0,3ZM21,9a2,2,0,1,1,2-2A2,2,0,0,1,21,9ZM43,6a3,3,0,1,1,3-3A3,3,0,0,1,43,6Z" transform="translate(271 103)" fill="#fff"/>
          </g>
        </g>
        <g transform="matrix(1, 0, 0, 1, -245, -74)" filter="url(#Shape-timer-copy-2)">
          <path id="Shape_Copy-7" data-name="Shape Copy" d="M34.5,55a2.524,2.524,0,0,1-1.776-.74A2.5,2.5,0,0,1,34.5,50a2.5,2.5,0,1,1,0,5Zm-12,0A2.5,2.5,0,1,1,25,52.5,2.5,2.5,0,0,1,22.5,55ZM48,53a3,3,0,1,1,3-3A3,3,0,0,1,48,53ZM28.5,51a2.545,2.545,0,0,1-1.778-.737A2.5,2.5,0,1,1,28.5,51Zm10-2A2.5,2.5,0,1,1,41,46.5,2.5,2.5,0,0,1,38.5,49ZM19,49a2,2,0,1,1,2-2A2.012,2.012,0,0,1,19,49Zm13.5-4A2.5,2.5,0,1,1,35,42.5a2.451,2.451,0,0,1-.725,1.761A2.521,2.521,0,0,1,32.5,45ZM23,45a2.011,2.011,0,0,1-1.421-.59A1.961,1.961,0,0,1,21,43a2,2,0,1,1,2,2Zm-6.5-1a1.511,1.511,0,0,1-1.065-.444,1.5,1.5,0,0,1,0-2.113,1.506,1.506,0,0,1,2.132,0,1.5,1.5,0,0,1,0,2.115A1.527,1.527,0,0,1,16.5,44ZM42,41a1.015,1.015,0,0,1-.714-.293,1.009,1.009,0,0,1,0-1.411A1,1,0,0,1,43,40a.977.977,0,0,1-.29.7A1.021,1.021,0,0,1,42,41Zm3-1a1,1,0,1,1,1-1A1.008,1.008,0,0,1,45,40ZM21.5,40A1.5,1.5,0,1,1,23,38.5,1.5,1.5,0,0,1,21.5,40ZM29,39a2,2,0,0,1-2-2,1.955,1.955,0,0,1,.579-1.409A2.043,2.043,0,0,1,29,35a2,2,0,0,1,2,2,1.95,1.95,0,0,1-.578,1.409A2.017,2.017,0,0,1,29,39ZM15.5,39A1.5,1.5,0,1,1,17,37.5,1.5,1.5,0,0,1,15.5,39Zm34-1A1.5,1.5,0,1,1,51,36.5,1.51,1.51,0,0,1,49.5,38Zm-11,0A1.5,1.5,0,1,1,40,36.5,1.511,1.511,0,0,1,38.5,38Zm4-2a1.518,1.518,0,0,1-1.067-.44A1.485,1.485,0,0,1,41,34.5,1.5,1.5,0,0,1,42.5,33a1.517,1.517,0,0,1,1.066.441A1.468,1.468,0,0,1,44,34.5,1.5,1.5,0,0,1,42.5,36Zm10-1A1.5,1.5,0,1,1,54,33.5,1.5,1.5,0,0,1,52.5,35Zm-18,0A1.5,1.5,0,1,1,36,33.5,1.51,1.51,0,0,1,34.5,35Zm-14,0a1.525,1.525,0,0,1-1.068-.442A1.461,1.461,0,0,1,19,33.5a1.48,1.48,0,0,1,.433-1.057A1.533,1.533,0,0,1,20.5,32a1.5,1.5,0,0,1,0,3Zm-5,0A1.5,1.5,0,1,1,17,33.5a1.48,1.48,0,0,1-.434,1.055A1.535,1.535,0,0,1,15.5,35Zm10-1a1.529,1.529,0,0,1-1.066-.444A1.478,1.478,0,0,1,24,32.5,1.5,1.5,0,1,1,25.5,34ZM3,33a3,3,0,1,1,3-3A3,3,0,0,1,3,33Zm42.5-1A1.5,1.5,0,1,1,47,30.5,1.5,1.5,0,0,1,45.5,32ZM55,31a2.039,2.039,0,0,1-1.422-.59A1.978,1.978,0,0,1,53,29a2,2,0,1,1,2,2ZM37.5,31a1.511,1.511,0,0,1-1.066-.443A1.466,1.466,0,0,1,36,29.5a1.5,1.5,0,0,1,2.566-1.057,1.5,1.5,0,0,1,0,2.112A1.513,1.513,0,0,1,37.5,31Zm-17,0A1.5,1.5,0,1,1,22,29.5,1.507,1.507,0,0,1,20.5,31ZM16,31a1,1,0,1,1,1-1A1,1,0,0,1,16,31Zm8.5-2a1.5,1.5,0,0,1-1.065-.442A1.484,1.484,0,0,1,23,27.5a1.5,1.5,0,0,1,2.565-1.059A1.469,1.469,0,0,1,26,27.5,1.5,1.5,0,0,1,24.5,29ZM49,28a2.035,2.035,0,0,1-1.423-.59A1.947,1.947,0,0,1,47,26a2,2,0,0,1,4,0,1.955,1.955,0,0,1-.579,1.408A2.02,2.02,0,0,1,49,28Zm-8-1a2,2,0,1,1,0-4,2.032,2.032,0,0,1,1.42.59A2,2,0,0,1,41,27ZM11.5,27A2.788,2.788,0,0,1,9,24a3.261,3.261,0,0,1,.724-2.113A2.331,2.331,0,0,1,11.5,21,2.788,2.788,0,0,1,14,24,2.788,2.788,0,0,1,11.5,27Zm46-2A2.5,2.5,0,0,1,55,22.5a2.45,2.45,0,0,1,.725-1.76A2.5,2.5,0,1,1,57.5,25Zm-39-1A2.5,2.5,0,1,1,21,21.5,2.5,2.5,0,0,1,18.5,24Zm33-1A2.5,2.5,0,1,1,54,20.5,2.5,2.5,0,0,1,51.5,23Zm-17,0A1.5,1.5,0,1,1,36,21.5,1.513,1.513,0,0,1,34.5,23Zm9-1A2.5,2.5,0,1,1,46,19.5a2.446,2.446,0,0,1-.724,1.761A2.548,2.548,0,0,1,43.5,22ZM30.507,22A1.5,1.5,0,1,1,32,20.5,1.505,1.505,0,0,1,30.507,22ZM24,22a2.033,2.033,0,0,1-1.423-.59,2.006,2.006,0,0,1,0-2.817A2,2,0,0,1,26,20a1.957,1.957,0,0,1-.579,1.408A2.016,2.016,0,0,1,24,22ZM7.5,20a2.515,2.515,0,0,1-1.777-.738,2.508,2.508,0,0,1,0-3.523A2.5,2.5,0,1,1,7.5,20Zm28-2A1.5,1.5,0,1,1,37,16.5,1.5,1.5,0,0,1,35.5,18Zm-20-1A2.5,2.5,0,1,1,18,14.5,2.5,2.5,0,0,1,15.5,17Zm16-1a1.534,1.534,0,0,1-1.067-.444A1.463,1.463,0,0,1,30,14.5,1.5,1.5,0,1,1,31.5,16Zm21-1A2.5,2.5,0,1,1,55,12.5,2.5,2.5,0,0,1,52.5,15Zm-26,0a1.531,1.531,0,0,1-1.065-.443A1.487,1.487,0,0,1,25,13.5,1.5,1.5,0,1,1,26.5,15ZM22,15a2,2,0,1,1,2-2A2.012,2.012,0,0,1,22,15Zm22.5-1A2.788,2.788,0,0,1,42,11a2.787,2.787,0,0,1,2.5-3A2.788,2.788,0,0,1,47,11a3.256,3.256,0,0,1-.725,2.112A2.334,2.334,0,0,1,44.5,14ZM37,14a1.015,1.015,0,0,1-.713-.294A.976.976,0,0,1,36,13a.989.989,0,0,1,.29-.7,1,1,0,0,1,1.421,0,1,1,0,0,1,0,1.409A1.026,1.026,0,0,1,37,14Zm-2.5-2A1.5,1.5,0,1,1,36,10.5,1.5,1.5,0,0,1,34.5,12Zm-3.992-2A1.5,1.5,0,1,1,32,8.5,1.506,1.506,0,0,1,30.508,10ZM15,10a2.3,2.3,0,0,1-2-2.5A2.3,2.3,0,0,1,15,5a2.294,2.294,0,0,1,2,2.5A2.3,2.3,0,0,1,15,10ZM25.5,9A1.507,1.507,0,0,1,24,7.5a1.482,1.482,0,0,1,.435-1.057A1.523,1.523,0,0,1,25.5,6a1.5,1.5,0,1,1,0,3ZM21,9a2,2,0,1,1,2-2A2,2,0,0,1,21,9ZM43,6a3,3,0,1,1,3-3A3,3,0,0,1,43,6Z" transform="translate(271 103)" fill="#fff"/>
        </g>
        <g transform="matrix(1, 0, 0, 1, -245, -74)" filter="url(#Shape-timer-copy-3)">
          <path id="Shape_Copy-8" data-name="Shape Copy" d="M34.5,55a2.524,2.524,0,0,1-1.776-.74A2.5,2.5,0,0,1,34.5,50a2.5,2.5,0,1,1,0,5Zm-12,0A2.5,2.5,0,1,1,25,52.5,2.5,2.5,0,0,1,22.5,55ZM48,53a3,3,0,1,1,3-3A3,3,0,0,1,48,53ZM28.5,51a2.545,2.545,0,0,1-1.778-.737A2.5,2.5,0,1,1,28.5,51Zm10-2A2.5,2.5,0,1,1,41,46.5,2.5,2.5,0,0,1,38.5,49ZM19,49a2,2,0,1,1,2-2A2.012,2.012,0,0,1,19,49Zm13.5-4A2.5,2.5,0,1,1,35,42.5a2.451,2.451,0,0,1-.725,1.761A2.521,2.521,0,0,1,32.5,45ZM23,45a2.011,2.011,0,0,1-1.421-.59A1.961,1.961,0,0,1,21,43a2,2,0,1,1,2,2Zm-6.5-1a1.511,1.511,0,0,1-1.065-.444,1.5,1.5,0,0,1,0-2.113,1.506,1.506,0,0,1,2.132,0,1.5,1.5,0,0,1,0,2.115A1.527,1.527,0,0,1,16.5,44ZM42,41a1.015,1.015,0,0,1-.714-.293,1.009,1.009,0,0,1,0-1.411A1,1,0,0,1,43,40a.977.977,0,0,1-.29.7A1.021,1.021,0,0,1,42,41Zm3-1a1,1,0,1,1,1-1A1.008,1.008,0,0,1,45,40ZM21.5,40A1.5,1.5,0,1,1,23,38.5,1.5,1.5,0,0,1,21.5,40ZM29,39a2,2,0,0,1-2-2,1.955,1.955,0,0,1,.579-1.409A2.043,2.043,0,0,1,29,35a2,2,0,0,1,2,2,1.95,1.95,0,0,1-.578,1.409A2.017,2.017,0,0,1,29,39ZM15.5,39A1.5,1.5,0,1,1,17,37.5,1.5,1.5,0,0,1,15.5,39Zm34-1A1.5,1.5,0,1,1,51,36.5,1.51,1.51,0,0,1,49.5,38Zm-11,0A1.5,1.5,0,1,1,40,36.5,1.511,1.511,0,0,1,38.5,38Zm4-2a1.518,1.518,0,0,1-1.067-.44A1.485,1.485,0,0,1,41,34.5,1.5,1.5,0,0,1,42.5,33a1.517,1.517,0,0,1,1.066.441A1.468,1.468,0,0,1,44,34.5,1.5,1.5,0,0,1,42.5,36Zm10-1A1.5,1.5,0,1,1,54,33.5,1.5,1.5,0,0,1,52.5,35Zm-18,0A1.5,1.5,0,1,1,36,33.5,1.51,1.51,0,0,1,34.5,35Zm-14,0a1.525,1.525,0,0,1-1.068-.442A1.461,1.461,0,0,1,19,33.5a1.48,1.48,0,0,1,.433-1.057A1.533,1.533,0,0,1,20.5,32a1.5,1.5,0,0,1,0,3Zm-5,0A1.5,1.5,0,1,1,17,33.5a1.48,1.48,0,0,1-.434,1.055A1.535,1.535,0,0,1,15.5,35Zm10-1a1.529,1.529,0,0,1-1.066-.444A1.478,1.478,0,0,1,24,32.5,1.5,1.5,0,1,1,25.5,34ZM3,33a3,3,0,1,1,3-3A3,3,0,0,1,3,33Zm42.5-1A1.5,1.5,0,1,1,47,30.5,1.5,1.5,0,0,1,45.5,32ZM55,31a2.039,2.039,0,0,1-1.422-.59A1.978,1.978,0,0,1,53,29a2,2,0,1,1,2,2ZM37.5,31a1.511,1.511,0,0,1-1.066-.443A1.466,1.466,0,0,1,36,29.5a1.5,1.5,0,0,1,2.566-1.057,1.5,1.5,0,0,1,0,2.112A1.513,1.513,0,0,1,37.5,31Zm-17,0A1.5,1.5,0,1,1,22,29.5,1.507,1.507,0,0,1,20.5,31ZM16,31a1,1,0,1,1,1-1A1,1,0,0,1,16,31Zm8.5-2a1.5,1.5,0,0,1-1.065-.442A1.484,1.484,0,0,1,23,27.5a1.5,1.5,0,0,1,2.565-1.059A1.469,1.469,0,0,1,26,27.5,1.5,1.5,0,0,1,24.5,29ZM49,28a2.035,2.035,0,0,1-1.423-.59A1.947,1.947,0,0,1,47,26a2,2,0,0,1,4,0,1.955,1.955,0,0,1-.579,1.408A2.02,2.02,0,0,1,49,28Zm-8-1a2,2,0,1,1,0-4,2.032,2.032,0,0,1,1.42.59A2,2,0,0,1,41,27ZM11.5,27A2.788,2.788,0,0,1,9,24a3.261,3.261,0,0,1,.724-2.113A2.331,2.331,0,0,1,11.5,21,2.788,2.788,0,0,1,14,24,2.788,2.788,0,0,1,11.5,27Zm46-2A2.5,2.5,0,0,1,55,22.5a2.45,2.45,0,0,1,.725-1.76A2.5,2.5,0,1,1,57.5,25Zm-39-1A2.5,2.5,0,1,1,21,21.5,2.5,2.5,0,0,1,18.5,24Zm33-1A2.5,2.5,0,1,1,54,20.5,2.5,2.5,0,0,1,51.5,23Zm-17,0A1.5,1.5,0,1,1,36,21.5,1.513,1.513,0,0,1,34.5,23Zm9-1A2.5,2.5,0,1,1,46,19.5a2.446,2.446,0,0,1-.724,1.761A2.548,2.548,0,0,1,43.5,22ZM30.507,22A1.5,1.5,0,1,1,32,20.5,1.505,1.505,0,0,1,30.507,22ZM24,22a2.033,2.033,0,0,1-1.423-.59,2.006,2.006,0,0,1,0-2.817A2,2,0,0,1,26,20a1.957,1.957,0,0,1-.579,1.408A2.016,2.016,0,0,1,24,22ZM7.5,20a2.515,2.515,0,0,1-1.777-.738,2.508,2.508,0,0,1,0-3.523A2.5,2.5,0,1,1,7.5,20Zm28-2A1.5,1.5,0,1,1,37,16.5,1.5,1.5,0,0,1,35.5,18Zm-20-1A2.5,2.5,0,1,1,18,14.5,2.5,2.5,0,0,1,15.5,17Zm16-1a1.534,1.534,0,0,1-1.067-.444A1.463,1.463,0,0,1,30,14.5,1.5,1.5,0,1,1,31.5,16Zm21-1A2.5,2.5,0,1,1,55,12.5,2.5,2.5,0,0,1,52.5,15Zm-26,0a1.531,1.531,0,0,1-1.065-.443A1.487,1.487,0,0,1,25,13.5,1.5,1.5,0,1,1,26.5,15ZM22,15a2,2,0,1,1,2-2A2.012,2.012,0,0,1,22,15Zm22.5-1A2.788,2.788,0,0,1,42,11a2.787,2.787,0,0,1,2.5-3A2.788,2.788,0,0,1,47,11a3.256,3.256,0,0,1-.725,2.112A2.334,2.334,0,0,1,44.5,14ZM37,14a1.015,1.015,0,0,1-.713-.294A.976.976,0,0,1,36,13a.989.989,0,0,1,.29-.7,1,1,0,0,1,1.421,0,1,1,0,0,1,0,1.409A1.026,1.026,0,0,1,37,14Zm-2.5-2A1.5,1.5,0,1,1,36,10.5,1.5,1.5,0,0,1,34.5,12Zm-3.992-2A1.5,1.5,0,1,1,32,8.5,1.506,1.506,0,0,1,30.508,10ZM15,10a2.3,2.3,0,0,1-2-2.5A2.3,2.3,0,0,1,15,5a2.294,2.294,0,0,1,2,2.5A2.3,2.3,0,0,1,15,10ZM25.5,9A1.507,1.507,0,0,1,24,7.5a1.482,1.482,0,0,1,.435-1.057A1.523,1.523,0,0,1,25.5,6a1.5,1.5,0,1,1,0,3ZM21,9a2,2,0,1,1,2-2A2,2,0,0,1,21,9ZM43,6a3,3,0,1,1,3-3A3,3,0,0,1,43,6Z" transform="translate(271 103)" fill="#fff"/>
        </g>
      </g>
    </g>
    <g id="Group_3_Copy" data-name="Group 3 Copy" transform="translate(0 46)">
      <g id="Oval-23" data-name="Oval">
        <g data-type="innerShadowGroup">
          <g transform="matrix(1, 0, 0, 1, -28, -74)" filter="url(#Oval-timer-9)">
            <circle id="Oval-24" data-name="Oval" cx="56" cy="56" r="56" transform="translate(28 74)" fill="url(#linear-gradient-timer)"/>
          </g>
          <g transform="matrix(1, 0, 0, 1, -28, -74)" filter="url(#Oval-timer-10)">
            <circle id="Oval-25" data-name="Oval" cx="56" cy="56" r="56" transform="translate(28 74)" fill="#fff"/>
          </g>
        </g>
        <g transform="matrix(1, 0, 0, 1, -28, -74)" filter="url(#Oval-timer-11)">
          <circle id="Oval-26" data-name="Oval" cx="56" cy="56" r="56" transform="translate(28 74)" fill="#fff"/>
        </g>
        <g transform="matrix(1, 0, 0, 1, -28, -74)" filter="url(#Oval-timer-12)">
          <circle id="Oval-27" data-name="Oval" cx="56" cy="56" r="56" transform="translate(28 74)" fill="#fff"/>
        </g>
      </g>
      <g id="symbol-4" data-name="symbol">
        <g data-type="innerShadowGroup">
          <path id="symbol-5" data-name="symbol" d="M20.16,52.91h0l-4.584-1.142,1.873-7.5c-1.287-.32-2.483-.63-3.654-.948l-1.878,7.537L7.337,49.712l1.9-7.617q-.641-.164-1.29-.335c-.647-.169-1.313-.343-1.978-.51L0,39.765l2.276-5.248c.03.008,3.141.836,3.324.836,0,0,.008,0,.008,0a2.353,2.353,0,0,0,.542.069A1.679,1.679,0,0,0,7.709,34.26l2.572-10.316,2.572-10.316a2.44,2.44,0,0,0-2.136-2.666c-.011-.067-3.194-.8-3.33-.828l1.22-4.9,6.322,1.579-.005.024c.984.244,2.027.483,2.928.688L19.73,0l4.582,1.142-1.84,7.382c1.381.314,2.529.579,3.673.864l1.828-7.332L32.556,3.2l-1.877,7.531a18.188,18.188,0,0,1,7.077,3.934,7.291,7.291,0,0,1,2.113,6.608c-.547,3.7-2.516,5.962-5.854,6.731a8.995,8.995,0,0,1,4.4,4.227c.833,1.9.773,4.158-.184,6.891a9.737,9.737,0,0,1-3.958,5.343,11.493,11.493,0,0,1-6.218,1.5,32.6,32.6,0,0,1-5.994-.658l-1.9,7.6ZM17.8,27.711h0L15.285,37.8c.256.063.55.141.891.231a31.7,31.7,0,0,0,7.579,1.292c3.186,0,5.083-1.133,5.639-3.367a4.1,4.1,0,0,0-.452-3.258c-1.779-2.882-7.137-4.084-10.016-4.729-.436-.1-.812-.182-1.124-.26Zm3.434-13.773-2.282,9.153c.216.054.465.12.754.2a24.738,24.738,0,0,0,6.1,1.043c2.8,0,4.481-1.057,5-3.143a3.883,3.883,0,0,0-.41-3.09c-1.524-2.461-5.879-3.426-8.22-3.944-.368-.081-.685-.152-.946-.217Z" transform="translate(36 30)" fill="url(#linear-gradient-timer-2)"/>
          <g transform="matrix(1, 0, 0, 1, -28, -74)" filter="url(#symbol-timer)">
            <path id="symbol-6" data-name="symbol" d="M20.16,52.91h0l-4.584-1.142,1.873-7.5c-1.287-.32-2.483-.63-3.654-.948l-1.878,7.537L7.337,49.712l1.9-7.617q-.641-.164-1.29-.335c-.647-.169-1.313-.343-1.978-.51L0,39.765l2.276-5.248c.03.008,3.141.836,3.324.836,0,0,.008,0,.008,0a2.353,2.353,0,0,0,.542.069A1.679,1.679,0,0,0,7.709,34.26l2.572-10.316,2.572-10.316a2.44,2.44,0,0,0-2.136-2.666c-.011-.067-3.194-.8-3.33-.828l1.22-4.9,6.322,1.579-.005.024c.984.244,2.027.483,2.928.688L19.73,0l4.582,1.142-1.84,7.382c1.381.314,2.529.579,3.673.864l1.828-7.332L32.556,3.2l-1.877,7.531a18.188,18.188,0,0,1,7.077,3.934,7.291,7.291,0,0,1,2.113,6.608c-.547,3.7-2.516,5.962-5.854,6.731a8.995,8.995,0,0,1,4.4,4.227c.833,1.9.773,4.158-.184,6.891a9.737,9.737,0,0,1-3.958,5.343,11.493,11.493,0,0,1-6.218,1.5,32.6,32.6,0,0,1-5.994-.658l-1.9,7.6ZM17.8,27.711h0L15.285,37.8c.256.063.55.141.891.231a31.7,31.7,0,0,0,7.579,1.292c3.186,0,5.083-1.133,5.639-3.367a4.1,4.1,0,0,0-.452-3.258c-1.779-2.882-7.137-4.084-10.016-4.729-.436-.1-.812-.182-1.124-.26Zm3.434-13.773-2.282,9.153c.216.054.465.12.754.2a24.738,24.738,0,0,0,6.1,1.043c2.8,0,4.481-1.057,5-3.143a3.883,3.883,0,0,0-.41-3.09c-1.524-2.461-5.879-3.426-8.22-3.944-.368-.081-.685-.152-.946-.217Z" transform="translate(64 104)" fill="#fff"/>
          </g>
        </g>
        <g transform="matrix(1, 0, 0, 1, -28, -74)" filter="url(#symbol-timer-2)">
          <path id="symbol-7" data-name="symbol" d="M20.16,52.91h0l-4.584-1.142,1.873-7.5c-1.287-.32-2.483-.63-3.654-.948l-1.878,7.537L7.337,49.712l1.9-7.617q-.641-.164-1.29-.335c-.647-.169-1.313-.343-1.978-.51L0,39.765l2.276-5.248c.03.008,3.141.836,3.324.836,0,0,.008,0,.008,0a2.353,2.353,0,0,0,.542.069A1.679,1.679,0,0,0,7.709,34.26l2.572-10.316,2.572-10.316a2.44,2.44,0,0,0-2.136-2.666c-.011-.067-3.194-.8-3.33-.828l1.22-4.9,6.322,1.579-.005.024c.984.244,2.027.483,2.928.688L19.73,0l4.582,1.142-1.84,7.382c1.381.314,2.529.579,3.673.864l1.828-7.332L32.556,3.2l-1.877,7.531a18.188,18.188,0,0,1,7.077,3.934,7.291,7.291,0,0,1,2.113,6.608c-.547,3.7-2.516,5.962-5.854,6.731a8.995,8.995,0,0,1,4.4,4.227c.833,1.9.773,4.158-.184,6.891a9.737,9.737,0,0,1-3.958,5.343,11.493,11.493,0,0,1-6.218,1.5,32.6,32.6,0,0,1-5.994-.658l-1.9,7.6ZM17.8,27.711h0L15.285,37.8c.256.063.55.141.891.231a31.7,31.7,0,0,0,7.579,1.292c3.186,0,5.083-1.133,5.639-3.367a4.1,4.1,0,0,0-.452-3.258c-1.779-2.882-7.137-4.084-10.016-4.729-.436-.1-.812-.182-1.124-.26Zm3.434-13.773-2.282,9.153c.216.054.465.12.754.2a24.738,24.738,0,0,0,6.1,1.043c2.8,0,4.481-1.057,5-3.143a3.883,3.883,0,0,0-.41-3.09c-1.524-2.461-5.879-3.426-8.22-3.944-.368-.081-.685-.152-.946-.217Z" transform="translate(64 104)" fill="#fff"/>
        </g>
        <g transform="matrix(1, 0, 0, 1, -28, -74)" filter="url(#symbol-timer-3)">
          <path id="symbol-8" data-name="symbol" d="M20.16,52.91h0l-4.584-1.142,1.873-7.5c-1.287-.32-2.483-.63-3.654-.948l-1.878,7.537L7.337,49.712l1.9-7.617q-.641-.164-1.29-.335c-.647-.169-1.313-.343-1.978-.51L0,39.765l2.276-5.248c.03.008,3.141.836,3.324.836,0,0,.008,0,.008,0a2.353,2.353,0,0,0,.542.069A1.679,1.679,0,0,0,7.709,34.26l2.572-10.316,2.572-10.316a2.44,2.44,0,0,0-2.136-2.666c-.011-.067-3.194-.8-3.33-.828l1.22-4.9,6.322,1.579-.005.024c.984.244,2.027.483,2.928.688L19.73,0l4.582,1.142-1.84,7.382c1.381.314,2.529.579,3.673.864l1.828-7.332L32.556,3.2l-1.877,7.531a18.188,18.188,0,0,1,7.077,3.934,7.291,7.291,0,0,1,2.113,6.608c-.547,3.7-2.516,5.962-5.854,6.731a8.995,8.995,0,0,1,4.4,4.227c.833,1.9.773,4.158-.184,6.891a9.737,9.737,0,0,1-3.958,5.343,11.493,11.493,0,0,1-6.218,1.5,32.6,32.6,0,0,1-5.994-.658l-1.9,7.6ZM17.8,27.711h0L15.285,37.8c.256.063.55.141.891.231a31.7,31.7,0,0,0,7.579,1.292c3.186,0,5.083-1.133,5.639-3.367a4.1,4.1,0,0,0-.452-3.258c-1.779-2.882-7.137-4.084-10.016-4.729-.436-.1-.812-.182-1.124-.26Zm3.434-13.773-2.282,9.153c.216.054.465.12.754.2a24.738,24.738,0,0,0,6.1,1.043c2.8,0,4.481-1.057,5-3.143a3.883,3.883,0,0,0-.41-3.09c-1.524-2.461-5.879-3.426-8.22-3.944-.368-.081-.685-.152-.946-.217Z" transform="translate(64 104)" fill="#fff"/>
        </g>
      </g>
    </g>
  </g>
</svg>
