<svg id="icon" xmlns="http://www.w3.org/2000/svg" width="48" height="48" viewBox="0 0 48 48">
  <rect id="surface" width="48" height="48" rx="24" fill="#00f5be"/>
  <g id="shield" transform="translate(12 12)" opacity="0.8">
    <rect id="frame" width="24" height="24" fill="none"/>
    <path id="shape" d="M6.89,17.806C1.793,15.091,0,13.764,0,10.564V4a1.876,1.876,0,0,1,1.406-2.03C2.329,1.591,5.555.431,6.442.185A4.307,4.307,0,0,1,7.532,0a3.588,3.588,0,0,1,1.09.185l.164.054.2.067c1.193.4,3.848,1.319,4.672,1.663A1.876,1.876,0,0,1,15.064,4v6.566c0,3.2-1.784,4.535-6.89,7.242A1.494,1.494,0,0,1,7.532,18,1.5,1.5,0,0,1,6.89,17.806Z" transform="translate(4.463 3.231)" fill="#141029"/>
  </g>
</svg>
